<svg xmlns="http://www.w3.org/2000/svg" xmlns:xlink="http://www.w3.org/1999/xlink" viewBox="0 0 456.65 448.15"><defs><style>.cls-1{fill:#070707;}.cls-2{fill:#2d2d2d;}.cls-3,.cls-7,.cls-8{fill:none;stroke-miterlimit:10;}.cls-3{stroke:#2d2d2d;}.cls-4{fill:url(#linear-gradient);}.cls-5{fill:#8eaab2;}.cls-6,.cls-9{fill:#fff;}.cls-7{stroke:#ebf4f7;opacity:0.66;}.cls-8{stroke:#7c7c7c;stroke-width:0.7px;}.cls-9{font-size:24.7px;font-family:Courgette-Regular, Courgette;}</style><linearGradient id="linear-gradient" x1="226.61" y1="414.58" x2="230.04" y2="33.56" gradientUnits="userSpaceOnUse"><stop offset="0" stop-color="#231f20"/><stop offset="0.19" stop-color="#252122"/><stop offset="0.26" stop-color="#2b2829"/><stop offset="0.32" stop-color="#373435"/><stop offset="0.36" stop-color="#474547"/><stop offset="0.4" stop-color="#5c5c5d"/><stop offset="0.44" stop-color="#767879"/><stop offset="0.47" stop-color="#95999b"/><stop offset="0.5" stop-color="#b7bec0"/><stop offset="0.52" stop-color="#d7e0e2"/><stop offset="0.53" stop-color="#c9d1d3"/><stop offset="0.6" stop-color="#949a9c"/><stop offset="0.67" stop-color="#676b6c"/><stop offset="0.74" stop-color="#424545"/><stop offset="0.81" stop-color="#252727"/><stop offset="0.88" stop-color="#111"/><stop offset="0.94" stop-color="#040404"/><stop offset="1"/></linearGradient></defs><g id="Layer_2" data-name="Layer 2"><g id="Layer_1-2" data-name="Layer 1"><ellipse class="cls-1" cx="228.32" cy="224.07" rx="228.32" ry="224.07"/><ellipse class="cls-2" cx="228.32" cy="224.07" rx="219.82" ry="215.73"/><circle class="cls-3" cx="228.32" cy="224.07" r="103.37"/><ellipse class="cls-4" cx="228.32" cy="224.07" rx="193.64" ry="190.52"/><circle class="cls-5" cx="228.32" cy="224.07" r="103.37"/><circle class="cls-6" cx="228.32" cy="224.07" r="14.03"/><circle class="cls-7" cx="228.32" cy="224.07" r="35.8"/><ellipse class="cls-8" cx="228.32" cy="224.07" rx="193.64" ry="190.52"/><ellipse class="cls-8" cx="228.32" cy="224.07" rx="163.55" ry="161.47"/><ellipse class="cls-8" cx="228.32" cy="224.07" rx="133.46" ry="132.42"/><circle class="cls-8" cx="228.32" cy="224.07" r="103.37"/><text class="cls-9" transform="matrix(0.69, -0.72, 0.72, 0.69, 177.97, 187.4)">H</text><text class="cls-9" transform="translate(189.32 176.12) rotate(-35.68)">i</text><text class="cls-9" transform="matrix(0.89, -0.45, 0.45, 0.89, 194.61, 172.01)">g</text><text class="cls-9" transform="translate(205.71 166.3) rotate(-14.96)">h</text><text class="cls-9" transform="translate(218.59 163.09) rotate(-5.5)"> </text><text class="cls-9" transform="translate(225.64 161.94) rotate(5.25)">H</text><text class="cls-9" transform="translate(241.49 163.56) rotate(18.19)">o</text><text class="cls-9" transform="matrix(0.87, 0.5, -0.5, 0.87, 253.11, 167.27)">p</text><text class="cls-9" transform="matrix(0.75, 0.66, -0.66, 0.75, 264.43, 173.79)">e</text><text class="cls-9" transform="matrix(0.63, 0.78, -0.78, 0.63, 272.87, 181.15)">s</text></g></g></svg>