<svg xmlns="http://www.w3.org/2000/svg" viewBox="0 0 160.01 20.53"><g id="Layer_2" data-name="Layer 2"><g id="Layer_1-2" data-name="Layer 1"><path d="M3.12,7.81c0,.2,0,.29,0,.29h.17l.36.06.48,0,.52,0h.68a.79.79,0,0,0,.38-.17V7.92a1.44,1.44,0,0,1,0-.27V3.21c0-.16.06-.31.08-.45A3.45,3.45,0,0,1,6,2.32a1.24,1.24,0,0,1,.41-.75,1.22,1.22,0,0,1,.91-.31,1.07,1.07,0,0,1,.38.07l.34.2a1.23,1.23,0,0,1,.46.69,4,4,0,0,1,.26,1.13c0,.19,0,.39,0,.59s0,.41,0,.63V5.1a1.41,1.41,0,0,1-.05.43v9.1c0,.5,0,1,0,1.58a3.5,3.5,0,0,1-.46,1.54.69.69,0,0,1-.22.36.41.41,0,0,1-.14.17.3.3,0,0,0-.1.09.66.66,0,0,1-.4.29,1.19,1.19,0,0,1-.23.07,1.27,1.27,0,0,0-.23.08,1.25,1.25,0,0,1-.46.12H2.86l-.6,0a1.91,1.91,0,0,1-.53-.1,2.74,2.74,0,0,1-.51-.15,2.69,2.69,0,0,1-.48-.24,1.69,1.69,0,0,1-.43-.62c0-.13-.09-.25-.14-.37a2.4,2.4,0,0,1-.12-.38,1.79,1.79,0,0,0,0-.34c0-.11,0-.22,0-.33V3.64c0-.13,0-.25,0-.37A2.87,2.87,0,0,1,.1,2.89a2.43,2.43,0,0,1,.12-.43,1.72,1.72,0,0,1,.14-.33c.08-.13.16-.24.23-.34a1.12,1.12,0,0,1,.27-.26.93.93,0,0,1,.72-.22,1.27,1.27,0,0,1,.88.26,1.94,1.94,0,0,1,.44.75A1.58,1.58,0,0,1,3.07,3a1.66,1.66,0,0,0,0,.32c0,.11,0,.21,0,.33ZM2.9,11.15V16H5.81l0-4.92Zm8,8.16a1.29,1.29,0,0,1-.29-.48,3.77,3.77,0,0,1-.14-.58,3.21,3.21,0,0,1-.05-.55V2.53a1.58,1.58,0,0,1,.17-.76A1.58,1.58,0,0,1,11,1.12a1.22,1.22,0,0,1,.65-.41,1.13,1.13,0,0,1,1,.31c.08.11.15.23.22.34a1.75,1.75,0,0,1,.16.41,1.38,1.38,0,0,1,.06.5,4,4,0,0,0,0,.58c0,.17,0,.36,0,.56s0,.4,0,.59V8.41h1.58V2.68a3,3,0,0,1,0-.43,2.5,2.5,0,0,1,.07-.41,2.07,2.07,0,0,1,.31-.77,1.62,1.62,0,0,1,.82-.36,1.39,1.39,0,0,1,.52.11,1.54,1.54,0,0,1,.44.25,1.7,1.7,0,0,1,.39.88c0,.31.08.62.11.94s0,.36,0,.54a5.44,5.44,0,0,1,0,.57v.5a1.81,1.81,0,0,1-.05.43V18a5.21,5.21,0,0,1,0,.69,1.4,1.4,0,0,1-.27.62,1.94,1.94,0,0,1-.56.51,1.35,1.35,0,0,1-.67.18.83.83,0,0,1-.61-.35,2.19,2.19,0,0,1-.44-1.12,9,9,0,0,1-.09-1.21v-5.9H13.13v6.39a4.27,4.27,0,0,1-.05.59,2.36,2.36,0,0,1-.29.86,1.07,1.07,0,0,1-.77.51,1,1,0,0,1-.63,0A1.19,1.19,0,0,1,10.92,19.31Z"/><path d="M19.75,8.92c0-.16-.05-.31-.07-.43a2.75,2.75,0,0,1,0-.41,2.22,2.22,0,0,0,0-.37.57.57,0,0,1,0-.3V7.07l0-3.7V2.68a.5.5,0,0,0,.05-.23.68.68,0,0,1,.05-.23A.47.47,0,0,1,20,1.84a1.42,1.42,0,0,1,.38-.53,1.42,1.42,0,0,1,.3-.13A1.19,1.19,0,0,1,21,1.12L21.6,1q.33,0,.84,0h1.8a3,3,0,0,1,.58.05h1.51a2.7,2.7,0,0,1,.41.06h1.1l.32,0,.35.07.3.09a.67.67,0,0,1,.25.13.88.88,0,0,1,.29.2q.12.14.24.3a1.52,1.52,0,0,1,.24.75l-.09.38a1.1,1.1,0,0,1-.22.39.66.66,0,0,1-.18.19,2.68,2.68,0,0,0-.23.17l-.25.07a1.64,1.64,0,0,0-.28.07.76.76,0,0,1-.27,0,.73.73,0,0,0-.3,0h-.43L23,4V7.55h1a4.65,4.65,0,0,0,.66,0h3.87a3.38,3.38,0,0,1,.7.21.69.69,0,0,1,.55.41A.91.91,0,0,1,30.1,9a.94.94,0,0,1-.41.81,2.67,2.67,0,0,1-1,.41,4.78,4.78,0,0,1-.57.12l-.58.1a5.44,5.44,0,0,0-.6,0,4.52,4.52,0,0,1-.51,0H22.13a2.47,2.47,0,0,1-.79-.12,2.29,2.29,0,0,1-.72-.19,1,1,0,0,1-.56-.48,3.06,3.06,0,0,1-.15-.31A3.54,3.54,0,0,1,19.75,8.92Zm3.39,9.53H34.87a1.56,1.56,0,0,1,.65.14.89.89,0,0,1,.41.58.87.87,0,0,1-.63,1.22,1.26,1.26,0,0,1-.6.14H21.46a1.26,1.26,0,0,1-.84-.36,1.34,1.34,0,0,1-.28-.42,1.14,1.14,0,0,1-.11-.49l-.09-2v-.29a1.59,1.59,0,0,1,0-.36A1.48,1.48,0,0,1,20.5,16a1.72,1.72,0,0,1,.37-.28,1.62,1.62,0,0,1,.51-.15,5.15,5.15,0,0,1,.53-.07,4.71,4.71,0,0,1,.53,0h1.1l.81,0,1.07,0h7.7V14.29h-12a.87.87,0,0,0-.36-.09.45.45,0,0,1-.31-.27,1.18,1.18,0,0,1-.23-.5,2.05,2.05,0,0,1,0-.55l.12-.15a1.17,1.17,0,0,0,.15-.16.48.48,0,0,1,.15-.11.83.83,0,0,0,.16-.09,1,1,0,0,1,.41-.12H23.7c.36,0,.79,0,1.28,0h8.4a6.15,6.15,0,0,1,1.11.08,2.1,2.1,0,0,1,.77.28,1.31,1.31,0,0,1,.67,1.22v2a1.18,1.18,0,0,1,0,.34c0,.09,0,.2-.08.31a1.51,1.51,0,0,1-.55.58,1.48,1.48,0,0,1-.65.16.91.91,0,0,1-.31,0H23.14Zm15.26-13a.45.45,0,0,1,.26.43,1.11,1.11,0,0,1,.08.29c0,.11,0,.22,0,.33a1.28,1.28,0,0,1-.14.63,1.34,1.34,0,0,1-.94.53,4.89,4.89,0,0,1-.59.06H35.62V9.66a1.72,1.72,0,0,1-.36,1.15,1.39,1.39,0,0,1-1.13.44h-.39a.38.38,0,0,0-.18-.08.48.48,0,0,1-.18-.07,2.64,2.64,0,0,1-.38-.31,1,1,0,0,1-.24-.38,1.47,1.47,0,0,1-.08-.4c0-.1,0-.18,0-.23V2.49a.3.3,0,0,1,0-.18,1.47,1.47,0,0,1,0-.33c0-.16.06-.3.09-.42a1.25,1.25,0,0,1,.13-.35A1.16,1.16,0,0,1,33,1a.33.33,0,0,1,.25-.12l.3-.15a.82.82,0,0,1,.3-.07A1.36,1.36,0,0,1,35.21,1a1.6,1.6,0,0,1,.24.36.66.66,0,0,0,0,.21l.09.22a.7.7,0,0,1,0,.25v.33a1.08,1.08,0,0,1,0,.39,1.47,1.47,0,0,0,0,.28V5H36l.32.06H37a1,1,0,0,1,.33,0,1.13,1.13,0,0,1,.39,0A1,1,0,0,1,38.4,5.44Z"/><path d="M51.62,14.92a1.92,1.92,0,0,1,.56.26,2.21,2.21,0,0,1,.37.48,1.07,1.07,0,0,1,.13.53,1.12,1.12,0,0,1-.26.72,1.18,1.18,0,0,1-.53.41l-.24.07-.24,0a.71.71,0,0,1-.27.05H47.8c-.28,0-.58,0-.88.05H45.24a7.6,7.6,0,0,0-.77-.05H41.28l-.46,0-.45-.07-.23-.09-.23-.08A1.49,1.49,0,0,1,39.5,17a1.25,1.25,0,0,1-.22-.37,1.31,1.31,0,0,1-.09-.52,1.24,1.24,0,0,1,.31-.81A.71.71,0,0,1,40,15l.29-.08.26-.09a1.12,1.12,0,0,1,.27-.05H50.5a1.68,1.68,0,0,1,.4.05,2,2,0,0,1,.36,0A2.29,2.29,0,0,1,51.62,14.92ZM41.42,11a3.63,3.63,0,0,1-1.36-1.92,6,6,0,0,1-.33-1.2,9.11,9.11,0,0,1-.08-1.18,5.38,5.38,0,0,1,.11-1.16,6.82,6.82,0,0,1,.3-1.07c.16-.33.33-.65.51-1a4.13,4.13,0,0,1,.66-.78A5.12,5.12,0,0,1,42,2.08a4.18,4.18,0,0,1,1-.48,4,4,0,0,1,1-.35,6.5,6.5,0,0,1,1.19-.11,2.37,2.37,0,0,1,.84,0l.42,0a2.63,2.63,0,0,1,.42.07.46.46,0,0,0,.2.05.62.62,0,0,1,.23,0,.85.85,0,0,1,.23,0,.75.75,0,0,1,.18.08,4.7,4.7,0,0,1,.49.16c.15.06.31.12.47.2s.54.28.82.44a1.91,1.91,0,0,1,.32.21c.12.1.24.2.35.31a4.2,4.2,0,0,1,.69.89,4.06,4.06,0,0,1,.26.51,2.38,2.38,0,0,1,.15.57,5.23,5.23,0,0,1,.12.54c0,.19.07.37.1.54s0,.35.07.53a2.3,2.3,0,0,1,0,.58,2,2,0,0,1,0,.32c0,.12,0,.23,0,.32a2.66,2.66,0,0,0-.07.39,1,1,0,0,1-.1.33,5.08,5.08,0,0,1-.6,1.73,4.2,4.2,0,0,1-.59.72,5.56,5.56,0,0,1-.73.6c-.21.13-.42.24-.62.34a3.08,3.08,0,0,1-.65.21,4.61,4.61,0,0,1-.64.16l-.66.13a.69.69,0,0,1-.24.05h-.42a.68.68,0,0,0-.23,0h-.63a.68.68,0,0,1-.23,0h-.3a1,1,0,0,1-.3-.05l-.35,0a1.66,1.66,0,0,0-.32,0,4.3,4.3,0,0,1-1.25-.38L42,11.43A3,3,0,0,1,41.42,11ZM42.84,6.3a3.09,3.09,0,0,0,0,1,3.44,3.44,0,0,0,.31.94,2.84,2.84,0,0,0,1.42,1.1,3.22,3.22,0,0,0,.68.17,5.34,5.34,0,0,0,.69,0,1.49,1.49,0,0,1,.36,0,1.63,1.63,0,0,0,.36-.05A.71.71,0,0,0,47,9.35l.32-.14a1.89,1.89,0,0,0,.77-.72A2.31,2.31,0,0,0,48.31,8l.15-.5a2.58,2.58,0,0,0,.06-.77,4.81,4.81,0,0,0-.16-.77,1.79,1.79,0,0,0-.13-.32l-.16-.28A.79.79,0,0,1,48,5.19a.38.38,0,0,0-.14-.14.83.83,0,0,0-.29-.31,2.69,2.69,0,0,0-.38-.19l-.21-.12-.23-.1a6,6,0,0,0-1.27-.14,3.83,3.83,0,0,0-.6,0,2.19,2.19,0,0,0-.55.17,4,4,0,0,0-.5.27,1.93,1.93,0,0,0-.44.42,2.35,2.35,0,0,0-.3.54C43,5.84,42.9,6.06,42.84,6.3ZM56.9,5.41a8,8,0,0,1,.05,1v6a7.21,7.21,0,0,1-.05.94v2.74a3.76,3.76,0,0,0,0,.75c0,.25,0,.49,0,.71V18a1.7,1.7,0,0,1,0,.4,1.09,1.09,0,0,1-.17.63,1.23,1.23,0,0,1-.1.2,2.2,2.2,0,0,0-.09.21,1.4,1.4,0,0,0-.2.16.74.74,0,0,1-.28.17,1.3,1.3,0,0,1-.51.22,2,2,0,0,1-.6,0,1.21,1.21,0,0,1-.6-.31,1.08,1.08,0,0,1-.36-.51,2.45,2.45,0,0,1-.12-.31,1.06,1.06,0,0,1,0-.31,2.17,2.17,0,0,1-.07-.24c0-.08,0-.15,0-.19v-.27l0-14.23c0-.21,0-.42,0-.62a5,5,0,0,1,.09-.7,1.85,1.85,0,0,1,.43-1.06A2.48,2.48,0,0,1,54.7.9,1.25,1.25,0,0,1,55,.85h.35a1.65,1.65,0,0,1,.38.05,1.32,1.32,0,0,1,.39.17,1.4,1.4,0,0,1,.45.6,2.81,2.81,0,0,1,.19.53,1.89,1.89,0,0,1,.08.53v.56a3.28,3.28,0,0,0,0,.56Z"/><path d="M61.9,11l-.4,0a2.57,2.57,0,0,1-.4-.07,1,1,0,0,1-.37-.07l-.32-.12a1.44,1.44,0,0,1-.53-.41,1.5,1.5,0,0,1-.19-.38,3.45,3.45,0,0,1-.12-.46c0-.18-.06-.34-.07-.49a3.59,3.59,0,0,1,0-.47,2,2,0,0,1,0-.4V6.25a2.38,2.38,0,0,1,0-.36c0-.12,0-.26,0-.4V2.62a.68.68,0,0,1,.05-.23,1.64,1.64,0,0,1,0-.23.75.75,0,0,0,0-.2c0-.08.06-.16.08-.23a1.21,1.21,0,0,1,.09-.2,1.52,1.52,0,0,1,.45-.46A.65.65,0,0,1,60.46.9l.33-.09.15,0,.21,0h.48l.27,0h5.56a9.63,9.63,0,0,1,1.11.08,2.15,2.15,0,0,1,1.05.36,1.25,1.25,0,0,1,.53.57c0,.13.09.25.12.35s.06.24.1.4,0,.25,0,.38a2.1,2.1,0,0,1,0,.36V4c0,.13,0,.25,0,.37a1,1,0,0,1,0,.38v.31c0,.14,0,.29,0,.45s0,.31,0,.45v2.1a.57.57,0,0,1,0,.29,2.85,2.85,0,0,0,0,.31,1.13,1.13,0,0,1,0,.3,1.66,1.66,0,0,0,0,.32,1.4,1.4,0,0,1-.15.6,1.47,1.47,0,0,1-.31.55.62.62,0,0,1-.46.29,1.87,1.87,0,0,1-.64.22,5.19,5.19,0,0,1-.68,0H66.7a1.49,1.49,0,0,0-.26,0,3.56,3.56,0,0,1-.51,0,3.33,3.33,0,0,1-.49,0,3.88,3.88,0,0,0-.54,0Zm14.59,6.55.14.23a.36.36,0,0,1,.07.22,1.63,1.63,0,0,1-.31,1.42.88.88,0,0,1-.3.28,1.59,1.59,0,0,1-.35.13l-.24.07-.12,0H63.55A3,3,0,0,1,62,19.62a.89.89,0,0,1-.55-.86V15.37a.44.44,0,0,0,0-.15,1.25,1.25,0,0,1,0-.21v-1a1.12,1.12,0,0,1,0-.2.5.5,0,0,0,0-.16.9.9,0,0,1,.43-.79,1.52,1.52,0,0,1,1-.36h.12a.59.59,0,0,1,.19.05h.16a.3.3,0,0,1,.15.05,1.16,1.16,0,0,1,.53.31,1.87,1.87,0,0,0,.12.25,3,3,0,0,0,.17.28,1.76,1.76,0,0,1,.07.27,1.94,1.94,0,0,1,0,.35,1.39,1.39,0,0,0,0,.3,2.66,2.66,0,0,1,0,.3V17h.16a.92.92,0,0,1,.25,0l.46,0a7.56,7.56,0,0,0,.76,0q.39,0,.75,0l.67,0h8.06l.29.09.24.12.17.11A.64.64,0,0,1,76.49,17.56ZM62.38,6.71a.94.94,0,0,0,0,.26.78.78,0,0,1,0,.22v.19a.41.41,0,0,0,0,.19,1,1,0,0,0,.17.36,1.13,1.13,0,0,0,.65.29h3a.63.63,0,0,1,.21,0h.21a.31.31,0,0,0,.17,0,.26.26,0,0,0,.26-.14.62.62,0,0,0,.15-.22.92.92,0,0,1,0-.19.43.43,0,0,0,0-.17,4.55,4.55,0,0,0,.12-1V4.93a1.1,1.1,0,0,1,0-.43.13.13,0,0,0,0-.14,1.37,1.37,0,0,1,0-.19c-.13-.21-.25-.32-.36-.32a.46.46,0,0,0-.19,0H66.6l-2.76-.05h-.41a.59.59,0,0,0-.33.05.7.7,0,0,0-.58.31.51.51,0,0,0-.1.36V5.77a.62.62,0,0,1,0,.18.69.69,0,0,0,0,.18Zm11.28,4.87a1.32,1.32,0,0,1-.17-.39c0-.14-.07-.29-.1-.45a4.34,4.34,0,0,1-.06-.89c0-.3,0-.6,0-.91v-2a3.66,3.66,0,0,0,0-.64V2.89a.94.94,0,0,1,0-.3v-.3a.78.78,0,0,0,0-.27,1.19,1.19,0,0,1,0-.28A1.55,1.55,0,0,1,73.9,1a.83.83,0,0,1,.5-.33,1,1,0,0,1,.38-.11,1.39,1.39,0,0,1,.44,0,1.47,1.47,0,0,1,.58.19.84.84,0,0,1,.38.41A1.32,1.32,0,0,1,76.3,2v8.76c0,.11-.06.22-.09.31a1.73,1.73,0,0,1-.08.27l-.09.23a.57.57,0,0,1-.13.22.75.75,0,0,1-.41.34.64.64,0,0,1-.3.17,1.4,1.4,0,0,1-.34.05,1.37,1.37,0,0,1-.8-.27A1.32,1.32,0,0,1,73.66,11.58Z"/><path d="M95.69,10.65a.73.73,0,0,1,.36.74,1,1,0,0,1,0,.24,2.38,2.38,0,0,1-.07.29.72.72,0,0,1-.21.33,1.44,1.44,0,0,1-.49.32l-.32.07-.3,0a1.12,1.12,0,0,1-.27.05h-.42l-13,0H79.78a3.06,3.06,0,0,1-.54-.13,1.67,1.67,0,0,1-.47-.28,1.16,1.16,0,0,1-.58-.86,1.35,1.35,0,0,1,.27-.72.88.88,0,0,1,.62-.44,2.07,2.07,0,0,1,.5-.16,2.1,2.1,0,0,1,.51-.05,4.05,4.05,0,0,0,1.1,0H85V8.7a.92.92,0,0,1,.58-1,2.09,2.09,0,0,1,.67-.21,2.17,2.17,0,0,1,.72,0,3.53,3.53,0,0,1,.57.12,3.81,3.81,0,0,1,.44.14,1.25,1.25,0,0,1,.25.3.77.77,0,0,1,.1.4,1.27,1.27,0,0,1,0,.39v.4a1.42,1.42,0,0,1,0,.42v.42h5.74a2.32,2.32,0,0,0,.38.06,1.3,1.3,0,0,1,.43.11A1.21,1.21,0,0,1,95.69,10.65Zm-1,6.14a1.76,1.76,0,0,0,0,.19,1.23,1.23,0,0,1,0,.29v1.51a1.34,1.34,0,0,1,0,.51,1.09,1.09,0,0,1-.36.86,1.29,1.29,0,0,1-.91.31h-.28a.53.53,0,0,1-.25-.05,1.57,1.57,0,0,1-.29-.15l-.24-.16-.15-.23-.12-.22a2.17,2.17,0,0,1-.07-.24,1.8,1.8,0,0,0-.07-.27v-.93a.69.69,0,0,1,0-.24V17.2a.6.6,0,0,1,0-.22v-.14l-.16,0-.25,0H80.21l-.12-.05-.16,0-.2-.07a.76.76,0,0,1-.19-.12l-.17-.14a.67.67,0,0,1-.2-.48,1.91,1.91,0,0,1,.29-1.47l.33-.24a.67.67,0,0,1,.34-.09l.23-.07.11,0H92.66a4,4,0,0,1,1.56.27,1,1,0,0,1,.51.88Zm-15-8a.78.78,0,0,1-.51-.7.42.42,0,0,1,0-.25c0-.09,0-.19,0-.32A1.07,1.07,0,0,1,79.51,7a4.84,4.84,0,0,1,.62-.48l1.66-.79.38-.21a2.84,2.84,0,0,0,.34-.15,2.26,2.26,0,0,1,.35-.17L83.28,5l.43-.24.5-.27.54-.22a3.89,3.89,0,0,1,.5-.18v-.8H81.72a2.3,2.3,0,0,1-.36,0l-.27,0a1.48,1.48,0,0,0-.31,0h-.3a1.5,1.5,0,0,1-.3-.08,1.19,1.19,0,0,1-.4-.46,1,1,0,0,1-.12-.28c0-.1-.07-.2-.1-.3a1.44,1.44,0,0,1,.12-.55,1.56,1.56,0,0,1,.67-.62l.43-.12a2.31,2.31,0,0,1,.46-.05h.55a1.55,1.55,0,0,0,.34.05h.24l.21,0,.34,0h9.84a2.14,2.14,0,0,1,.45.05,1.39,1.39,0,0,1,.87.33,1.06,1.06,0,0,1,.5.77.74.74,0,0,1-.21.87,2.87,2.87,0,0,1-.91.45l-.56.1a3.83,3.83,0,0,1-.6.05h-1a3.47,3.47,0,0,1-.42,0,3.29,3.29,0,0,0-.42,0h-.79a3.42,3.42,0,0,0-.46,0,3.14,3.14,0,0,1-.45,0v.76a.48.48,0,0,0,.16.08.51.51,0,0,1,.15.07.4.4,0,0,0,.16.08.45.45,0,0,0,.18,0l.14.07a.35.35,0,0,1,.12.07.89.89,0,0,1,.31.15l.23.12a1.13,1.13,0,0,1,.21.12l.24.1A1.49,1.49,0,0,0,91,5.1l.47.23.45.23.44.26.47.24.44.24a3,3,0,0,1,.42.27l.45.32a4.73,4.73,0,0,0,.39.28,1,1,0,0,1,.27.43,1.28,1.28,0,0,1,0,.55c0,.08-.07.16-.1.23a.79.79,0,0,1-.17.23,1,1,0,0,1-.43.24,3.73,3.73,0,0,1-1.63,0,11.09,11.09,0,0,1-1.51-.51,5.91,5.91,0,0,1-.66-.29l-.57-.26-.58-.3-.52-.32-.24-.11L88.13,7a1.46,1.46,0,0,0-.28-.14l-.25-.12a2.12,2.12,0,0,0-.36-.21l-.38-.15a2.83,2.83,0,0,0-.36.16l-.39.2a2.83,2.83,0,0,0-.35.14L85.42,7l-.29.09-.24.12-.6.32-.55.26L83.17,8l-.61.26-.49.23a4.12,4.12,0,0,0-.47.23,3.86,3.86,0,0,1-.54.19,1.24,1.24,0,0,1-.54,0,1.31,1.31,0,0,1-.43-.08A3.93,3.93,0,0,1,79.68,8.75Z"/><path d="M105.12,15.73a4.28,4.28,0,0,1-1-.15,1.39,1.39,0,0,1-.81-.61,1.5,1.5,0,0,1-.25-.88,1.11,1.11,0,0,1,.35-.8,1.17,1.17,0,0,1,.48-.29,4.12,4.12,0,0,1,.55-.15,2.79,2.79,0,0,1,.47,0h13.3a5.74,5.74,0,0,1,.83,0,2.72,2.72,0,0,1,.83.15,1.52,1.52,0,0,1,.65.43,1.2,1.2,0,0,1,.26.83,1,1,0,0,1-.41.9,2.46,2.46,0,0,1-1,.43,5.5,5.5,0,0,1-1.16.15h-1.92c-.32,0-.63,0-.94,0H113.5c0,.45,0,.92,0,1.42a6.12,6.12,0,0,1-.07,1.32,3,3,0,0,1-.23.87,1.54,1.54,0,0,1-.58.69,1.7,1.7,0,0,1-1.71,0,1.21,1.21,0,0,1-.47-.55,2.8,2.8,0,0,1-.2-.69,2.69,2.69,0,0,1,0-.58c0-.21,0-.4,0-.58s0-.6,0-.94v-1h-1.81l-1,0h-2.26Zm12.36-7.56a6.67,6.67,0,0,1,.89.57,7.67,7.67,0,0,1,.81.68,1,1,0,0,1,.27.48,1.26,1.26,0,0,1,0,.58,1.2,1.2,0,0,1-.24.51.77.77,0,0,1-.47.3,3.18,3.18,0,0,1-1.59,0,8.09,8.09,0,0,1-1.53-.55l-1.2-.64c-.37-.2-.73-.41-1.1-.63a4.64,4.64,0,0,0-.45-.28l-.54-.32-.67-.39-.79.41-.66.32c-.22.11-.39.2-.52.28-.41.24-.8.45-1.15.62l-1.15.6c-.32.16-.65.34-1,.52a1.84,1.84,0,0,1-1.05.23,2.23,2.23,0,0,1-.84-.27,1,1,0,0,1-.5-.74,1.34,1.34,0,0,1,0-.62,1.54,1.54,0,0,1,.32-.68,2.78,2.78,0,0,1,.57-.48l1.65-.93.72-.4c.21-.1.46-.23.74-.39l1-.54a9.5,9.5,0,0,1,1-.5V4h-3.2a3.63,3.63,0,0,1-.64,0,2.57,2.57,0,0,0-.57-.05,1.17,1.17,0,0,1-.58-.15,1,1,0,0,1-.43-.5A1.56,1.56,0,0,1,104.57,2a1.27,1.27,0,0,1,.62-.65,2.05,2.05,0,0,1,.89-.22h.55c.26,0,.45,0,.57,0l.56,0h8.3c.26,0,.56,0,.89,0a3.86,3.86,0,0,1,1,.07,2.35,2.35,0,0,1,.84.36,1.31,1.31,0,0,1,.49.84,1,1,0,0,1-.2,1,2.11,2.11,0,0,1-.89.51A4.24,4.24,0,0,1,117,4c-.4,0-.73,0-1,0s-.53,0-.8,0l-.81,0c-.29,0-.57,0-.86,0V5.94l.62.34.28.15.27.18.47.24.47.27.9.53Z"/><path d="M127.2.73a5.74,5.74,0,0,1,.6,0c.19,0,.38,0,.58.07a2.91,2.91,0,0,1,1.6.84,5.14,5.14,0,0,1,.94,1.43,8.59,8.59,0,0,1,.56,1.69,12.17,12.17,0,0,1,.28,1.81c.05.62.09,1.21.12,1.79,0,.74,0,1.47,0,2.21s-.06,1.46-.14,2.18a22.69,22.69,0,0,1-.35,2.27,5.7,5.7,0,0,1-.82,2.05,4.58,4.58,0,0,1-1.22,1.26,4,4,0,0,1-1.52.66,4.77,4.77,0,0,1-1.51.05,3.84,3.84,0,0,1-1.47-.5,3.43,3.43,0,0,1-1-1,8.51,8.51,0,0,1-.73-1.35,7.3,7.3,0,0,1-.55-2.37c-.07-.68-.11-1.35-.14-2s0-1.34,0-2a26.73,26.73,0,0,1,.14-2.68c0-.37.07-.74.1-1.1s.08-.71.14-1.06.12-.56.17-.82a3.65,3.65,0,0,1,.26-.79,8,8,0,0,1,.42-.77,3.81,3.81,0,0,1,.54-.65A4.17,4.17,0,0,1,126.6.78l.3,0Zm-.07,15.1a1.57,1.57,0,0,0,.88-.29,1.49,1.49,0,0,0,.58-.77,8.81,8.81,0,0,0,.29-1,14.56,14.56,0,0,0,.21-2.35c0-.84,0-1.64,0-2.4,0-.31,0-.63,0-1S129,7.31,129,7a7.56,7.56,0,0,0-.18-1,3.27,3.27,0,0,0-.33-.83,1.83,1.83,0,0,0-.58-.62,1.08,1.08,0,0,0-.72-.17,1.69,1.69,0,0,0-.76.29,1.66,1.66,0,0,0-.56.72l-.21.5a6,6,0,0,0-.22,1c-.05.33-.09.65-.12,1s-.06.65-.07,1,0,.66,0,1a5.89,5.89,0,0,1,0,.94,5.8,5.8,0,0,0,0,.93c0,.42.08.87.13,1.35a7.85,7.85,0,0,0,.29,1.35,3.06,3.06,0,0,0,.57,1.06A1.2,1.2,0,0,0,127.13,15.83ZM139.2,8.1a.91.91,0,0,1,.23,0l.23,0,.26,0,.29,0a2,2,0,0,1,.53.18.82.82,0,0,1,.38.4,1.13,1.13,0,0,1,.17.62,3.49,3.49,0,0,1,0,.35,1.22,1.22,0,0,1-.06.35c0,.13-.06.26-.1.41a.6.6,0,0,1-.23.33,1.74,1.74,0,0,1-.65.31,5.48,5.48,0,0,1-.94,0,7.16,7.16,0,0,0-.93,0l-.05,0h0l0,0v3.12c0,.83,0,1.64,0,2.44v.34c0,.21,0,.44,0,.68s0,.5-.06.74a3.08,3.08,0,0,1-.17.68,1.45,1.45,0,0,1-.33.54,1,1,0,0,1-.77.34l0,0a1.43,1.43,0,0,1-.92-.33,2,2,0,0,1-.53-.77,3.47,3.47,0,0,1-.23-.95c0-.33-.05-.62-.05-.88V2.69a3,3,0,0,1,.05-.48,2.82,2.82,0,0,1,.16-.58,1.27,1.27,0,0,1,.3-.49,1.07,1.07,0,0,1,.49-.25,2.14,2.14,0,0,1,.59-.08,1.21,1.21,0,0,1,.89.36,1.31,1.31,0,0,1,.39.7c0,.25.08.51.11.78a2,2,0,0,1,0,.29q0,.4.06.84c0,.29,0,.58,0,.87s0,.34,0,.51,0,.34,0,.52a1.24,1.24,0,0,0,0,.27,2.35,2.35,0,0,1,0,.26V7.79a.71.71,0,0,0,.05.26s.08,0,.24,0h.26a.83.83,0,0,0,.34,0Z"/><path d="M149.73,3a6.57,6.57,0,0,1,1.37.12,1.33,1.33,0,0,1,.89.77,1.57,1.57,0,0,1,.19.66,1.19,1.19,0,0,1-.09.61,1.21,1.21,0,0,1-1,.75l-1,.07c-.32,0-.81,0-1.45,0,0,.51,0,.88,0,1.11s0,.39,0,.47v2.76c0,.13,0,.29,0,.49s0,.35,0,.45a1.67,1.67,0,0,1,.3.54,2,2,0,0,0,.32.56l.4.56c.14.2.28.42.44.64l.26.4.22.37.74,1.31A5.17,5.17,0,0,1,152,17a2.58,2.58,0,0,1,0,.68,1.09,1.09,0,0,1-.29.62.92.92,0,0,1-.75.33,1.42,1.42,0,0,1-.84-.29,4.42,4.42,0,0,1-.67-.57c-.24-.31-.46-.62-.67-.94s-.42-.64-.65-1-.28-.47-.47-.74a4.64,4.64,0,0,0-.56-.7c-.16.24-.32.49-.49.73a7.68,7.68,0,0,0-.47.78c-.18.32-.36.63-.55.93a8.48,8.48,0,0,1-.63.85,2.19,2.19,0,0,1-1.56,1,.8.8,0,0,1-.36-.07.89.89,0,0,1-.62-.63,1.93,1.93,0,0,1-.08-.81,2.24,2.24,0,0,1,.18-.79,7.67,7.67,0,0,1,.36-.7l.38-.67.25-.4c.09-.13.17-.27.25-.39s.27-.49.46-.8l.56-.88.52-.8c.16-.24.28-.4.36-.5V6h-2a2.1,2.1,0,0,1-.54,0,1.2,1.2,0,0,1-.59-.33,1.5,1.5,0,0,1-.37-.66,1.44,1.44,0,0,1,.12-1.22,2,2,0,0,1,.43-.44,1.17,1.17,0,0,1,.51-.23.75.75,0,0,1,.23,0h2.34c0-.14,0-.32,0-.54l.06-.64c0-.22.05-.43.08-.63A1.78,1.78,0,0,1,146,.71a1.31,1.31,0,0,1,.33-.38,1.56,1.56,0,0,1,.47-.26,1.5,1.5,0,0,1,.51-.07,1.06,1.06,0,0,1,.46.13,1.55,1.55,0,0,1,.66,1,7.8,7.8,0,0,1,.18,1.9Zm1.66,8.26a1.72,1.72,0,0,1-.44-.06,1.46,1.46,0,0,1-.44-.2,1.29,1.29,0,0,1-.34-.39A1.21,1.21,0,0,1,150,10a2.93,2.93,0,0,1,.06-.92,1.1,1.1,0,0,1,.66-.76,1.19,1.19,0,0,1,.54-.14,2.61,2.61,0,0,1,.56,0H153V2.55a2.74,2.74,0,0,1,.08-.64c0-.08.06-.15.08-.22l.08-.21a1.76,1.76,0,0,1,.29-.37,1.13,1.13,0,0,1,.41-.23,1,1,0,0,1,.25-.06h.25a1.3,1.3,0,0,1,1.2.72.93.93,0,0,1,.14.4l.06.54c0,.19,0,.35,0,.48V17.17a8.28,8.28,0,0,1,0,1,4.4,4.4,0,0,1-.22.92,1.32,1.32,0,0,1-.41.6,1.25,1.25,0,0,1-.82.24l-.36,0a.71.71,0,0,1-.33-.13,1,1,0,0,1-.38-.47,4.87,4.87,0,0,1-.2-.68,3.5,3.5,0,0,1-.08-.7c0-.22,0-.4,0-.53v-6ZM160,3.76c0,1.21,0,2.43,0,3.65s0,2.39,0,3.52v6q0,.63,0,1.2a3,3,0,0,1-.28,1.08,1.3,1.3,0,0,1-.46.53,1.51,1.51,0,0,1-.46.21,1.4,1.4,0,0,1-.52,0,1.11,1.11,0,0,1-.58-.3,1.46,1.46,0,0,1-.32-.52,2.07,2.07,0,0,1-.13-.62c0-.22,0-.44,0-.65v-15a4.94,4.94,0,0,1,.05-.68,5.47,5.47,0,0,1,.13-.61,1,1,0,0,1,.26-.45,1.17,1.17,0,0,1,.5-.3,2.4,2.4,0,0,1,.58-.06.85.85,0,0,1,.63.22,1.7,1.7,0,0,1,.37.62,2.81,2.81,0,0,1,.23,1.1C159.93,3,160,3.41,160,3.76Z"/></g></g></svg>