<svg xmlns="http://www.w3.org/2000/svg" viewBox="0 0 179.13 84.48"><defs><style>.cls-1{fill:none;stroke:#262626;stroke-miterlimit:10;}</style></defs><g id="Layer_2" data-name="Layer 2"><g id="Layer_1-2" data-name="Layer 1"><path class="cls-1" d="M9.36,7.88c10.47,28.9,41.58,60,71.08,68.07a104,104,0,0,0,42.29,2.43c13.67-2,27.34-6.82,38.45-15.19a62,62,0,0,0,17.51-20"/><path class="cls-1" d="M16.93,22.61a52.27,52.27,0,0,1,0-6.74c.15-2.71.24-5.7,1.56-8.18,1.57-3,5-4.15,7.87-5.5,1.14-.53,2.28-1,3.45-1.5,0,0,1.09,7-.71,11.32A20.58,20.58,0,0,1,21.21,21,25,25,0,0,1,16.93,22.61Z"/><path class="cls-1" d="M25.86,37a53.63,53.63,0,0,0-4.36-3.62c-2.59-1.93-5-3.88-8.34-4.25-3.11-.34-5.59.79-8.31,2.09C3.47,31.91,2.1,32.6.79,33.37c0,0,4.76,5.24,9.24,6.53a20.42,20.42,0,0,0,11.86-.56A25.57,25.57,0,0,0,25.86,37Z"/><path class="cls-1" d="M38.44,49.26a50.53,50.53,0,0,1,0-6.74c.15-2.71.23-5.69,1.55-8.17,1.58-3,5-4.16,7.88-5.5,1.13-.54,2.27-1.05,3.44-1.51,0,0,1.1,7-.71,11.32a20.4,20.4,0,0,1-7.85,8.94A25,25,0,0,1,38.44,49.26Z"/><path class="cls-1" d="M45.52,57.29A53.51,53.51,0,0,0,41,53.89c-2.67-1.8-5.18-3.63-8.53-3.84-3.12-.2-5.54,1.05-8.2,2.48-1.35.73-2.68,1.48-4,2.31,0,0,5,5,9.54,6.08A20.43,20.43,0,0,0,41.66,59.8,25.25,25.25,0,0,0,45.52,57.29Z"/><path class="cls-1" d="M70.23,71.69a52.82,52.82,0,0,1-1.47-6.57c-.43-2.69-1-5.62-.22-8.33.91-3.23,4-5.13,6.53-7.06,1-.76,2-1.51,3-2.2,0,0,2.56,6.61,1.72,11.21a20.55,20.55,0,0,1-5.77,10.41A25.41,25.41,0,0,1,70.23,71.69Z"/><path class="cls-1" d="M76.53,74.93a51,51,0,0,0-5.43-1.57C68,72.62,65,71.8,61.77,72.8c-3,.92-4.82,3-6.8,5.24-1,1.15-2,2.34-2.88,3.57,0,0,6.45,2.9,11.07,2.28a20.37,20.37,0,0,0,10.65-5.25A25.36,25.36,0,0,0,76.53,74.93Z"/></g></g></svg>