<svg xmlns="http://www.w3.org/2000/svg" viewBox="0 0 66.05 23.06"><g id="Layer_2" data-name="Layer 2"><g id="Layer_1-2" data-name="Layer 1"><path d="M1.92,3.72H.24V1.51H11.47V3.72H9.82V14.21a2.53,2.53,0,0,1-.1.79l1.16-.18a10.83,10.83,0,0,0,1.22-.28V16.8a8.86,8.86,0,0,1-1.59.36c-.57.08-1.17.14-1.77.18s-1.21.06-1.82.06H0V15.19H2.09A1.25,1.25,0,0,1,2,14.71a3.87,3.87,0,0,1,0-.48ZM7,15.19A.21.21,0,0,0,7.2,15V3.72H4.51V15a.21.21,0,0,0,.24.24Zm6.17,7.32V9.89H10.58V7.61h2.55V.22h2.69V22a.45.45,0,0,1-.21.4.83.83,0,0,1-.27.08Zm4.61.55V.22H20.4V22.58c0,.21-.08.34-.2.4a.67.67,0,0,1-.28.08Z"/><path d="M29.62,18.22a5.38,5.38,0,0,1-2.83-.71,5.77,5.77,0,0,1-1.95-1.92,8.89,8.89,0,0,1-1.13-2.8,15,15,0,0,1-.36-3.33,13.3,13.3,0,0,1,.36-3.05,9.43,9.43,0,0,1,1.12-2.79,6.25,6.25,0,0,1,1.94-2A5.07,5.07,0,0,1,29.62.82a5.08,5.08,0,0,1,2.86.78,6.28,6.28,0,0,1,2,2,9.69,9.69,0,0,1,1.11,2.79,12.77,12.77,0,0,1,.36,3.05,14.41,14.41,0,0,1-.36,3.33,8.88,8.88,0,0,1-1.12,2.8,5.89,5.89,0,0,1-2,1.92A5.47,5.47,0,0,1,29.62,18.22Zm0-15A2.26,2.26,0,0,0,28,3.84,4.8,4.8,0,0,0,26.92,5.4a8.65,8.65,0,0,0-.62,2,12.35,12.35,0,0,0-.19,2,13.63,13.63,0,0,0,.21,2.45,7.33,7.33,0,0,0,.63,2A4,4,0,0,0,28,15.3a2.63,2.63,0,0,0,3.14,0,4,4,0,0,0,1.1-1.39,7.68,7.68,0,0,0,.65-2,13.63,13.63,0,0,0,.21-2.45,11.32,11.32,0,0,0-.19-2,8.2,8.2,0,0,0-.62-2,5,5,0,0,0-1.11-1.56A2.23,2.23,0,0,0,29.62,3.22Zm9.26,19.84V.19h2.74V22.58a.46.46,0,0,1-.15.34.43.43,0,0,1-.33.14Z"/><path d="M63.12,22.58a.49.49,0,0,1-.14.34.45.45,0,0,1-.34.14H60.41V18.22a.21.21,0,0,0-.24-.24H47.33V15.72h6.33V13.1H44.42V10.85H66.05v1.77a.46.46,0,0,1-.15.34.42.42,0,0,1-.33.14H56.4v2.62h5.26a1.46,1.46,0,0,1,1,.41,1.34,1.34,0,0,1,.43,1Zm0-14.9a1.34,1.34,0,0,1-.44,1,1.44,1.44,0,0,1-1,.41H49a1.42,1.42,0,0,1-1.47-1.44V0h2.64V2.62h10.2V0H63.1ZM60.38,4.8H50.18V6.74a.21.21,0,0,0,.24.24h9.72a.21.21,0,0,0,.24-.24Z"/></g></g></svg>