<svg xmlns="http://www.w3.org/2000/svg" viewBox="0 0 101.13 78.87"><defs><style>.cls-1{fill:none;stroke:#262626;stroke-miterlimit:10;}</style></defs><g id="Layer_2" data-name="Layer 2"><g id="Layer_1-2" data-name="Layer 1"><path class="cls-1" d="M59.73,13.38a140.55,140.55,0,0,0-16.68,2.19c-8,1.61-15.86,4.69-21.9,10-8,7-10.74,17.19-13.93,26.84C5.62,57.23,4.47,69.7.32,73.13.4,73.07,16,76.83,17.53,77c16.2,2.19,28.64,2.49,43-5.45,13.3-7.34,28.67-21.36,30.69-37,2.5-19.39-2-22.68-2-22.68C79.63,12.52,69.59,12.62,59.73,13.38Z"/><path class="cls-1" d="M89.31,11.91S97.05-.2,99.26.53c1.64.55,1.55,2.45,1,3.72-.65,1.64-2,2.25-3.46,3.12l-5,3C91.21,10.77,89.69,11.32,89.31,11.91Z"/><path class="cls-1" d="M90,11.83A434.93,434.93,0,0,1,1,73.05"/></g></g></svg>