<svg xmlns="http://www.w3.org/2000/svg" viewBox="0 0 111.91 23.34"><g id="Layer_2" data-name="Layer 2"><g id="Layer_1-2" data-name="Layer 1"><path d="M2.39,12.68A.8.8,0,0,1,2,12.53a2.36,2.36,0,0,1-.42-.33,1.14,1.14,0,0,1-.26-.32A12.81,12.81,0,0,1,.05,6.94c0-.36,0-.71,0-1.06a9.87,9.87,0,0,1,.8-4.1c.15-.31.35-.47.58-.47a1.23,1.23,0,0,1,.78.45,3.21,3.21,0,0,1,.77,1.57,1.23,1.23,0,0,0,.26-.12,7.59,7.59,0,0,1,3.44-.7l.66,0a1,1,0,0,1,.8.42,7,7,0,0,1,.56,3.5A10.75,10.75,0,0,1,8.3,9.21c.79.11,1.19.43,1.19,1a.32.32,0,0,1-.23.35,6,6,0,0,0-1.5.57,16.6,16.6,0,0,1-1.57.63,9.44,9.44,0,0,1-2.11.73,1.72,1.72,0,0,1-1.34-.9v.64C2.71,12.52,2.59,12.68,2.39,12.68Zm.33-1.88A9.88,9.88,0,0,1,5.46,9.49c.11-.31.24-.61.38-.91a8.65,8.65,0,0,0,.63-1.9q.17-.88.33-2.16a9.12,9.12,0,0,1-1.62.21,6.68,6.68,0,0,1-2.32-.44,35.1,35.1,0,0,0-.33,3.94A24.57,24.57,0,0,0,2.72,10.8Zm7.57,12.54a1.28,1.28,0,0,1-1-.56.9.9,0,0,1-.17-.47.46.46,0,0,1,.05-.21l0-.19a.53.53,0,0,1,.09-.3,13.13,13.13,0,0,1,4-3.73l1.07-.82-.58.05-.31,0-.84,0-.73,0-.47,0-.14,0-.42,0a4.22,4.22,0,0,1-.49,0c-.39,0-.59-.15-.59-.45a.48.48,0,0,1,.07-.23l0-.14A.44.44,0,0,1,10,16l3.29-2.84a7.9,7.9,0,0,0-1.83.56,4.27,4.27,0,0,1-2,.54,2,2,0,0,1-1.22-.44,1,1,0,0,1-.49-.75q0-.26.33-.42a13.74,13.74,0,0,1,6.21-1.57q2.29,0,2.76.75a1.55,1.55,0,0,1,.26.86c0,.21-.14.31-.42.31l-.1,0a3.65,3.65,0,0,1-1.33.94,13.91,13.91,0,0,0-2.93,2c.19,0,.37-.06.54-.07l.44,0a1.9,1.9,0,0,1,.31,0c1.79,0,3,.38,3.49,1.05a1.08,1.08,0,0,1,.3.68.43.43,0,0,1-.16.35,4.49,4.49,0,0,1-1.62.85,9.49,9.49,0,0,0-4.1,2.67c.47-.06,1.95-.17,4.43-.33.27,0,.6,0,1,0,.83,0,1.24.34,1.24.89s-.62.65-1.85.7q-4.53.45-5.88.66A2,2,0,0,1,10.29,23.34ZM14.79,10c-.88,0-1.31-.35-1.31-1a1.7,1.7,0,0,1,.09-.54A10,10,0,0,0,13.85,6a13.38,13.38,0,0,0-.47-3.68c-.2-1-.3-1.54-.3-1.67s.17-.28.51-.28a3.49,3.49,0,0,1,1.13.21c1.2.42,1.8,2,1.8,4.78a13.1,13.1,0,0,1-.28,3,2.88,2.88,0,0,1-1,1.54A.68.68,0,0,1,14.79,10Z"/><path d="M21.8,14.41a.71.71,0,0,1-.26,0,1.87,1.87,0,0,1-1.15-.94,12.17,12.17,0,0,1-1.57-5.91,12.57,12.57,0,0,1,.45-3.28A1.73,1.73,0,0,1,21,2.93a5.88,5.88,0,0,1,3.59,1.66A.51.51,0,0,1,25,4.36q.45,0,1,.66a1.22,1.22,0,0,1,.31.77,12.93,12.93,0,0,1-4,8.46A.7.7,0,0,1,21.8,14.41ZM21.45,12A15.42,15.42,0,0,0,24.4,6.66,2.45,2.45,0,0,1,23.84,6c-.41-.66-.86-1-1.36-1-.66,0-1.09.45-1.29,1.34A12.16,12.16,0,0,0,21,8.74,18,18,0,0,0,21.45,12ZM30.3,22.24a2.49,2.49,0,0,1-1.61-.75,4.36,4.36,0,0,1-1.29-3.21,3.34,3.34,0,0,1,1.29-2.83,1.85,1.85,0,0,1,1.15-.38,1.48,1.48,0,0,1,.89.16c.06-.37.25-.56.58-.56A1.08,1.08,0,0,1,32,15a4.07,4.07,0,0,1,1.64,3.09A4.42,4.42,0,0,1,33,20.32a4.63,4.63,0,0,1-1.9,1.73A1.61,1.61,0,0,1,30.3,22.24Zm-.51-1.71c.28,0,.6-.26,1-.8a4.91,4.91,0,0,0,1.05-2.36,1.94,1.94,0,0,0-.6-1.13l-.05,0a.37.37,0,0,1-.14.07,2.75,2.75,0,0,0-1.69,1.57A2.71,2.71,0,0,0,29.09,19a3,3,0,0,0,.23,1.15C29.46,20.4,29.62,20.53,29.79,20.53Zm1.43-6.73a1.27,1.27,0,0,1-.77-.25.83.83,0,0,1-.36-.71q.12-1.54.33-3.09a34.32,34.32,0,0,0,.35-3.87,17,17,0,0,0-.28-3.09,5.6,5.6,0,0,0-.21-.89A3.18,3.18,0,0,1,30.07,1c0-.62.28-.94.84-.94a1.26,1.26,0,0,1,.33.05q2.37.54,2.37,4.55l0,.51A5.08,5.08,0,0,1,36.8,3.84,2.93,2.93,0,0,1,39.07,4.9a.73.73,0,0,1,.07.35.28.28,0,0,1-.09.14,9.54,9.54,0,0,1-1.76.52,6.07,6.07,0,0,0-4.06,2.34,3.28,3.28,0,0,0,2.09.7,5.45,5.45,0,0,0,1.29-.18,2,2,0,0,1,.66-.17c.34,0,.51.16.51.47a1.18,1.18,0,0,1-.19.7,2.91,2.91,0,0,1-2,1.25,8,8,0,0,1-1,.07,4.61,4.61,0,0,1-2-.38c-.11.33-.22.65-.35,1a11.66,11.66,0,0,0-.54,1.64A.57.57,0,0,1,31.22,13.8Z"/><path d="M42.56,14.44a.75.75,0,0,1-.26,0,2,2,0,0,1-1.12-.94,12.16,12.16,0,0,1-1.57-5.9,12.93,12.93,0,0,1,.44-3.28A1.73,1.73,0,0,1,41.72,3,5.88,5.88,0,0,1,45.3,4.62a.5.5,0,0,1,.43-.24,1.33,1.33,0,0,1,1,.64,1.33,1.33,0,0,1,.31.82,13,13,0,0,1-4,8.43A.72.72,0,0,1,42.56,14.44Zm-.33-2.39a15.24,15.24,0,0,0,3-5.37A2.1,2.1,0,0,1,44.6,6c-.4-.66-.84-1-1.31-1-1,0-1.55,1.18-1.55,3.53A14.41,14.41,0,0,0,42.23,12.05Zm12.52,2.11a1.1,1.1,0,0,1-.56-.17,1.37,1.37,0,0,1-.71-1.36,7,7,0,0,1,.1-1.08c.11-.85.18-1.63.21-2.32A10,10,0,0,1,52,10.71a9.79,9.79,0,0,1-2.22,1.22,2.75,2.75,0,0,1-1,.21,3,3,0,0,1-1.36-.35.61.61,0,0,1-.35-.54.74.74,0,0,1,.11-.47,3.38,3.38,0,0,1,1-.44,4.07,4.07,0,0,1,.56-.19A9.29,9.29,0,0,0,52.1,8,8.11,8.11,0,0,1,53.34,7a7.55,7.55,0,0,0-2.64-.49l-1.86,0a1.31,1.31,0,0,1-.79-.42,1.31,1.31,0,0,1-.47-.91c0-.22.15-.39.44-.52a5.07,5.07,0,0,1,1.69-.3,5.26,5.26,0,0,1,1.34.18,7.42,7.42,0,0,1,2.69,1.39c-.09-1-.22-2.07-.37-3.05A23.85,23.85,0,0,1,53.09.4c0-.25.16-.38.49-.38a2.33,2.33,0,0,1,1.1.31,1.55,1.55,0,0,1,.73.61,12.25,12.25,0,0,1,.91,3.91q.09,1.29.09,2.46a28.35,28.35,0,0,1-.28,4.46,4.58,4.58,0,0,1-1,2.25A.5.5,0,0,1,54.75,14.16Zm-3.3,8.11a2.49,2.49,0,0,1-1.62-.73,4.22,4.22,0,0,1-1.29-3.14,3.31,3.31,0,0,1,1.29-2.79A1.85,1.85,0,0,1,51,15.23a1.46,1.46,0,0,1,.89.17c.06-.38.25-.56.58-.56a1.12,1.12,0,0,1,.68.3,4,4,0,0,1,1.64,3.05,4.28,4.28,0,0,1-.68,2.2,4.69,4.69,0,0,1-1.89,1.69A1.74,1.74,0,0,1,51.45,22.27Zm-.52-1.67c.28,0,.6-.26,1-.8A4.71,4.71,0,0,0,53,17.48a1.8,1.8,0,0,0-.66-1.12.37.37,0,0,1-.14.07A2.77,2.77,0,0,0,50.46,18a2.65,2.65,0,0,0-.23,1.1,2.92,2.92,0,0,0,.23,1.12C50.6,20.47,50.76,20.6,50.93,20.6Z"/><path d="M62.55,13.59c-1.64,0-2.93-1.07-3.89-3.21a10.22,10.22,0,0,1-.84-4,7.26,7.26,0,0,1,.52-2.86.55.55,0,0,1,.49-.38,1,1,0,0,1,.62.31,2.58,2.58,0,0,1,.57.7,2,2,0,0,1,.28.65,19.23,19.23,0,0,1,.1,2.27,17,17,0,0,0,.16,2.52q.21,1.29,1.32,1.29a3.22,3.22,0,0,0,1.47-.5,15.57,15.57,0,0,0,4.08-3.61C68,6,68.48,5.6,69,5.6a.77.77,0,0,1,.66.35A1.63,1.63,0,0,1,70,7q-.15,2.16-3.23,4.59A6.71,6.71,0,0,1,62.55,13.59ZM68,22.27c-.2,0-.37-.15-.51-.43a11.69,11.69,0,0,1-1.22-3.37,4.94,4.94,0,0,1-.07-.87,6.38,6.38,0,0,1,1-3.26.56.56,0,0,1,.47-.25,1.23,1.23,0,0,1,.91.51,2.63,2.63,0,0,1,.64.4l.12,0a6.24,6.24,0,0,1,3.07-.92,4,4,0,0,1,.6,0l.22,0a1.1,1.1,0,0,1,.85.46,1.47,1.47,0,0,1,.39.92l0,.19a12.79,12.79,0,0,0-.14,1.5,10.43,10.43,0,0,1-.18,1.78,1.93,1.93,0,0,1,1.59,1.15,1,1,0,0,1,.07.21.26.26,0,0,1-.09.21,1.5,1.5,0,0,1-.8.19l-.35,0a4.74,4.74,0,0,0-1.81.38,2.56,2.56,0,0,1-1.73.82.92.92,0,0,1-.73-.33.82.82,0,0,1-.09-.33v-.12a.87.87,0,0,1-.1-.42.55.55,0,0,1,.19-.42c.21-.14.43-.28.68-.42a.58.58,0,0,1,.17-.19,3.5,3.5,0,0,0,.93-1.57,12,12,0,0,0,.21-1.48,10.86,10.86,0,0,1,.12-1.1,7.6,7.6,0,0,0-2.25.85l-1.71.86a5.64,5.64,0,0,0-.12,1c0,.72,0,1.43.1,2.15a7,7,0,0,1-.21,1.74A.26.26,0,0,1,68,22.27Zm3.54-9a1.33,1.33,0,0,1-.77-.25.76.76,0,0,1-.35-.67c.07-1,.18-2,.32-3a32.2,32.2,0,0,0,.36-3.73,15.6,15.6,0,0,0-.29-2.95,4.19,4.19,0,0,0-.21-.87,3.09,3.09,0,0,1-.21-.91A.8.8,0,0,1,71.3,0q2.63.24,2.62,4.59a17.24,17.24,0,0,1-.4,3.33l.75-.4a6.14,6.14,0,0,1,2.82-.75,2.85,2.85,0,0,1,1.71.54.61.61,0,0,1,.28.47A.37.37,0,0,1,79,8a1.78,1.78,0,0,1-1.13.54,6.44,6.44,0,0,0-3,1.22,12.35,12.35,0,0,0-2.51,2.08c-.11.33-.21.65-.29,1A.6.6,0,0,1,71.53,13.27Z"/><path d="M88.8,21.94a1.34,1.34,0,0,1-.51-.12,1.27,1.27,0,0,1-.61-.44,7.32,7.32,0,0,1-.8-3.43c0-.37,0-.76.07-1.17a25.56,25.56,0,0,1-3.11.19c-1.93,0-3.12-.16-3.59-.48a1.34,1.34,0,0,1-.7-1.09.45.45,0,0,1,.3-.39,1.37,1.37,0,0,1,.61-.15,34.79,34.79,0,0,1,3.82-.21A21.71,21.71,0,0,0,89.79,14a17,17,0,0,1,3.51-.52,1.18,1.18,0,0,1,.64.21c.33.24.49.46.49.66s-.08.23-.23.33a18.64,18.64,0,0,1-4.9,1.69,8.2,8.2,0,0,0-.4,2.53,8.43,8.43,0,0,0,.35,2.36l0,.24C89.27,21.8,89.12,21.94,88.8,21.94Zm-4.26-8.7a1.13,1.13,0,0,1-.92-.58.74.74,0,0,1-.49-.66.39.39,0,0,1,.1-.26c.37-.47.72-1,1-1.45a18,18,0,0,1,1.24-1.67A5.34,5.34,0,0,0,86,8.06a13.3,13.3,0,0,1,1-1,15.62,15.62,0,0,0-3.4.4h-.14a1,1,0,0,1-.7-.31,1.35,1.35,0,0,1-.47-.93.53.53,0,0,1,.42-.52l.66-.16A5.6,5.6,0,0,1,85.78,2.3l-1.12,0a16.34,16.34,0,0,0-3.59.38h-.14a1.08,1.08,0,0,1-.73-.33,1.56,1.56,0,0,1-.47-1,.54.54,0,0,1,.43-.54A13.13,13.13,0,0,1,83.6.33a14.58,14.58,0,0,1,4.85.72,1.51,1.51,0,0,1,.54.43,1.36,1.36,0,0,1,.4.86.51.51,0,0,1-.28.47,11.81,11.81,0,0,0-3.45,2.53,23.44,23.44,0,0,1,3.61.52l.07,0a1.64,1.64,0,0,1,.66.35,1.22,1.22,0,0,1,.45.85c0,.31-.63.78-1.88,1.4a10.89,10.89,0,0,0-3.12,2.32,14.86,14.86,0,0,1,2.84-.28,7.87,7.87,0,0,1,3.28.61,1.67,1.67,0,0,1,.32.33.85.85,0,0,1,.2.52c0,.2-.75.32-2.23.35a13.62,13.62,0,0,0-5,.84A.84.84,0,0,1,84.54,13.24Z"/><path d="M96.54,19a1,1,0,0,1-.7-.3,1.55,1.55,0,0,1-.54-1.13.89.89,0,0,1,.18-.56c.49-.5,1-1,1.5-1.48A12.81,12.81,0,0,0,100.52,11a4.41,4.41,0,0,0,.36-1.57,1.2,1.2,0,0,0-.1-.47c-.06-.14-.26-.21-.58-.21-.68,0-1.93.69-3.75,2.06a.56.56,0,0,1-.36.12.93.93,0,0,1-.65-.28,1.32,1.32,0,0,1-.54-1A.59.59,0,0,1,95,9.35a6.73,6.73,0,0,1,2-1.52,5.46,5.46,0,0,1,2.6-.68,2.76,2.76,0,0,1,2.79,2,5.22,5.22,0,0,1,.21,1.47,5.38,5.38,0,0,1-.12,1.11,8.28,8.28,0,0,0,3-.87c0-1.36-.07-2.71-.12-4.06a.86.86,0,0,1,.44-.86,1.9,1.9,0,0,0,.36-.12l.11,0a.63.63,0,0,1,.49.3,3.82,3.82,0,0,1,.94,2.18,16.66,16.66,0,0,1,.1,1.71q0,4.55-.14,7.76c0,.39-.17.59-.4.59a1.71,1.71,0,0,1-1.06-.61,2.21,2.21,0,0,1-.58-.85,14.82,14.82,0,0,1-.17-2.2c0-.58,0-1.07.05-1.48a5.22,5.22,0,0,1-1.55.24,5.31,5.31,0,0,1-1.94-.38,9.67,9.67,0,0,1-.61,1.2,4.13,4.13,0,0,1,2.58,2,1.52,1.52,0,0,1,.21.75.76.76,0,0,1-.28.59h-.07a4.09,4.09,0,0,1-1.13-.85,5,5,0,0,0-.81-.65,1.94,1.94,0,0,0-1.09-.28,3,3,0,0,0-.63.09A17,17,0,0,1,97,18.89.72.72,0,0,1,96.54,19Zm.4-12.65a1.06,1.06,0,0,1-.52-.17,2.2,2.2,0,0,1-.82-1,1.39,1.39,0,0,1-.09-.47,1,1,0,0,1,.23-.61A4.49,4.49,0,0,1,98.84,3a4.05,4.05,0,0,1,2.64.91,1,1,0,0,1,.4.8c0,.25-.15.38-.47.4a13.83,13.83,0,0,0-2.09.21,3.85,3.85,0,0,0-1.87.87A.83.83,0,0,1,96.94,6.38Zm13.38,12.91a1,1,0,0,1-.52-.17,1.53,1.53,0,0,1-.65-1.42,6.7,6.7,0,0,1,.09-1,38.42,38.42,0,0,0,.24-3.89,32.88,32.88,0,0,0-.43-5.42c-.18-1.42-.28-2.28-.28-2.58s.16-.42.47-.42a2.06,2.06,0,0,1,1,.33c1.1.66,1.64,3.11,1.64,7.36,0,.55,0,1.11,0,1.69v.79a8.2,8.2,0,0,1-1.2,4.57A.4.4,0,0,1,110.32,19.29Z"/></g></g></svg>