<svg xmlns="http://www.w3.org/2000/svg" viewBox="0 0 1000.5 441.46"><defs><style>.cls-1{fill:none;stroke:#000;stroke-miterlimit:10;}</style></defs><g id="Layer_2" data-name="Layer 2"><g id="Layer_1-2" data-name="Layer 1"><path class="cls-1" d="M192.6,162.06a10,10,0,0,1-4.18-1.18c-3.08-1.43-4.62-3.44-4.62-6s1.95-7.74,5.85-15.69,11-21.05,21.32-39.31Q223.33,78,238.21,54.05t27.44-42.49q3.44-5,5.21-7.41a14.34,14.34,0,0,1,2.74-3,3.64,3.64,0,0,1,2-.64,13.49,13.49,0,0,1,6.77,3.06q3.54,2.74,3.54,5.32-.1,5.37-8.16,19.55Q266.3,49.16,238.9,90.09,228.6,105.45,224,112.86q.33,0,9.46-9.13a461.78,461.78,0,0,1,43.18-38.88q22.77-18.06,37.17-24.93,13.1-6,18.15-6a14.63,14.63,0,0,1,7.41,2,14.09,14.09,0,0,1,5.48,5.59,17.16,17.16,0,0,1,1.51,7.51q0,12.15-7.95,28.69a21.87,21.87,0,0,0-1.61,3.86c0,.08,0,.11.1.11q.75,0,3.87-3.22a216.27,216.27,0,0,1,41-29.44,91,91,0,0,1,11.07-5.21A24.08,24.08,0,0,1,401,42.18a19.72,19.72,0,0,1,8.7,2.15q10.74,5.06,10.75,17.4a45.31,45.31,0,0,1-2.74,15q-2.74,7.78-5.64,14.12-5.7,13.32-12.19,32.07t-6.5,23.47a2.37,2.37,0,0,0,.75,2c.5.36,1.82.61,4,.75q9.88,0,24.87-7.09a202.92,202.92,0,0,0,28.41-16.33q13.44-9.23,19.77-16.43c2.29-2.86,3.94-4.3,4.94-4.3a1.12,1.12,0,0,1,.91.48,1.56,1.56,0,0,1,.38.92,2.33,2.33,0,0,1-.43,1.13c-.29.46-.75,1.12-1.4,2q-4.5,5.7-13.85,13.16a209.37,209.37,0,0,1-20.95,14.61,170.34,170.34,0,0,1-22.88,11.93Q406.59,154,398.64,154c-.86,0-1.68,0-2.47-.11q-14-2.15-18.05-12.78a29.51,29.51,0,0,1-1.07-8.06A55.72,55.72,0,0,1,379,119a186.37,186.37,0,0,1,9.88-26.75Q397.45,72.36,400,65.06a56.1,56.1,0,0,0,3.33-13.32l.32-2a.66.66,0,0,0-.75-.75A20.7,20.7,0,0,0,398,50a77.78,77.78,0,0,0-7.42,2.69Q369.1,62.27,354.87,73.6a150.81,150.81,0,0,0-25.25,25.51q-11,14.19-22.61,32-9.13,13.75-13.11,19.23c-2.65,3.66-4.29,5.62-4.94,5.91a2.06,2.06,0,0,1-1.5.65,7.14,7.14,0,0,1-2-.43,13.66,13.66,0,0,1-5.8-2.69,5.11,5.11,0,0,1-2.15-3.87q.21-2.14,4.51-11.17,8.7-18.15,18.58-35.88l16-27.39q12.35-20.94,15.58-32.33a10,10,0,0,0,.75-2.9.67.67,0,0,1-.16-.27c0-.11-.24-.16-.59-.16a23.25,23.25,0,0,0-6,1.5,73.91,73.91,0,0,0-8.59,3.55q-10.76,5.48-26.75,17.4-31.16,22.12-49.63,43.07t-28.79,36.1Q198.2,162.07,192.6,162.06Z"/><path class="cls-1" d="M448.69,255.3a30.57,30.57,0,0,1-6.23-.64q-14.29-3.87-18.16-13.75a15.69,15.69,0,0,1-.86-5.16q0-19.33,34.27-35.23,17.19-8.06,50.92-20l18.15-29.76,15.36-25.56a20.63,20.63,0,0,0,1.72-2.9l-.11-.11q-.21,0-6.76,5.48-11.72,9.88-18.53,14.82a150.18,150.18,0,0,1-13.59,8.81q-11.61,6.87-18.59,6.88a13.39,13.39,0,0,1-6.23-1.51q-9.12-4.51-9.13-14.93A37.62,37.62,0,0,1,474.25,127a99.39,99.39,0,0,1,7.63-14.5,117.12,117.12,0,0,1,7.63-10.8q4.29-6.12,8.27-6.12a8.62,8.62,0,0,1,3.65,1q3.87,1.39,3.87,4.72,0,2.79-2.8,8.06l-3.33,5.91-.53.86q-2.26,3.21-8.49,16.43a67.06,67.06,0,0,0-3.33,7.74,31.76,31.76,0,0,0-2,9.56c0,1.57.5,2.47,1.5,2.68,2.37,0,6.57-1.46,12.63-4.4a143.36,143.36,0,0,0,18.31-10.74q4.29-3,12.35-9.4t16-13.06q7.89-6.66,11.76-10.42,4.94-4.73,7.2-4.72a7.54,7.54,0,0,1,2.41,1,3.19,3.19,0,0,1,1.88,3q0,3.12-5.37,13-4.29,8.49-8.48,17.19-6.78,14.4-14.29,28.14-3.76,6.66-3.76,7a39.31,39.31,0,0,0,5.69-2.25q25.45-11,56.18-30,32.78-20.31,39.86-29.76l.43-.53c1-2,1.72-3,2.15-3,.28,0,.6.21,1,.64a2,2,0,0,1,1.18,1.83,8.61,8.61,0,0,1-1.29,3.76q-9,12.78-57,40.6a356.28,356.28,0,0,1-45.76,22.13l-6.44,2.8-11.07,16q-5,7.2-11.22,15.79t-13.38,17.08A155.42,155.42,0,0,1,482,239.67,77.49,77.49,0,0,1,465.71,251,37.18,37.18,0,0,1,448.69,255.3ZM442,248.64a32.63,32.63,0,0,0,16.7-4.61,51.91,51.91,0,0,0,13.59-11.39q10.2-12,28.9-40.82c1.57-2.36,2.72-4.19,3.43-5.48,0-.07-.07-.11-.21-.11q-.75,0-9.67,3.12-15.15,5.27-24.17,9.13-8.06,3.33-15.58,7.2-26.52,13.09-27.28,27.39l-.11,2q0,10.53,9.24,13A25.82,25.82,0,0,0,442,248.64Z"/><path d="M0,372.46,18,368V176l-18-4.5V167H76.5q53.7,0,82.35,27.6T187.5,272q0,49.82-28.65,77.4T76.5,377H0Zm76.5-3q27.9,0,43.2-22.65T135,272q0-52.2-15.3-74.85T76.5,174.46h-9v195Z"/><path d="M232.8,360.31Q211.5,339.16,211.5,302q0-24.3,9.3-42.3a66,66,0,0,1,25.95-27.6q16.65-9.59,38.25-9.6t37.95,8.1q16.35,8.1,25.2,21.75A54.32,54.32,0,0,1,357,282.46a48.58,48.58,0,0,1-1.5,12.9l-1.5,5.1q-12.9,2.7-27.9,4.5a449.15,449.15,0,0,1-63.6,4.5q0,34.82,9.6,49.65T298.5,374a44.16,44.16,0,0,0,21.75-5.55,43.18,43.18,0,0,0,15.9-14.7A34.36,34.36,0,0,0,342,335h7.5a40.41,40.41,0,0,1-7.2,22.8A50.78,50.78,0,0,1,322.2,375q-12.9,6.45-29.7,6.45Q254.1,381.46,232.8,360.31Zm60.9-59.85a70.91,70.91,0,0,0,10.8-1.5q.3-1.48,1.5-6.6a80.83,80.83,0,0,0,1.5-15.9q0-24.88-6.6-36.45T285,228.46q-22.5,0-22.5,73.5A259.25,259.25,0,0,0,293.7,300.46Z"/><path d="M416.7,373.36A50.06,50.06,0,0,1,405,365a38.8,38.8,0,0,1-10.5,10.2,42.51,42.51,0,0,1-6,3.3H381v-51h12a84.39,84.39,0,0,0,11.4,23.4Q420.3,374,444,374q12.6,0,19.05-6.15T469.5,350q0-9.9-8.85-16.65T432.9,316.66a287.42,287.42,0,0,1-26.25-14.55,62.48,62.48,0,0,1-17.1-16.2,38.08,38.08,0,0,1-7.05-23q0-18,15.45-29.25t47.55-11.25a54.69,54.69,0,0,1,29.4,8.4,78,78,0,0,1,11.4,8.1,46.52,46.52,0,0,1,10.5-10.2,64.6,64.6,0,0,1,6-3.3h7.5v51h-12a108.47,108.47,0,0,0-11.1-23.1q-15-23.4-35.7-23.4a18.37,18.37,0,0,0-13.8,6,20.94,20.94,0,0,0-5.7,15q0,11.41,9.6,19t29.1,17.55a288.52,288.52,0,0,1,25.35,14.25A63.32,63.32,0,0,1,512.25,317,34.05,34.05,0,0,1,519,338q0,43.52-69,43.5Q431.39,381.46,416.7,373.36Z"/><path d="M541.5,372.46l18-4.5V236l-18-4.5V227h39q27,0,27,27V368l18,4.5V377h-84Zm24-169.5a21.75,21.75,0,1,1,15,6A20.3,20.3,0,0,1,565.5,203Z"/><path d="M670.5,436.66q-16.82-4.8-24.16-12.3T639,408.46q0-10.2,6.15-16.35T661.5,386a73.72,73.72,0,0,1,8.7.9l3.3.6v42c2.4.8,6.19,1.8,11.4,3a122.91,122.91,0,0,0,26.1,3q36.59,0,53.54-10.35t17-25.65q0-19.5-36-19.5h-57q-22.5,0-34.5-9.3T642,347q0-14.4,14.09-25.5A61,61,0,0,1,670.5,314q-11.12-6.88-16-16.35t-5-22.65q0-22.18,16.79-35.85t49.21-13.65a111.58,111.58,0,0,1,26,2.85q11.84,2.87,19,7.65a31.77,31.77,0,0,1,6.29-9A30.17,30.17,0,0,1,789,218a23,23,0,0,1,17.09,7q6.9,7.06,6.91,18.45,0,8.72-4.66,14.1A14.94,14.94,0,0,1,796.5,263a51.94,51.94,0,0,1-7.5-.6l-3-.9v-36q-7.82,0-14.71,7.5a24.37,24.37,0,0,0-4.79,7.5q15,13.22,15,34.5,0,22.21-16.8,35.85t-49.2,13.65q-21.62,0-39-7.5l-6,3a19.93,19.93,0,0,0-4.5,3.45,5.79,5.79,0,0,0-1.5,4c0,3.41,1.74,6,5.25,7.8s9.75,2.7,18.75,2.7h57Q768,338,780.75,351t12.75,36.45q0,24-20,39t-59.54,15Q687.29,441.46,670.5,436.66ZM731,308.86q5.53-9.58,5.55-33.9T731,241.06q-5.57-9.59-15.45-9.6T700,241.06q-5.55,9.62-5.54,33.9t5.54,33.9q5.55,9.61,15.46,9.6T731,308.86Z"/><path d="M819,372.46l18-4.5V236l-18-4.5V227h27q17.7,0,27.9,11.4a40.19,40.19,0,0,1,6.6,11.1,57.85,57.85,0,0,1,9.9-13.5q13.5-13.5,33.6-13.5a63.68,63.68,0,0,1,30.15,7A55.42,55.42,0,0,1,975,248a43.08,43.08,0,0,1,7.5,24v96l18,4.5V377h-39q-27,0-27-27V272q0-18.9-6.75-28.95T912,233q-11.41,0-20.4,12a49.42,49.42,0,0,0-6.6,12V368l18,4.5V377H819Z"/></g></g></svg>