<svg xmlns="http://www.w3.org/2000/svg" viewBox="0 0 131.2 887.48"><defs><style>.cls-1,.cls-2{fill:none;stroke:#68828c;stroke-width:2px;}.cls-1{stroke-miterlimit:10;}.cls-2{stroke-linecap:round;stroke-linejoin:round;}</style></defs><g id="Layer_2" data-name="Layer 2"><g id="Layer_1-2" data-name="Layer 1"><path class="cls-1" d="M80.65.28c7,23.86,11.92,49.84,13,74.67C95,107.19,77,131.75,73.89,162.41c-2.45,24.08-.82,48.59,2.77,72.47,3.43,22.82,12,44.76,14.08,67.76,2.28,25.59-8.18,50.28-9.56,75.66C79.49,409.13,76,439.41,80.06,470c5.72,43.28.54,86.8-.17,130.2-.59,35.9,3.38,71.73,7,107.4,3.29,32.22,7,64.43,9.32,96.75,1.34,19.14,4.8,33-1.84,51.84"/><path class="cls-1" d="M68.12,180.82c-10.35-21.84-36.79-18.4-36.79-18.4s4.59,23.1,18.39,27.65,23,0,23,0Z"/><path class="cls-1" d="M72.76,415C62.41,393.12,36,396.56,36,396.56s4.6,23.1,18.4,27.65,23,0,23,0Z"/><path class="cls-1" d="M101.64,295.81C125.57,292.33,130,266,130,266s-23.43-2.38-31.83,9.47-6.75,22-6.75,22Z"/><path class="cls-1" d="M93.85,535.22c23.92-3.48,28.39-29.77,28.39-29.77s-23.43-2.39-31.83,9.47-6.75,22-6.75,22Z"/><path class="cls-2" d="M103.64,886.48c-13.07-26.73-25.78-56.4-50.53-74.55C45.2,806.12,35.77,801.66,26,802.1a137.67,137.67,0,0,0,13.86,38.57c2.76,5.11,6,10.21,10.9,13.32,4.45,2.83,9.83,3.74,15.06,4.46q9.55,1.32,19.18,2.11c2.59.21,5.44.31,7.47-1.3,2.25-1.79,2.65-5.1,2.1-7.92-3-15.22-8.47-30.32-12.3-45.37-5.66-22.18-9.92-44.68-14.69-67.05-4.46-20.86-6.5-49.17-23-64.88,0,0-8.53-5.94-13.42-7.28s-.84,5.68,4.89,5.55c2.59,0,3.37-3.48,3.33-7.75a86.09,86.09,0,0,0-1.89-14.67c-1.15-5.75.57-12.93,6-15.23a50.19,50.19,0,0,0,10.64-6.61,24.17,24.17,0,0,1,1.72,5.74c.29,2.3,1.44,5.47,1.15,7.48s-3.73,5.17-3.73,5.17,6.32-5.75,8.62-5.75,7.82.58,10.81.58a6.35,6.35,0,0,0,4.07-1.51c1.19-.9,2.74.49,2.37,1.8-.58,2-1.73,9.48-4.31,12.36s-12.36,3.73-13.8,3.45,4.67-4.71,8.33-3.45,5.18,4.6,5.18,8.91,4.31,2.87,2.87,6.61-4.56,9.2-12.63,10.06c-5.39.58-13.85-5.3-18.87-9.27-2.49-2-4.14-3.47-4.14-3.47"/><path class="cls-2" d="M43.8,676.34s-2.3,6.32-2.3,10.06,0,5.17-2.3,9.49a28.93,28.93,0,0,1-6,7.47,13.25,13.25,0,0,0-3.45,0c-.86.29-3.18,0-3.74-3.16s-2-2-2.58-5.75-6.32-11.79,0-17,8.73-6.21,8.73-6.21"/><path class="cls-2" d="M33.88,672A5.54,5.54,0,0,0,30,674.9c-2.18,3.93-3.85,8.1-8,10.34-4.36,2.34-9.52,5.07-14.56,5.23-1.79.06-3.61-.05-5.41-.05,0,0-3.06-9.86,4.22-15.23s16.86-5.75,16.86-5.75"/><path class="cls-2" d="M20.45,666.76c-3.9-.14-8,0-11.64-1.64-2-.88-5.65-1.09-7.15-2.77C-.43,660,3,657,5.07,656.41c6.87-2,1.58-12.78,6.71-13,3-.15,6.07.28,9.08-.07,5-.58,8.82-9.52,13-8.37a13.36,13.36,0,0,1,5.52,3.65A16.58,16.58,0,0,0,41.67,641c1.08.71,2.14.36,3.3.73,2.92.93,1.81,3.56.73,5.49"/></g></g></svg>