<svg xmlns="http://www.w3.org/2000/svg" viewBox="0 0 206.55 17.39"><g id="Layer_2" data-name="Layer 2"><g id="Layer_1-2" data-name="Layer 1"><path d="M0,15.05l1.2-1.38a6.14,6.14,0,0,0,4.34,2c2.07,0,3.3-1,3.3-2.56S7.7,10.94,6.21,10.29L4,9.3C2.48,8.67.76,7.56.76,5.24s2.09-4.18,5-4.18A6.54,6.54,0,0,1,10.36,3L9.29,4.3A5,5,0,0,0,5.72,2.82c-1.77,0-2.94.89-2.94,2.3S4.15,7.21,5.39,7.73l2.24,1c1.83.78,3.25,1.87,3.25,4.21,0,2.49-2.06,4.48-5.37,4.48A7.55,7.55,0,0,1,0,15.05Z"/><path d="M12.91,11.28c0-3.89,2.54-6.14,5.4-6.14s5.41,2.25,5.41,6.14-2.55,6.11-5.41,6.11S12.91,15.14,12.91,11.28Zm8.77,0c0-2.67-1.36-4.49-3.37-4.49S15,8.61,15,11.28s1.36,4.46,3.36,4.46S21.68,14,21.68,11.28Z"/><path d="M26.62,12.83V5.43h2v7.14c0,2.17.66,3.1,2.2,3.1,1.19,0,2-.59,3.12-2V5.43h2V17.1H34.27l-.17-1.83H34a5,5,0,0,1-3.85,2.12C27.73,17.39,26.62,15.8,26.62,12.83Z"/><path d="M39.84,5.43h1.63l.16,2.13h.07A4,4,0,0,1,45,5.14a2.75,2.75,0,0,1,1.24.24l-.37,1.74a3.15,3.15,0,0,0-1.13-.2c-1,0-2.16.71-2.95,2.69V17.1h-2Z"/><path d="M47.06,11.28c0-3.89,2.63-6.14,5.61-6.14a4.93,4.93,0,0,1,3.41,1.37l-1,1.31a3.4,3.4,0,0,0-2.32-1c-2.11,0-3.66,1.82-3.66,4.49s1.46,4.46,3.61,4.46a4.19,4.19,0,0,0,2.74-1.16l.85,1.32a5.65,5.65,0,0,1-3.77,1.49C49.42,17.39,47.06,15.14,47.06,11.28Z"/><path d="M57.5,11.28c0-3.8,2.56-6.14,5.24-6.14,3,0,4.66,2.14,4.66,5.48a7,7,0,0,1-.09,1.12H59.45c.14,2.47,1.65,4.07,3.88,4.07a5.08,5.08,0,0,0,2.9-.93l.71,1.3a6.89,6.89,0,0,1-3.86,1.21C60,17.39,57.5,15.11,57.5,11.28Zm8.15-.95c0-2.34-1.05-3.61-2.87-3.61-1.64,0-3.11,1.31-3.35,3.61Z"/><path d="M74.11,15.05l1.2-1.38a6.14,6.14,0,0,0,4.35,2c2.06,0,3.29-1,3.29-2.56s-1.14-2.13-2.63-2.78l-2.26-1c-1.47-.63-3.19-1.74-3.19-4.06s2.1-4.18,5-4.18A6.52,6.52,0,0,1,84.47,3L83.4,4.3a5,5,0,0,0-3.57-1.48c-1.77,0-2.94.89-2.94,2.3s1.37,2.09,2.61,2.61l2.24,1c1.83.78,3.25,1.87,3.25,4.21,0,2.49-2.06,4.48-5.37,4.48A7.55,7.55,0,0,1,74.11,15.05Z"/><path d="M87.16,14.07c0-2.54,2.19-3.81,7.17-4.35,0-1.5-.51-3-2.41-3A6.43,6.43,0,0,0,88.44,8l-.77-1.35a8.5,8.5,0,0,1,4.58-1.53c2.85,0,4,1.9,4,4.8V17.1H94.67l-.17-1.39h-.06a6.22,6.22,0,0,1-3.86,1.68A3.17,3.17,0,0,1,87.16,14.07Zm7.17.18V11c-3.91.47-5.23,1.43-5.23,2.92a1.79,1.79,0,0,0,2,1.87A4.79,4.79,0,0,0,94.33,14.25Z"/><path d="M100,5.43h1.63l.17,1.69h.06a5.59,5.59,0,0,1,3.92-2c2.45,0,3.56,1.59,3.56,4.57V17.1h-2V10c0-2.17-.65-3.1-2.2-3.1-1.19,0-2,.61-3.19,1.79V17.1h-2Z"/><path d="M111.81,15.77l1-1.3a5.27,5.27,0,0,0,3.44,1.38c1.53,0,2.3-.82,2.3-1.81,0-1.2-1.38-1.73-2.67-2.21-1.64-.6-3.48-1.41-3.48-3.37s1.49-3.32,4-3.32A5.92,5.92,0,0,1,120,6.46l-1,1.26a4.39,4.39,0,0,0-2.66-1c-1.46,0-2.14.79-2.14,1.68,0,1.1,1.26,1.53,2.59,2,1.68.63,3.55,1.32,3.55,3.54,0,1.89-1.5,3.47-4.25,3.47A7,7,0,0,1,111.81,15.77Z"/><path d="M126,1.35h2.12l2.54,8.51c.56,1.86.94,3.36,1.52,5.2h.1c.58-1.84,1-3.34,1.51-5.2l2.53-8.51h2l-5,15.75H131Z"/><path d="M139.07,14.07c0-2.54,2.2-3.81,7.17-4.35,0-1.5-.5-3-2.41-3A6.46,6.46,0,0,0,140.35,8l-.77-1.35a8.5,8.5,0,0,1,4.58-1.53c2.85,0,4.05,1.9,4.05,4.8V17.1h-1.63l-.16-1.39h-.07a6.22,6.22,0,0,1-3.86,1.68A3.17,3.17,0,0,1,139.07,14.07Zm7.17.18V11c-3.91.47-5.23,1.43-5.23,2.92a1.79,1.79,0,0,0,2,1.87A4.79,4.79,0,0,0,146.24,14.25Z"/><path d="M151.89,5.43h1.63l.17,2.13h.06a4,4,0,0,1,3.32-2.42,2.79,2.79,0,0,1,1.25.24L158,7.12a3.19,3.19,0,0,0-1.13-.2c-1,0-2.17.71-2.95,2.69V17.1h-2Z"/><path d="M159.86,1.76a1.36,1.36,0,0,1,2.72,0,1.36,1.36,0,0,1-2.72,0Zm.36,3.67h2V17.1h-2Z"/><path d="M165.4,14.07c0-2.54,2.19-3.81,7.17-4.35,0-1.5-.51-3-2.41-3A6.43,6.43,0,0,0,166.68,8l-.77-1.35a8.5,8.5,0,0,1,4.58-1.53c2.85,0,4,1.9,4,4.8V17.1h-1.63l-.17-1.39h-.06a6.22,6.22,0,0,1-3.86,1.68A3.17,3.17,0,0,1,165.4,14.07Zm7.17.18V11c-3.91.47-5.24,1.43-5.24,2.92,0,1.33.9,1.87,2,1.87A4.79,4.79,0,0,0,172.57,14.25Z"/><path d="M180.05,15.89H180l-.18,1.21h-1.58V0h2V4.68l-.06,2.09a5.9,5.9,0,0,1,3.66-1.63c3,0,4.64,2.34,4.64,5.94,0,4-2.39,6.31-5.06,6.31A5.18,5.18,0,0,1,180.05,15.89Zm6.34-4.78c0-2.58-.88-4.3-3.08-4.3a4.74,4.74,0,0,0-3.12,1.59v6.11A4.5,4.5,0,0,0,183,15.73C185,15.73,186.39,14,186.39,11.11Z"/><path d="M191.39,14.76V0h2V14.9c0,.6.26.84.55.84a2,2,0,0,0,.43,0l.27,1.5a3.19,3.19,0,0,1-1.14.19C192,17.39,191.39,16.44,191.39,14.76Z"/><path d="M196.65,11.28c0-3.8,2.56-6.14,5.24-6.14,3,0,4.66,2.14,4.66,5.48a7,7,0,0,1-.09,1.12H198.6c.14,2.47,1.65,4.07,3.88,4.07a5.08,5.08,0,0,0,2.9-.93l.71,1.3a6.89,6.89,0,0,1-3.86,1.21C199.12,17.39,196.65,15.11,196.65,11.28Zm8.15-.95c0-2.34-1.05-3.61-2.87-3.61-1.64,0-3.11,1.31-3.35,3.61Z"/></g></g></svg>