<svg xmlns="http://www.w3.org/2000/svg" viewBox="0 0 52.03 62.83"><defs><style>.cls-1,.cls-2{fill:#fff;}.cls-1,.cls-2,.cls-3,.cls-4{stroke:#000;}.cls-1,.cls-3,.cls-4{stroke-miterlimit:10;}.cls-2{stroke-linejoin:round;}.cls-3{fill:#f7f7f7;}.cls-4{fill:none;}</style></defs><g id="Layer_2" data-name="Layer 2"><g id="Layer_1-2" data-name="Layer 1"><path class="cls-1" d="M23.64,7.82a6.42,6.42,0,0,0-3.05-4.39c-2-1.17-5.81-1.43-7.16.92C10.68,9.12,25,18.29,25.59,17.59c2.3-2.95,5.26-5.59,6.74-9.1,1.12-2.65,1.5-8.34-2.8-8S22.94,3.83,23.64,7.82Z"/><path class="cls-1" d="M41.48,9.07A10,10,0,0,0,39.87,6.5c-3-3.13-7.46.53-6.66,4.2s5.95,6.87,6,6.89c.79.5,5.23-1.92,6-2.33,2.28-1.35,5.88-6.55,1.79-8.33C45,6.11,42.9,8.16,41.48,9.07Z"/><polyline class="cls-2" points="35.16 33.1 39.76 59.72 5.86 62.33 0.5 35.01"/><polygon class="cls-2" points="47.98 20.08 9.31 21.04 0.5 35.01 35.16 33.1 47.98 20.08"/><polygon class="cls-3" points="12.89 23.72 8.22 29.82 20.13 29.28 33.08 28.7 36.88 23.72 24.44 23.72 12.89 23.72"/><line class="cls-4" x1="23.38" y1="23.72" x2="20.13" y2="29.28"/><line class="cls-4" x1="16.2" y1="38.77" x2="17.54" y2="44.78"/><line class="cls-4" x1="25.2" y1="38.77" x2="25.2" y2="44.78"/><path class="cls-4" d="M10.27,47.71s3.25,9.9,11.29,8.56,11.52-8.56,11.52-8.56"/><polygon class="cls-2" points="39.76 59.72 51.53 48.13 47.98 20.08 35.16 33.1 39.76 59.72"/><line class="cls-4" x1="40.82" y1="40.95" x2="45.6" y2="37.31"/><line class="cls-4" x1="41.86" y1="44.78" x2="47.41" y2="40.95"/><line class="cls-4" x1="43.21" y1="47.71" x2="48.56" y2="44.78"/></g></g></svg>