<svg xmlns="http://www.w3.org/2000/svg" viewBox="0 0 159.36 237.19"><defs><style>.cls-1{fill:#e5c793;}.cls-1,.cls-3,.cls-4,.cls-5,.cls-6{stroke:#232323;}.cls-1,.cls-2,.cls-3,.cls-4,.cls-5,.cls-6{stroke-miterlimit:10;}.cls-1,.cls-3,.cls-4{stroke-width:4px;}.cls-2,.cls-3{fill:none;}.cls-2{stroke:#d6b380;stroke-width:2px;}.cls-4{fill:#fffdde;}.cls-5{fill:#563f35;}.cls-6{fill:#efb88b;}.cls-7{fill:#f9e48c;}</style></defs><g id="Layer_2" data-name="Layer 2"><g id="Layer_1-2" data-name="Layer 1"><path class="cls-1" d="M74.8,231.77a4.54,4.54,0,0,0,8.8,0l16.53-54.46,20.93-68.95H37.34l13,43,7.88,26Z"/><line class="cls-2" x1="46.51" y1="138.56" x2="58.78" y2="126.28"/><line class="cls-2" x1="71.63" y1="132.42" x2="50.93" y2="153.12"/><line class="cls-2" x1="97.09" y1="123.01" x2="54.45" y2="165.65"/><line class="cls-2" x1="108.49" y1="128.68" x2="58.78" y2="178.39"/><line class="cls-2" x1="109.74" y1="145.66" x2="62.88" y2="193.23"/><line class="cls-2" x1="102.27" y1="170.26" x2="67.19" y2="205.3"/><line class="cls-2" x1="95.34" y1="193.22" x2="71.3" y2="217.25"/><path class="cls-3" d="M74.8,231.77a4.54,4.54,0,0,0,8.8,0l16.53-54.46,20.93-68.95H37.34l13,43,7.88,26Z"/><path class="cls-4" d="M126.69,64.21s2.19-13.13-1-20.74c-9.21-22.1-35.35-31.41-57.65-26.32C42.89,22.89,29.86,41.63,33.16,66.93c0,0-8,1.9-15.43,10.14S.25,113.2,19.24,119.54s31.67-3.17,31.67-3.17,7,15.85,23.46,15.85,24.09-11.41,24.09-11.41,3.17,7,14.58,8.24,26.21-4.09,32.61-13.64c6.66-9.93,5.7-23.39-2.36-36.47C142.56,77.75,127.36,60.18,126.69,64.21Z"/><path class="cls-5" d="M70,25.61c-2.76-.56-6.13.68-6.45,4.11-.55,5.77,6.65,7.17,9.27,2.54C74.93,28.51,72.76,26.16,70,25.61Z"/><path class="cls-5" d="M64.49,41c-1.06.7-2,2-1.46,2.81.9,1.44,3.65-.38,3.68-2.17C66.74,40.17,65.55,40.29,64.49,41Z"/><path class="cls-6" d="M56,40.75c1.72-1.9,2.68-5,.81-6.55-3.15-2.67-7.6,2.3-6.18,6.11C51.82,43.4,54.31,42.66,56,40.75Z"/><ellipse class="cls-7" cx="14.56" cy="25.48" rx="14.56" ry="25.48"/><ellipse class="cls-7" cx="150.73" cy="47.72" rx="8.63" ry="15.1"/></g></g></svg>