<svg xmlns="http://www.w3.org/2000/svg" viewBox="0 0 102.84 158.39"><defs><style>.cls-1{fill:none;stroke:#563f35;stroke-miterlimit:10;stroke-width:4px;}.cls-2{fill:#563f35;}</style></defs><g id="Layer_2" data-name="Layer 2"><g id="layout"><path class="cls-1" d="M83.18,85.11c-2.85,8.7-6.76,20.59-10.53,32-.12.33-.23.68-.34,1h0c-2.06,6.2-4.08,12.2-5.84,17.4-2,6-3.72,10.85-4.81,13.78C56.29,163.77,50,151.62,50,151.62L47,143.05l-5.83-17h0l-4.68-13.69-1.66-4.85L25.41,79.9l-1.26-3c2.81-1,5.58-2.26,8-2.71,8-1.47,9.54,6.75,16.63,9a11.92,11.92,0,0,0,6.22.15h0a16,16,0,0,0,3-1c2.58-1.11,4.07-2.58,5.65-3.25a4.77,4.77,0,0,1,4.17.23c3.25,1.49,4.88,5,8.81,5.83A17.72,17.72,0,0,0,83.18,85.11Z"/><path class="cls-1" d="M84.23,83.32a18.8,18.8,0,0,1-6.91.39c-4.16-.66-6-4.29-9.51-5.7A5,5,0,0,0,63.43,78c-1.63.78-3.12,2.38-5.77,3.68a17.7,17.7,0,0,1-3.09,1.17,12.44,12.44,0,0,1-6.52.13c-7.55-2.07-9.53-10.62-17.86-8.7-2.48.58-5.33,2.05-8.23,3.21-3.47,1.39-7.24,2.65-10.16.64C6.47,74.43,2.21,67.64,2,61.08A15.51,15.51,0,0,1,8.92,47.71a38.64,38.64,0,0,1,7.34-3.43c1.2-.46,3.44-.84,4.4-1.68.62-.55.47-1.13.45-1.93-.05-1.65-.1-3.31-.14-5-.07-2.78-.48-5.86-.08-8.63A26.2,26.2,0,0,1,34.15,8.24C45.31,2.54,62.11-5.25,82,15.9c5.39,5.73,5.14,15.75,3.32,23.39,3.77,1.1,7.85,2.89,9.06,7,1.12,3.84-.38,7.9-1.86,11.61a10.32,10.32,0,0,1,7.75,6.74C103.32,73.72,93.28,81.24,84.23,83.32Z"/><polyline class="cls-1" points="77.94 100.72 71.67 95.98 57.43 85.23 54.97 83.37"/><line class="cls-1" x1="26.21" y1="81.18" x2="73.54" y2="117.75"/><line class="cls-1" x1="36.38" y1="112.24" x2="66.66" y2="135.65"/><line class="cls-1" x1="34.61" y1="107.76" x2="64.33" y2="78.41"/><line class="cls-1" x1="46.93" y1="143.15" x2="72.62" y2="117.78"/><line class="cls-1" x1="41.11" y1="126.16" x2="80.23" y2="87.52"/><path class="cls-2" d="M32.42,24s-2.16.93-1.73,2.18,4.78,3.09,5.33,1.89,2.88-2.76.82-3.86A5.93,5.93,0,0,0,32.42,24Z"/><path class="cls-2" d="M43.05,16.29c-1.26.51-3,1.7-1.68,2.76s3.36,1.26,3.63-1a3.45,3.45,0,0,0-.21-1.52.85.85,0,0,0-.28-.46.87.87,0,0,0-.66-.08A4.52,4.52,0,0,0,43.05,16.29Z"/><path class="cls-2" d="M52.41,20.77c-1.33-.28-3.4-.26-2.94,1.34s2.07,2.94,3.54,1.25A3.48,3.48,0,0,0,53.7,22a.88.88,0,0,0,0-.53.86.86,0,0,0-.51-.44A3.56,3.56,0,0,0,52.41,20.77Z"/></g></g></svg>