<svg xmlns="http://www.w3.org/2000/svg" viewBox="0 0 340 640"><defs><style>.cls-1{fill:#e4c486;}.cls-2{fill:none;stroke:#f8fbff;stroke-miterlimit:10;stroke-width:3px;}.cls-3{fill:#f8fbff;}</style></defs><g id="Layer_2" data-name="Layer 2"><g id="layout"><rect class="cls-1" width="340" height="640"/><path class="cls-2" d="M304.84,349.72c-.27,5.44-.65,12.89-1,20l0,.64h0c-.21,3.89-.43,7.65-.63,10.92-.23,3.73-.43,6.81-.6,8.67-.83,9.16-6.49,3.18-6.49,3.18l-3.1-4.46-6.15-8.84h0l-4.95-7.13-1.76-2.52-10-14.37-1.22-1.53a37.71,37.71,0,0,1,4.24-2.81c4.46-2.11,6.68,2.37,11.21,2.57a7.42,7.42,0,0,0,3.68-.89h0a10.61,10.61,0,0,0,1.59-1c1.33-1,2-2.12,2.79-2.75a3,3,0,0,1,2.49-.53c2.14.35,3.66,2.12,6.1,2A10.89,10.89,0,0,0,304.84,349.72Z"/><path class="cls-2" d="M305.17,348.52a11.69,11.69,0,0,1-4,1.32c-2.55.27-4.23-1.52-6.5-1.78a3.09,3.09,0,0,0-2.58.66c-.83.7-1.45,1.86-2.79,3a11.17,11.17,0,0,1-1.63,1.16,7.65,7.65,0,0,1-3.8,1.1c-4.76,0-7.3-4.6-11.88-2.18a38,38,0,0,0-4.31,3.14c-1.82,1.34-3.83,2.66-5.87,2a13.82,13.82,0,0,1-8.48-8.22,9.11,9.11,0,0,1,1.91-8.77,23,23,0,0,1,3.76-3.12,10.34,10.34,0,0,0,2.31-1.67c.27-.4.09-.72-.05-1.17-.3-.94-.59-1.89-.88-2.83A29.92,29.92,0,0,1,259,326.2a15.39,15.39,0,0,1,4.75-12.91c5.63-5,14.23-12.15,29.32-3.13,4.08,2.44,5.55,8.23,5.71,12.9,2.39,0,5.07.43,6.45,2.62,1.27,2,1.05,4.59.78,6.95a6.34,6.34,0,0,1,5.63,2.66C314.83,340,310.15,345.9,305.17,348.52Z"/><polyline class="cls-2" points="304.28 359.5 299.84 357.77 289.75 353.84 288.01 353.16"/><line class="cls-2" x1="270.78" y1="356.43" x2="304.43" y2="369.98"/><line class="cls-2" x1="281.74" y1="372.67" x2="303.28" y2="381.34"/><line class="cls-2" x1="279.99" y1="370.37" x2="292.7" y2="348.84"/><line class="cls-2" x1="292.91" y1="388.75" x2="303.9" y2="370.14"/><line class="cls-2" x1="286.76" y1="379.91" x2="303.5" y2="351.56"/><path class="cls-3" d="M265.23,322.64s-1.11.87-.66,1.52,3.3,1,3.43.25,1.24-2-.14-2.35A3.64,3.64,0,0,0,265.23,322.64Z"/><path class="cls-3" d="M270.22,316.51c-.65.5-1.47,1.44-.54,1.85s2.18.2,2-1.12a2,2,0,0,0-.37-.84.51.51,0,0,0-.24-.22.52.52,0,0,0-.4.06A3.09,3.09,0,0,0,270.22,316.51Z"/><path class="cls-3" d="M276.44,317.61c-.83.05-2,.39-1.51,1.24s1.68,1.36,2.28.16a2.13,2.13,0,0,0,.18-.9.55.55,0,0,0-.07-.31.53.53,0,0,0-.36-.17A2.7,2.7,0,0,0,276.44,317.61Z"/><polyline class="cls-2" points="43.88 248.19 60.98 252.19 50.69 262.63"/><polyline class="cls-2" points="90.56 236.63 80.65 247.94 94.97 250.62"/><path class="cls-2" d="M61.65,266.18s7.28,7.4,18.4,2.8,8.21-12.11,8.21-12.11"/><path class="cls-2" d="M82.06,268.05a6.16,6.16,0,0,0,4.37,5.24c4.12,1.28,6.41-1.16,6.41-5.23s-5.63-4.38-5.63-4.38"/><line class="cls-2" x1="85.24" y1="265.91" x2="91.32" y2="272.54"/><ellipse class="cls-2" cx="72.99" cy="256.04" rx="38.94" ry="38.11"/></g></g></svg>