<svg xmlns="http://www.w3.org/2000/svg" xmlns:xlink="http://www.w3.org/1999/xlink" viewBox="0 0 241.45 307.89"><defs><style>.cls-1,.cls-4{fill:none;}.cls-2{clip-path:url(#clip-path);}.cls-3{fill:#fff;}.cls-4{stroke:#a3a19f;stroke-miterlimit:10;stroke-width:4px;stroke-dasharray:20.42 20.42;}.cls-5{font-size:57.04px;fill:#d3c1ab;font-family:BMJUAOTF-KSCpc-EUC-H, BM JUA_OTF;}</style><clipPath id="clip-path" transform="translate(-19.28 -54.82)"><rect class="cls-1" width="280" height="373.28"/></clipPath></defs><g id="Layer_2" data-name="Layer 2"><g id="Layer_1-2" data-name="Layer 1"><g class="cls-2"><path class="cls-3" d="M258.47,109.27C256.67,93,233.75,83,221.11,76.06c-17.18-9.43-36.32-14.94-55.68-17.5C127.37,53.53,85.09,59,52.28,80c-8.93,5.7-29.36,16.6-30.75,29.29-1.44,13,3.68,27.06,6.27,39.63C40,208.26,49.27,268.42,59.58,328.18c3.32,19.11,46.63,29,61.57,31.16a130.32,130.32,0,0,0,58.8-4.9c11.89-3.87,37.91-11.4,40.47-26.27C230.73,268.42,240,208.26,252.2,148.91,254.79,136.34,259.91,122.32,258.47,109.27Z" transform="translate(-19.28 -54.82)"/><path class="cls-4" d="M258.47,109.27C256.67,93,233.75,83,221.11,76.06c-17.18-9.43-36.32-14.94-55.68-17.5C127.37,53.53,85.09,59,52.28,80c-8.93,5.7-29.36,16.6-30.75,29.29-1.44,13,3.68,27.06,6.27,39.63C40,208.26,49.27,268.42,59.58,328.18c3.32,19.11,46.63,29,61.57,31.16a130.32,130.32,0,0,0,58.8-4.9c11.89-3.87,37.91-11.4,40.47-26.27C230.73,268.42,240,208.26,252.2,148.91,254.79,136.34,259.91,122.32,258.47,109.27Z" transform="translate(-19.28 -54.82)"/><text class="cls-5" transform="translate(104.64 151.45)">?</text></g></g></g></svg>