<svg xmlns="http://www.w3.org/2000/svg" viewBox="0 0 70.49 64.08"><defs><style>.cls-1,.cls-2{fill:#fff;stroke:#000;}.cls-1{stroke-linejoin:round;}.cls-2{stroke-miterlimit:10;}</style></defs><g id="Layer_2" data-name="Layer 2"><g id="Layer_1-2" data-name="Layer 1"><polygon class="cls-1" points="10.61 4.47 18.27 7.54 16.36 12.71 21.33 12.71 20.18 20.37 26.12 21.9 22.48 31.01 20.95 23.26 16.55 26.3 16.36 17.74 10.61 18.45 12.91 7.92 10.61 4.47"/><polygon class="cls-2" points="10.61 23.26 1.74 23.26 6.17 26.05 4.55 32.69 10.61 32.69 10.61 40.6 13.99 31.93 10.61 29.37 10.61 23.26"/><polygon class="cls-2" points="34.16 1.35 28.8 5.88 31.48 11.49 26.12 14.3 30.14 18.9 30.14 26.81 35.95 17.74 33.07 14.08 37.74 11.24 33.07 6.13 34.16 1.35"/><polygon class="cls-2" points="43.35 7.41 45.4 10.22 39.27 15.58 42.33 19.15 39.27 23.26 43.35 31.01 43.87 24.52 48.46 19.21 45.4 14.08 50.5 10.47 43.35 7.41"/><polygon class="cls-2" points="57.91 4.47 59.19 9.2 53.31 12.77 56.25 19.21 50.5 23.26 50.5 29.88 53.82 23.26 60.21 23.26 58.42 14.08 65.31 12 57.91 4.47"/><polygon class="cls-2" points="69.14 26.81 60.72 25.28 59.19 31.93 54.33 31.93 52.8 39.07 57.91 34.98 63.53 36.06 64.29 29.88 69.14 26.81"/><path class="cls-2" d="M42.08,34.73s-4.34-4.06-7.92-2.8a14.7,14.7,0,0,0-5.87,4.13s-5.36-3.55-8.17-2.19-1.75,8.52-1.75,8.52-4.12-.51-5.91,2,0,6.63,0,6.64c-.11-.27,15.89-2.57,17.05-2.62,8.34-.35,16.43.87,24.56,2.62,3.79.81,5.47-7.73,0-7.41a23.63,23.63,0,0,1-5.88-.24c.77.15,1.31-5.24,1.27-5.63-.25-2.81-4.59-3.32-4.59-3.32Z"/><path class="cls-2" d="M42,34.64C38.9,36.1,38.73,39,36.6,41.25c-2.45,2.59-3.66-.44-6.56-1.35a4.56,4.56,0,0,0-2-.28c-2.4.32-3.48,4.86-3.62,6.85"/><polyline class="cls-2" points="12.46 51.07 13.99 63.58 52.8 63.58 54.08 51.07"/></g></g></svg>