<svg xmlns="http://www.w3.org/2000/svg" viewBox="0 0 131.64 227.22"><defs><style>.cls-1,.cls-2{fill:#fffdde;}.cls-10,.cls-2,.cls-7,.cls-8,.cls-9{stroke:#232323;}.cls-10,.cls-2,.cls-3,.cls-7,.cls-8,.cls-9{stroke-miterlimit:10;}.cls-2,.cls-7,.cls-8,.cls-9{stroke-width:4px;}.cls-3,.cls-8{fill:none;}.cls-3{stroke:#16150d;stroke-width:2px;}.cls-4{fill:#16150d;}.cls-5{fill:#333;}.cls-6{fill:#4d4d4d;}.cls-7{fill:#fff;}.cls-9{fill:#fcfcfa;}.cls-10{fill:#494948;}</style></defs><g id="Layer_2" data-name="Layer 2"><g id="Layer_1-2" data-name="Layer 1"><rect class="cls-1" x="60.93" y="123.28" width="9.79" height="22.51" transform="translate(200.36 68.71) rotate(90)"/><path class="cls-2" d="M129.64,65.82A63.82,63.82,0,1,1,4,49.84a61.23,61.23,0,0,1,2-6.33,63.84,63.84,0,0,1,119.62,0,61.23,61.23,0,0,1,2,6.33A63.73,63.73,0,0,1,129.64,65.82Z"/><path class="cls-3" d="M57.79,89.39a11.36,11.36,0,0,0,16.06.14"/><path class="cls-4" d="M116.89,57.64l-46.23-2.1v2.1l-4.84-2-4.84,2v-2.1l-46.23,2.1c-3.7-.21-7.17-3.13-5.57-6.59,1.31-2.87,6.15-4.82,8.88-5.78,7-2.44,14.69-2.34,22-2,7.89.39,25.81,7.28,25.81,7.28s17.92-6.89,25.81-7.28c7.26-.35,15-.45,22,2,2.73,1,7.57,2.91,8.88,5.78C124.06,54.51,120.59,57.43,116.89,57.64Z"/><path class="cls-4" d="M61.65,53.31S58,45.92,44.85,44.08s-27,.46-29.79,4.61c-6.4,9.6-2.27,20.64,7.21,25.81,7.41,4,17.17,5.55,25.31,2.22C54.45,73.92,65.72,61.6,61.65,53.31Z"/><path class="cls-5" d="M45.82,74.06c-6.76,2.76-14.86,1.5-21-1.85A17.5,17.5,0,0,1,20,68.39a14,14,0,0,1-1.18-17.61c2-3,11.07-4.86,20.63-4.24,1.36.09,2.73.23,4.1.42,10.94,1.53,14,7.65,14,7.65C60.88,61.5,51.52,71.73,45.82,74.06Z"/><path class="cls-6" d="M39.45,46.54,20,68.39a14,14,0,0,1-1.18-17.61C20.83,47.77,29.89,45.92,39.45,46.54Z"/><path class="cls-4" d="M70,53.31s3.62-7.39,16.8-9.23,27,.46,29.79,4.61c6.4,9.6,2.27,20.64-7.21,25.81-7.41,4-17.17,5.55-25.31,2.22C77.19,73.92,65.92,61.6,70,53.31Z"/><path class="cls-5" d="M85.82,74.06c6.76,2.76,14.86,1.5,21-1.85a17.5,17.5,0,0,0,4.81-3.82,14,14,0,0,0,1.18-17.61c-2-3-11.07-4.86-20.63-4.24-1.36.09-2.73.23-4.1.42-10.94,1.53-14,7.65-14,7.65C70.76,61.5,80.12,71.73,85.82,74.06Z"/><path class="cls-6" d="M99,46.51,80.31,70.28c-4.56-4.23-8.57-10.79-6.17-15.67,0,0,3-6.12,14-7.65,1.37-.19,2.74-.33,4.1-.42A55.71,55.71,0,0,1,99,46.51Z"/><path class="cls-7" d="M129.26,177.84c0,7.19-1.17,15.27-5.92,21.09-5,6.09-12.6,8.16-20,8.24v18.05H27.89V207.17c-7.37-.08-15-2.15-20-8.24C3.17,193.11,2,185,2,177.84c0-7.76.36-16.48,3.45-23.74,2.78-6.52,8.58-11.2,15.3-13.77s13.78-3.19,20.79-3.7c8-.57,16.05-.79,24.09-.92,8,.13,16.07.35,24.09.92,7,.51,14.2,1.19,20.79,3.7s12.52,7.25,15.3,13.77C128.9,161.36,129.28,170.08,129.26,177.84Z"/><path class="cls-8" d="M27.89,175.68V164.11"/><path class="cls-8" d="M103.77,175.68V164.11"/><path class="cls-8" d="M22.23,178.68c8.28-6,18.86-9.65,28.81-12.08s20.77-3.43,31-1.36c1.5.3,5.51,1.24,6.17,2.81l.54,6.19c-1.79,2.15-5.41,3.82-7.72,5.41q-4,2.76-8.11,5.44c-7.14,4.7-14.57,9.33-22.12,13.52-7.06,3.92-14.62,8.34-22.91,8.56"/><path class="cls-2" d="M86.89,167c0,.1,5.56.95,6,1,6.8,1.37,8.77,4.37,10.9,10.53L88,175.68Z"/><path class="cls-9" d="M105,207.17c-15.35-.71-27.62-10.37-39.93-18.47"/><path class="cls-2" d="M30.21,172.81c.48-.18.41-4,.6-4.67,1.2-4.46,6.54-4.89,10.55-4.51a28.47,28.47,0,0,1,9.22,2.74C43.87,168.72,36.9,170.37,30.21,172.81Z"/><polygon class="cls-10" points="71.49 163.53 60.15 163.53 62.88 148.41 61.53 144.5 65.82 139.21 70.11 144.5 68.76 148.41 71.49 163.53"/><polygon class="cls-9" points="65.83 136.13 55.16 129.64 46.48 136.13 61.03 143.52 65.83 136.13"/><polygon class="cls-9" points="65.82 136.13 76.5 129.64 85.18 136.13 70.62 143.52 65.82 136.13"/></g></g></svg>