<svg xmlns="http://www.w3.org/2000/svg" viewBox="0 0 1374.92 837.83"><defs><style>.cls-1{fill:none;}</style></defs><g id="Layer_2" data-name="Layer 2"><g id="layout"><path class="cls-1" d="M169.35,371.25c-16.45,141.52,84.94,269.57,226.46,286,150.87,17.54,287.4-90.55,304.93-241.43C719.44,255,604.2,109.43,443.34,90.74,271.85,70.8,116.67,193.67,96.74,365.16,75.49,548,206.48,713.44,389.31,734.69c194.93,22.66,371.32-117,394-311.92C807.44,215,658.55,26.89,450.73,2.74,229.16-23,28.67,135.72,2.92,357.29c-27.46,236.22,141.78,450,378,477.42,251.84,29.27,479.73-151.16,509-403,0,0,2-34,38-35s447,1,447,1 "/></g></g></svg>