<svg xmlns="http://www.w3.org/2000/svg" viewBox="0 0 1859 837.83"><defs><style>.cls-1{fill:none;}</style></defs><g id="Layer_2" data-name="Layer 2"><g id="layout"><path class="cls-1" d="M653.43,371.25c-16.45,141.52,84.94,269.57,226.46,286,150.87,17.54,287.4-90.55,304.93-241.43,18.7-160.85-96.54-306.41-257.4-325.1C755.93,70.8,600.75,193.67,580.82,365.16,559.57,548,690.56,713.44,873.39,734.69c194.93,22.66,371.32-117,394-311.92C1291.52,215,1142.63,26.89,934.81,2.74,713.24-23,512.75,135.72,487,357.29c-27.45,236.22,141.78,450,378,477.42,251.84,29.27,479.73-151.16,509-403,0,0,2-34,38-35s447,1,447,1"/><rect class="cls-1" y="336.71" width="479" height="137"/></g></g></svg>