<svg xmlns="http://www.w3.org/2000/svg" viewBox="0 0 1875 701.07"><defs><style>.cls-1,.cls-2{fill:none;stroke-miterlimit:10;}.cls-1{stroke:#050000;}.cls-2{stroke:#000;}</style></defs><g id="Layer_2" data-name="Layer 2"><g id="layout"><rect class="cls-1" x="0.5" y="302.23" width="565" height="95"/><path class="cls-2" d="M1173.49,354c15.22-146.45-91.16-277.5-237.61-292.72-153.79-16-291.42,95.74-307.4,249.54C611.7,472.28,729,616.81,890.54,633.59c169.61,17.63,321.4-105.59,339-275.2,18.51-178.13-110.89-337.53-289-356C753.48-17.09,586.08,118.8,566.64,305.87c-20.41,196.45,122.3,372.25,318.75,392.66C1091.7,720,1276.32,570.1,1297.76,363.79c0,0-2.26-41.56,57.74-40.56s519.5,0,519.5,0"/></g></g></svg>