<svg xmlns="http://www.w3.org/2000/svg" viewBox="0 0 700 493"><defs><style>.cls-1,.cls-4{fill:#fff;}.cls-2{fill:#97c5d3;}.cls-3{fill:none;}.cls-3,.cls-4{stroke:#97c5d3;stroke-miterlimit:10;stroke-width:1.5px;}</style></defs><g id="Layer_2" data-name="Layer 2"><g id="layout"><rect class="cls-1" width="700" height="493"/><ellipse class="cls-2" cx="341.74" cy="345.43" rx="5" ry="5.02"/><polyline class="cls-3" points="386.88 352.47 372.95 354.85 383.63 363.35"/><ellipse class="cls-3" cx="360.61" cy="354.79" rx="46" ry="46.19"/><polygon class="cls-3" points="364.33 362.89 359.71 367.61 355.08 372.33 353.32 365.94 351.57 359.56 357.95 361.23 364.33 362.89"/><path class="cls-2" d="M328.1,299.12c.46,3.32-4,7.22-7.8,8.11a6.09,6.09,0,0,1-3.3-.13,1.25,1.25,0,0,1-.5-2.09,2.37,2.37,0,0,1,2.29-.88,4.52,4.52,0,0,0,2.47,0c2.29-.83,4-3,3.22-4.4-.67-1.14-1.8-1-3.27-.33s-3.2,1.95-4.95,2.56c-3.46,1.27-6-1.29-4.9-4.4a10.35,10.35,0,0,1,3.77-4.21c2.05-1.47,4.64-2.53,6.3-2.5,1.18,0,3,.62,2,1.91-.81,1.07-2.15.83-3.08.89a8.28,8.28,0,0,0-4,1.78c-1.38,1.11-2.14,2.51-1.29,3.44.61.66,1.88.1,2.88-.45a21,21,0,0,1,4.68-2.25,4.65,4.65,0,0,1,4.09.52A4.11,4.11,0,0,1,328.1,299.12Z"/><path class="cls-2" d="M340.84,286.11a8.67,8.67,0,0,1,2,6.41,6.93,6.93,0,0,1-.4,1.84,6.31,6.31,0,0,1-3,3.23,8.66,8.66,0,0,1-6.37.88,8.22,8.22,0,0,1-5.16-5.13,6.66,6.66,0,0,1,2.32-7.41C334.77,282.61,338.74,283.72,340.84,286.11ZM337.93,288c-1.29-1.5-3.26-2-5.62-.06a3.87,3.87,0,0,0-.87,4.27,5.74,5.74,0,0,0,2.87,3.63,4.06,4.06,0,0,0,3.44-.26,3.17,3.17,0,0,0,1.58-2.13,3.61,3.61,0,0,0,.15-1.14A6.76,6.76,0,0,0,337.93,288Z"/><path class="cls-2" d="M364.75,291.69c-1.33,3.06-6.84,3.95-10.23,2.62a5.7,5.7,0,0,1-2.49-1.93,1.27,1.27,0,0,1,.63-2,2.07,2.07,0,0,1,2.22.52,4.18,4.18,0,0,0,1.95,1.31c2.2.56,4.69-.34,4.74-2,0-1.32-.95-1.77-2.42-2-1.63-.29-3.49-.1-5.15-.54-3.31-.84-4-4.39-1.64-6.38a9,9,0,0,1,5-1.45c2.35-.12,4.93.36,6.24,1.28.95.62,2.1,2.13.66,2.7-1.2.47-2.14-.45-2.9-.9a7.42,7.42,0,0,0-4-.64c-1.64.18-2.92.94-2.72,2.18.15.89,1.42,1.12,2.48,1.19a18.84,18.84,0,0,1,4.81.64,4.46,4.46,0,0,1,3,2.62A4.36,4.36,0,0,1,364.75,291.69Z"/><path class="cls-2" d="M387.81,287c-.16.22-.34.46-.49.69l-.05.07c-1.11,1.42-2.49,3.09-3.55,4.51-.86,1.16-1.92,2.75-2.79,3.92a8.88,8.88,0,0,1-1,1.17,1.49,1.49,0,0,1-2.34,0,5.65,5.65,0,0,1-.78-2.46c-.12-.47-.34-3.22-.54-4a37.42,37.42,0,0,0-2.34,3.45c-.73,1-1.72,2.64-3.19,1.41a1.52,1.52,0,0,1-.53-.82,8.65,8.65,0,0,1-.24-1.19c-.09-.65-.14-1-.24-1.64-.2-1.4-.31-2.1-.55-3.5-.14-.89-.29-1.83-.51-2.85s-.26-1.8-.5-3.71a2.32,2.32,0,0,1,.06-.84.86.86,0,0,1,.47-.49,2.1,2.1,0,0,1,.82-.18,4.3,4.3,0,0,1,.73,0,1.78,1.78,0,0,1,.7.27,1.24,1.24,0,0,1,.36.33l.28.49c.05.2.11.37.14.54a3.16,3.16,0,0,1,.07.5c.1,1.49.38,3,.56,4.26.14,1,.22,3.33.42,4.25.67-1.13,1.39-2.29,2.22-3.42s1.66-2,2.93-1.25a3.06,3.06,0,0,1,1,1.93c.26,1.37.42,3.08.66,4,.41-.54,1.14-1.76,1.66-2.52.9-1.31,1.9-2.62,2.83-3.86l.25-.29c.11-.12.18-.26.3-.41A3.55,3.55,0,0,1,385,285a1.78,1.78,0,0,1,.45-.31,1.25,1.25,0,0,1,.5-.11,2,2,0,0,1,.72.08,4,4,0,0,1,.65.33,2.15,2.15,0,0,1,.69.56.86.86,0,0,1,.13.63A1.89,1.89,0,0,1,387.81,287Z"/><path class="cls-2" d="M393.2,290.31l-1.51,2.94,1,.48c1.31.65,2.22,1.14,3.44,1.87l.12.07,1.06.65a5.4,5.4,0,0,1,.95.81,1.65,1.65,0,0,1,.44.72.81.81,0,0,1-.11.66,2.28,2.28,0,0,1-.3.38.75.75,0,0,1-.52.17,1.11,1.11,0,0,1-.54-.09l-.64-.28a4.51,4.51,0,0,1-.66-.33l-1.07-.62c-1.69-1-2.55-1.42-4.3-2.27-.75,1.47-1.12,2.21-1.86,3.68,1.76.88,2.62,1.35,4.32,2.36l1,.59a6.52,6.52,0,0,1,.58.38,6.22,6.22,0,0,1,.51.45,1.67,1.67,0,0,1,.29.46,1,1,0,0,1,0,.55,1.76,1.76,0,0,1-.24.4,1,1,0,0,1-.53.38,1.62,1.62,0,0,1-.78-.05,4.38,4.38,0,0,1-1-.42l-1-.53-.12-.07c-1.08-.6-2.21-1.22-3.39-1.84a21.22,21.22,0,0,0-2.11-1,1.75,1.75,0,0,1-.75-.52.89.89,0,0,1-.21-.53.2.2,0,0,1,0-.15.83.83,0,0,1,0-.15,1.56,1.56,0,0,1,.09-.45c0-.11.06-.26.1-.41l.13-.31c0-.1.11-.2.15-.3.27-.6.4-.9.66-1.51.49-1.1.74-1.65,1.25-2.76s.66-1.54,1.11-2.56.7-1.56,1.09-2.4l.05-.09c.14-.26.27-.52.38-.75a1.63,1.63,0,0,1,.62-.63,1.31,1.31,0,0,1,.77-.21,2.16,2.16,0,0,1,.9.2l.31.16h0c1.27.59,1.35.62,2.8,1.34s2.57,1.35,3.86,2.13l.1.06,1.14.73a6.19,6.19,0,0,1,1,.84,1.86,1.86,0,0,1,.5.75.83.83,0,0,1-.1.64,1.54,1.54,0,0,1-.31.35.81.81,0,0,1-.53.18,2.53,2.53,0,0,1-.57-.12,5.51,5.51,0,0,1-.65-.31c-.25-.12-.48-.25-.73-.39-.43-.27-.65-.4-1.1-.66-2-1.15-3-1.69-5-2.68Z"/><path class="cls-2" d="M406.47,298.6l-2.08,2.57.86.68c1.18.92,2,1.6,3,2.58l.1.09c.33.3.64.59.93.88a5.76,5.76,0,0,1,.77,1,1.73,1.73,0,0,1,.29.82.83.83,0,0,1-.23.63,2.63,2.63,0,0,1-.38.3.74.74,0,0,1-.55.05,1,1,0,0,1-.51-.21c-.16-.1-.37-.25-.58-.4a6.06,6.06,0,0,1-.59-.47c-.37-.35-.56-.52-.93-.85-1.48-1.32-2.24-1.95-3.8-3.14-1,1.28-1.55,1.93-2.57,3.22,1.56,1.23,2.32,1.88,3.8,3.24l.87.8c.18.18.37.35.5.51a5.57,5.57,0,0,1,.41.55,1.58,1.58,0,0,1,.2.51.86.86,0,0,1-.08.55,1.91,1.91,0,0,1-.31.34,1,1,0,0,1-.61.26,1.55,1.55,0,0,1-.75-.21,4.75,4.75,0,0,1-.94-.64c-.27-.24-.57-.5-.85-.73l-.11-.1c-.95-.83-1.94-1.67-3-2.53a22.35,22.35,0,0,0-1.88-1.47,1.86,1.86,0,0,1-.64-.67.92.92,0,0,1-.1-.57.2.2,0,0,1,0-.14.86.86,0,0,0,0-.16,2.31,2.31,0,0,1,.18-.42,3.66,3.66,0,0,0,.18-.39c.08-.11.12-.16.19-.27s.16-.18.22-.26l.94-1.35,1.79-2.45,1.61-2.29c.58-.83,1-1.38,1.56-2.12l.06-.09c.19-.22.37-.45.53-.65a1.66,1.66,0,0,1,.73-.49,1.43,1.43,0,0,1,.8-.05,2.33,2.33,0,0,1,.85.39,2.3,2.3,0,0,1,.28.23v0c1.14.85,1.21.9,2.5,1.92s2.27,1.87,3.39,2.91l.09.08,1,1a6.76,6.76,0,0,1,.82,1.05,1.92,1.92,0,0,1,.34.85.78.78,0,0,1-.23.6,1.79,1.79,0,0,1-.37.29.87.87,0,0,1-.56.06,3,3,0,0,1-.54-.24c-.19-.12-.4-.31-.58-.45a6.64,6.64,0,0,1-.64-.55l-1-.89c-1.72-1.55-2.61-2.29-4.43-3.7Z"/><path class="cls-2" d="M426.1,318.9a1.75,1.75,0,0,1-.47.21.9.9,0,0,1-.58-.11,3.16,3.16,0,0,1-.51-.47c-.19-.2-.37-.43-.57-.68s-.33-.48-.5-.73c-.33-.52-.5-.77-.85-1.28l-1.21-1.71c-1.37,1.06-3.13,2.22-6.88,4.93l-1.3.94a1.71,1.71,0,0,0-.24.21,1,1,0,0,1-.28.17c-.12.06-.27.12-.41.2a1,1,0,0,1-.38.15,1.18,1.18,0,0,0-.16,0l-.15,0a1.14,1.14,0,0,1-.6-.15,2.45,2.45,0,0,1-.82-.92,1.34,1.34,0,0,1-.25-.63,1.13,1.13,0,0,1,.09-.49,1.93,1.93,0,0,1,.24-.41,2,2,0,0,1,.26-.31l8.44-6.78c-.3-.37-2.14-2.6-2.45-3-.14-.19-.51-.69-.66-.95a2.31,2.31,0,0,1-.37-1,.82.82,0,0,1,.22-.66,1.57,1.57,0,0,1,.4-.29.86.86,0,0,1,.63.06,4.21,4.21,0,0,1,.81.44,5.63,5.63,0,0,1,.7.59c.24.24.44.47.68.74.94,1.08,1.72,2,2.6,3.12a56.81,56.81,0,0,1,4.09,5.81,6.59,6.59,0,0,1,.64,1.41,2.56,2.56,0,0,1,.15,1A.76.76,0,0,1,426.1,318.9Z"/><path class="cls-2" d="M430.82,322.6a8.46,8.46,0,0,1,.56,1.25c.51,1.78-1.81,2.32-2.63,2.7l-5.62,2.63a3.74,3.74,0,0,1-1.57.52c-1.08-.06-2.2-2.43-1.64-3.3a4.1,4.1,0,0,1,.78-.64c.4-.26.89-.48,1.35-.73l6.2-3.36a2.06,2.06,0,0,1,1.38-.23A2.31,2.31,0,0,1,430.82,322.6Zm-12,8.39a1.29,1.29,0,0,1-1.88.11c-.56-.57-1.12-1.9-.63-2.54a1.73,1.73,0,0,1,1.2-.67c.46,0,.81.39,1.06.86a2.91,2.91,0,0,1,.52,1.82A1.26,1.26,0,0,1,418.81,331Z"/><path class="cls-3" d="M310.39,370.45c-.25,7.09-.59,16.79-.95,26.07l0,.84h0c-.2,5.07-.4,10-.6,14.23-.21,4.87-.42,8.88-.6,11.3-.88,11.95-8.21,4.26-8.21,4.26l-4-5.75L288,410h0l-6.45-9.19-2.28-3.25-13-18.53-1.59-2a47.86,47.86,0,0,1,5.35-3.73c5.65-2.83,8.56,3,14.34,3.14a9.26,9.26,0,0,0,4.66-1.23h0a13.16,13.16,0,0,0,2-1.38c1.68-1.39,2.47-2.8,3.51-3.64a3.7,3.7,0,0,1,3.16-.73c2.73.41,4.71,2.69,7.82,2.45A14.06,14.06,0,0,0,310.39,370.45Z"/><polyline class="cls-3" points="309.86 383.2 304.16 381.03 291.24 376.09 289.01 375.24"/><line class="cls-3" x1="267.11" y1="379.81" x2="309.5" y2="396.5"/><line class="cls-3" x1="281.38" y1="400.76" x2="308.99" y2="411.66"/><line class="cls-3" x1="279.1" y1="397.8" x2="294.91" y2="369.53"/><line class="cls-3" x1="295.91" y1="421.5" x2="309.5" y2="396.5"/><line class="cls-3" x1="287.91" y1="410.1" x2="308.72" y2="372.88"/><path class="cls-4" d="M311.54,371.51a14,14,0,0,1-5.06,1.8c-3.25.38-5.46-2-8.36-2.38a3.74,3.74,0,0,0-3.28.91c-1,1-1.79,2.52-3.47,4.1a13,13,0,0,1-2,1.58A9.35,9.35,0,0,1,284.5,379c-6.08,0-9.48-6.2-15.25-2.91a51.92,51.92,0,0,0-5.41,4.27c-2.27,1.83-4.8,3.63-7.43,2.69A18.67,18.67,0,0,1,245.3,372a12.73,12.73,0,0,1,2.14-11.89,29.47,29.47,0,0,1,4.69-4.24c.8-.62,2.37-1.4,2.9-2.26.34-.56.1-1-.1-1.6-.41-1.27-.82-2.55-1.22-3.82a43.91,43.91,0,0,1-2-6.69c-.9-6,1.2-13.18,5.64-17.51,7-6.84,17.79-16.51,37.37-4.38,5.31,3.29,7.38,11.14,7.74,17.47,3.05,0,6.5.54,8.33,3.51,1.7,2.74,1.5,6.21,1.23,9.42a8.13,8.13,0,0,1,7.29,3.56C323.6,359.94,317.82,368,311.54,371.51Z"/><path class="cls-2" d="M259.4,335.91s-1.4,1.16-.81,2,4.23,1.27,4.38.25,1.55-2.67-.23-3.05A4.63,4.63,0,0,0,259.4,335.91Z"/><path class="cls-2" d="M265.65,327.84c-.83.66-1.84,1.91-.65,2.42s2.78.22,2.49-1.49a2.61,2.61,0,0,0-.48-1.09.62.62,0,0,0-.3-.28.66.66,0,0,0-.51.08A3.36,3.36,0,0,0,265.65,327.84Z"/><path class="cls-2" d="M273.6,329.16c-1.06.08-2.6.54-1.91,1.64s2.18,1.74,2.91.17a2.79,2.79,0,0,0,.22-1.18.68.68,0,0,0-.1-.4.7.7,0,0,0-.47-.22A3.36,3.36,0,0,0,273.6,329.16Z"/></g></g></svg>