<svg xmlns="http://www.w3.org/2000/svg" viewBox="0 0 60.89 61.63"><defs><style>.cls-1{fill:#fff;stroke:#000;stroke-linejoin:round;}</style></defs><g id="Layer_2" data-name="Layer 2"><g id="Layer_1-2" data-name="Layer 1"><line class="cls-1" x1="34.66" y1="20.79" x2="39" y2="20.79"/><polygon class="cls-1" points="22.81 33.06 22.81 40.19 11.6 36.86 22.16 47.34 22.16 55.25 17.2 60.1 26.67 57.3 34.66 61.13 34.66 57.3 48.44 57.3 40.45 48.36 49.72 34.77 44.36 36.86 39 39.68 39 28.93 22.81 33.06"/><path class="cls-1" d="M13,20.79s-5.1-1.79-7.4,0a8.91,8.91,0,0,0-2.22,2.36,3.05,3.05,0,0,0-.42,2.27c.19.69.78,1.11,1.2,1.65L2,28.93a4.87,4.87,0,0,0-.88,6c1.48,2.68,4.54,2.44,7.17,2a3.75,3.75,0,0,0,0,5.37,4.71,4.71,0,0,0,7,0c1.28-1.27,0-3.32,0-3.32,1.76,1.09,5.57,1.8,6.93-.51,1.22-2.07.27-4.29-.55-6.5C20.36,28.44,13,20.79,13,20.79Z"/><path class="cls-1" d="M32.1,6.74l0,0C30.72,4.16,29,1.26,26.14.62a7.51,7.51,0,0,0-4.89.88A9.28,9.28,0,0,0,18.06,4c-1,1.31-1,2.55-1.28,4.12-.32,1.87-1.85,1.75-3.37,1.82a7.82,7.82,0,0,0-7,5.25A9.75,9.75,0,0,0,6.52,20c.61,2.47,1.41,3.76,3.88,4.52,3.26,1,1.94,4.7,2.27,7.21a5.86,5.86,0,0,0,2.2,3.81,5.33,5.33,0,0,0,5.32.83c1.59-.75,2.68-2.58,4.54-2.74,2.07-.18,3.28,1.81,5.15,2.22a4,4,0,0,0,2.56-.41c1.18-.59,2.05-1.66,3.32-2.07,1.84-.59,2.59.68,4.24,1.22,4.71,1.55,9.94-1.38,12-5.62a11.51,11.51,0,0,0,1.18-6.1c0-.52,0-5-2.33-5.68,0,0,3.42-2.39,1.56-7.6-1.56-4.34-6-1.86-8.09-6.13-1.28-2.55-6.64-4.34-9.45-.5Z"/><path class="cls-1" d="M25.46,11.85a2,2,0,0,1-1.78,2.55c-2.3.26-3.58-2.55-3.58-2.55"/><path class="cls-1" d="M31.34,11.85s-1.54,2.33,1.27,2.57a3.5,3.5,0,0,0,3.58-2.57"/><path class="cls-1" d="M25.51,27.87c2.06,2,5.29,1.66,7.53.29,2.52-1.53,3.49-4.59,3.79-7.37"/><path class="cls-1" d="M55.5,22.28A4.61,4.61,0,0,0,50,23.59c-.69,1.05-1.55-.06-2.19-.56a2.53,2.53,0,0,0-3.2,0c-2.13,1.48-3.33,4.3-.73,5.92,1,.62-1.13,2.15-1.47,2.64a7.61,7.61,0,0,0-1.09,4.8,3.37,3.37,0,0,0,1.48,2.57c.47.26,1,.37,1.48.61a3.77,3.77,0,0,1,1.7,2,3.88,3.88,0,0,0,3.27,2.55c2,.15,5.84-2.28,5.35-4.72-.25-1.27.77,2,3.32,1,2.11-.84,2.62-3.56,2.47-5.57-.2-2.79-2.32-4.34-5-4.64,4.28.48,3.65-4.59,1.71-6.84A4.24,4.24,0,0,0,55.5,22.28Z"/><line class="cls-1" x1="35.61" y1="20.4" x2="38.58" y2="20.98"/></g></g></svg>