<svg xmlns="http://www.w3.org/2000/svg" viewBox="0 0 66.86 66.91"><defs><style>.cls-1,.cls-3{fill:#fff;}.cls-1,.cls-2,.cls-3{stroke:#000;}.cls-1{stroke-linejoin:round;}.cls-2{fill:none;}.cls-2,.cls-3{stroke-miterlimit:10;}</style></defs><g id="Layer_2" data-name="Layer 2"><g id="Layer_1-2" data-name="Layer 1"><path class="cls-1" d="M36.68,13.27c-.9.14-.07-4.41-.09-4.84-.05-1.39.56-1.29-.91-1.54-.91-.16-2.06.67-3,.67-1.59,0-2.32-2.37-2.19-3.64.07-.71.9-1.31.57-2-.43-.84-3.16-.68-3.89-.55a2.86,2.86,0,0,0-1.53.66c-.69.65-1.09,2.61-2.28,2.63S20,1.18,18.77.5a3.32,3.32,0,0,1-2.21,2.88c-1.88.76-6.37.48-7.26-2C8.53.19,9.87,3,9.3,5.46,8.36,9.52,3.88,10.09.5,10.29c1.36-.08,3.09,1.46,3.86,2.45,2.87,3.72-1.83,6.84-3.65,9.57.41-.6,2.56-.41,3.11-.06,2,1.26,2.42,5.6,1.46,7.53-.48.95-1,1.89-1.43,2.85,1.32-2.69,6.39-1.88,8,0s1.27,4.65,1.09,6.9c.3-3.84,4.75-6.94,7.73-3.44.27.22,3.61-2.21,4-2.52-.4.31-1.71-4.69-1.76-5.1a14.06,14.06,0,0,1,.6-6.21C25.48,16.37,31,14.18,36.68,13.27Z"/><path class="cls-2" d="M32.08,14.27c-.37-2.73-4.32-4.09-6.66-4.28-4.66-.38-9.54,1.17-11.82,5.54-3.55,6.84,1.65,14.72,9.56,14.63"/><path class="cls-2" d="M22.29,25.36c-3.44.58-4.62-3.78-4.05-6.4a4.7,4.7,0,0,1,2.62-3.49c1.49-.66,5.41-1.11,5.84,1.06"/><path class="cls-3" d="M22.53,44.31a34.3,34.3,0,0,0,3.25,11.42c1.48,3.11,3.66,7.63,6.53,9.7,1.41,1,2.9.52,4-.59a98.8,98.8,0,0,0,7.79-8.32c.27-.33,3.81-4.94,3.45-5.3L34.93,40.88H25.72a17,17,0,0,0-2.26,0c-1.24.19-1.11.31-1.05,1.78C22.44,43.21,22.47,43.76,22.53,44.31Z"/><line class="cls-2" x1="26.7" y1="56.78" x2="38.05" y2="46.63"/><line class="cls-2" x1="46.01" y1="51.7" x2="29.67" y2="62.21"/><line class="cls-2" x1="29.16" y1="44.53" x2="39.97" y2="60.88"/><path class="cls-3" d="M52.53,54.68c2.83.92,3.92-3.07,4.45-5.08,1-3.73,1.18-7.64-2.11-10.07,2,1.5,3.16-5.35,3.23-6.35.37-4.92-2.22-9.63-5.8-12.85a26.48,26.48,0,0,0-12.11-5.86c-4.7-1-10.1-.94-13.71,2.23-4.68,4.1-4.38,11.51-2.41,17.41A22.22,22.22,0,0,0,17,41.2c-.93,1.5-1.67,3.43-.79,4.95S19.58,48,21.23,47a11.05,11.05,0,0,0,3.64-4.32,12,12,0,0,0,1.36,5,5.21,5.21,0,0,0,4.21,2.71,5.35,5.35,0,0,0,3.68-1.73A13.11,13.11,0,0,0,35.54,47c.18-.24-.18.2,0,0-.91,1,2.06,1.84,2.76,2,1.58.31,3.35-.12,4.72.73s1.75,2.52,1.75,4.07a28.43,28.43,0,0,0-.07,4.61,2.83,2.83,0,0,0,.83,1.71,2.75,2.75,0,0,0,2.66.31c2.35-.77,3.89-3.14,4.37-5.57s0-4.92-.28-7.38"/><path class="cls-2" d="M38,29.05a3.68,3.68,0,0,0-.34-.69c-1-1.45-5.07-2-6.54-1.29C25.7,29.8,38,40.87,38.2,30.93A5.41,5.41,0,0,0,38,29.05Z"/><path class="cls-2" d="M43.64,25.48a1.84,1.84,0,0,0-.25.23C41.17,28.06,45,33.43,47.6,31,51.46,27.43,48.84,21.29,43.64,25.48Z"/><path class="cls-2" d="M46,36.9c-2.66-2.78-6,.75-5.42,3.9C41.37,44.68,51.62,42.75,46,36.9Z"/><path class="cls-3" d="M17.15,51.7A5.3,5.3,0,0,0,13.7,57a5.76,5.76,0,0,0,2.57,4.89,5.12,5.12,0,0,0,3.2.46A1.89,1.89,0,0,0,21,59.56,20.44,20.44,0,0,0,18.59,56,8.43,8.43,0,0,1,17.15,51.7Z"/><path class="cls-3" d="M55.64,56.78a27.37,27.37,0,0,0-1.73,5.64c-.19,2,.2,3,1.73,3.76a2.58,2.58,0,0,0,3.64-2.13C59.28,62.33,55.64,56.78,55.64,56.78Z"/><polygon class="cls-2" points="44.17 4.88 44.17 11.78 47.59 11.78 48.74 3.73 44.17 4.88"/><path class="cls-2" d="M54.68,4.69c-.57,0-5.17,8.58-5.17,8.58L52.1,16,57.86,6.8Z"/><polygon class="cls-2" points="61 10.34 54.87 18.29 56.57 20.02 64.45 13.27 61 10.34"/><polygon class="cls-2" points="59.28 22.88 66.36 20.02 66.36 25.39 59.66 25.39 59.28 22.88"/></g></g></svg>