<svg xmlns="http://www.w3.org/2000/svg" viewBox="0 0 287.79 106.6"><defs><style>.cls-1{fill:#fff;stroke:#a56f20;stroke-miterlimit:10;}.cls-2{fill:#a56f20;}</style></defs><g id="Layer_2" data-name="Layer 2"><g id="layout"><path class="cls-1" d="M148.06,42.62h0a5.48,5.48,0,0,0,3.62,1.3h.18a8.45,8.45,0,0,0,3.94-1.06,5,5,0,0,1,1.41-.49,22.82,22.82,0,0,0,6.42-2.81,10.93,10.93,0,0,0,1.73-1.21c.24.37.5.75.79,1.12l.13.17.16.14a13,13,0,0,0,9.26,3.78,16.81,16.81,0,0,0,8.73-2.34l.11-.06.1-.08A8.86,8.86,0,0,0,188.39,36l.61-2.19-1.56-2.34c.4-.26.78-.54,1.16-.83A8,8,0,0,0,192,23.94v-.28a8.77,8.77,0,0,0-4.81-7.21,11.94,11.94,0,0,0-5.79-1.56h-1.19l-.25,0A19,19,0,0,0,169.76,20a5.43,5.43,0,0,0-.49-1,5.32,5.32,0,0,0-4.85-2.36h-.11v0a5.3,5.3,0,0,0-3.09-4.82l-.11,0a7,7,0,0,0-2.64-.59c-2.94,0-5.05,2.26-6.28,6.7h0l-1.54.19a8.77,8.77,0,0,0-2.53.5,5.49,5.49,0,0,0-3.36-1.19,4.67,4.67,0,0,0-2.12.51,12.74,12.74,0,0,0-3.68-.51,14.53,14.53,0,0,0-10.13,4.24c-.22.19-.43.41-.64.61,5.23-15.75,5.23-16,5.23-16.65a5.4,5.4,0,0,0-1-3.15,4.52,4.52,0,0,0-3.77-2,6.71,6.71,0,0,0-1.76.31v0a5.25,5.25,0,0,0-3.26,3.34c-.32.79-.52,1.32-.62,1.58h0c-2.12,5.29-4,10.33-5.5,15.08a11.14,11.14,0,0,0-4.17-3.93,13.52,13.52,0,0,0-4.76-1.51,5.08,5.08,0,0,0-2.71-.71,7,7,0,0,0-3.45.93,21.31,21.31,0,0,0-7.94,7.84,4.21,4.21,0,0,0,.2-1.27c0-1.77-1-3.33-3-4.62A10.08,10.08,0,0,0,86.05,16a11.83,11.83,0,0,0-3.08.43,18.09,18.09,0,0,0-9.22,6.25c-.11.12-.2.25-.3.37a10.67,10.67,0,0,0-5.18-6.18,13.53,13.53,0,0,0-4.75-1.51,5.15,5.15,0,0,0-2.72-.71,7,7,0,0,0-3.45.93,20.78,20.78,0,0,0-7.49,7.17,8.22,8.22,0,0,0-5.07-5.12l-.2-.07a8.6,8.6,0,0,0-2.32-.32,11.09,11.09,0,0,0-2.39.27,62.69,62.69,0,0,0,2-8.93l0-.17V8.26c0-5.46-3.66-5.74-4.4-5.74a4.4,4.4,0,0,0-3.45,1.67l-.14.16-.11.18a25.87,25.87,0,0,0-2.44,5.35,3.05,3.05,0,0,0-.13-.32l-.08-.18-.1-.16a7.79,7.79,0,0,0-6.48-3.75L23,5.42a20,20,0,0,0-12.94,4.67A26.19,26.19,0,0,0,1,25.15,23.34,23.34,0,0,0,.5,29.9a22.57,22.57,0,0,0,.36,4A12.5,12.5,0,0,0,5.91,42l.12.08a9.72,9.72,0,0,0,5.49,1.54A19,19,0,0,0,20.9,41c.47-.23.92-.49,1.36-.76a4.82,4.82,0,0,0,1.85,3.53A5.56,5.56,0,0,0,27.57,45a5.13,5.13,0,0,0,4.94-3.52l0-.12,0-.13q.11-.35.21-.6l.05-.11,0-.12c.28-.78.64-2,1.11-3.86l0-.13c.21-1,.46-1.93.75-2.86a10.6,10.6,0,0,1,5.12-5.36,24.34,24.34,0,0,1-1.14,4.16,11.43,11.43,0,0,0-.93,4.42A10.22,10.22,0,0,0,40,43l.12.17.15.14A5,5,0,0,0,43.92,45a5.27,5.27,0,0,0,4.7-2.89,5.89,5.89,0,0,0,.29-.63c.15.18.29.35.46.52l.13.13a9.55,9.55,0,0,0,6.64,2.66h.73a14.92,14.92,0,0,0,6.7-2.12,22.66,22.66,0,0,0,6.48-5.7,10.37,10.37,0,0,0,6.67,6.36l.09,0,.1,0a18.11,18.11,0,0,0,4.9.68,14.81,14.81,0,0,0,10.41-3.74l.09-.08c.14-.14.26-.29.39-.43A12.79,12.79,0,0,0,94.4,42l.13.13a9.55,9.55,0,0,0,6.64,2.66h.73a14.92,14.92,0,0,0,6.7-2.12,23.48,23.48,0,0,0,4.19-3.16s0,.1,0,.14v.23a7.57,7.57,0,0,0,1.85,5.06,5.83,5.83,0,0,0,4.47,2,4.23,4.23,0,0,0,4.6-4.24,5.06,5.06,0,0,0-.64-2.32l.38-1.45a8.41,8.41,0,0,0,4.7,4.47,11.07,11.07,0,0,0,4.21.85,11.34,11.34,0,0,0,3.27-.5,13.86,13.86,0,0,0,3.28-1.51,8.21,8.21,0,0,0,4.88,1.54A9.12,9.12,0,0,0,148.06,42.62ZM161.51,27l.74-.06a16.47,16.47,0,0,0,2.6-.2,17.53,17.53,0,0,0-1,3l0,.1c0,.17-.05.34-.08.51a5.29,5.29,0,0,0-.56,0,5.21,5.21,0,0,0-3,1C160.55,30,161,28.57,161.51,27ZM149,27.46c-.91,2.78-1.53,4.81-1.95,6.3a5.23,5.23,0,0,0-.73-.15,22,22,0,0,1,1.87-5.1l.06-.12c.16-.37.29-.7.43-1C148.77,27.4,148.87,27.44,149,27.46ZM13.36,33.57a4.14,4.14,0,0,1-1.19-.15,4.48,4.48,0,0,1-.5-1.67l0-.14A15,15,0,0,1,11.57,30a13.25,13.25,0,0,1,1.11-5.12,15.4,15.4,0,0,1,3.18-4.76,9.63,9.63,0,0,1,7.05-3.32l2.7.11,1.45-.07.14,0a5.53,5.53,0,0,0,2.06-.7c-.51,1.4-1.06,2.86-1.66,4.4-1.26,3.38-2.32,6.58-3.18,9.56l-.27,0a3.89,3.89,0,0,0-1.75.42l-.16.09A22.27,22.27,0,0,1,13.36,33.57Zm49.82-6,0,.09,0,.11a8.2,8.2,0,0,1-1.27,1.91A8.63,8.63,0,0,1,60,31.61a21.27,21.27,0,0,1-2.07,1.2,9,9,0,0,1,.9-2.21L60.46,28a17,17,0,0,1,1.61-2l.24-.27a1.47,1.47,0,0,1,1,.79A5.82,5.82,0,0,1,63.18,27.6Zm24.66,3.79-.12,0a11.57,11.57,0,0,0-3,1.14,7.25,7.25,0,0,1-3.14.7h-.1l-.09-.1H80.16l-.15,0a6.33,6.33,0,0,1,.17-1.26l.27-.64.22-.42v-.11a10.21,10.21,0,0,1,4.26-4.62,3.76,3.76,0,0,0,.68-.29c.23-.08.47-.15.73-.22a7,7,0,0,1,2.1.26,5.94,5.94,0,0,0,2.27.46,3.86,3.86,0,0,0,2.78-1.21l-.07.12a19.25,19.25,0,0,0-2.07,5.5,28.64,28.64,0,0,1-3.38.7Zm20.37-3.79,0,.09,0,.11a8.2,8.2,0,0,1-1.27,1.91,8.63,8.63,0,0,1-1.86,1.9,21.27,21.27,0,0,1-2.07,1.2,9,9,0,0,1,.9-2.21L105.49,28a17,17,0,0,1,1.61-2l.24-.27a1.47,1.47,0,0,1,1,.79A5.82,5.82,0,0,1,108.21,27.6Zm28.27.88-.08.18a11.42,11.42,0,0,1-2.65,3.76A15.37,15.37,0,0,1,135,29,4.4,4.4,0,0,1,137.21,27C137,27.52,136.73,28,136.48,28.48Z"/><path class="cls-1" d="M282.58,18.72a15,15,0,0,0-9-2.9A17.64,17.64,0,0,0,271,16a4.4,4.4,0,0,0-2.45-.72c-1.27,0-3.13.5-4.72,2.89l-.09.14L262.33,21c-.61,1.27-1.21,2.67-1.8,4.18.05-.32.11-.63.15-.93a13.61,13.61,0,0,0,.36-3,11.52,11.52,0,0,0-.34-2.79l0-.17-.07-.16a6.2,6.2,0,0,0-.51-1.07l.64.05h.12A6.34,6.34,0,0,0,262.4,17l.12,0,.13-.05a5.79,5.79,0,0,0,3.8-4,5.73,5.73,0,0,0,.29-1.75A5.48,5.48,0,0,0,265,7.23l-.12-.12L264.78,7a8.32,8.32,0,0,0-5.34-1.69c-3.86,0-6.85.67-9.14,2l-.19.11-.16.14a5.82,5.82,0,0,0-2.2,4.61,4.7,4.7,0,0,0,2.69,4.21l.17.08.17.07.64.22a7.35,7.35,0,0,0-.79,1.43l0,.13c-.07.18-.2.53-1.06,3.52a8.19,8.19,0,0,0-4.69-4.2l-.1,0-.1,0a8.6,8.6,0,0,0-2.32-.32,11.09,11.09,0,0,0-2.39.27,61.63,61.63,0,0,0,2-8.93l0-.17V8.26c0-5.46-3.67-5.74-4.4-5.74a4.4,4.4,0,0,0-3.46,1.67l-.13.16-.11.18a25.91,25.91,0,0,0-2.45,5.35,3.05,3.05,0,0,0-.13-.32l-.07-.18-.11-.16a7.76,7.76,0,0,0-6.48-3.75l-1.55,0a20,20,0,0,0-12.94,4.67A26.15,26.15,0,0,0,201,25.15a23.34,23.34,0,0,0-.48,4.75,22.57,22.57,0,0,0,.36,4,12.45,12.45,0,0,0,5,8.1l.12.09a9.75,9.75,0,0,0,5.5,1.54A19,19,0,0,0,221,41c.46-.23.91-.49,1.35-.76a4.83,4.83,0,0,0,1.86,3.53A5.53,5.53,0,0,0,227.61,45a5.12,5.12,0,0,0,4.94-3.52l0-.12,0-.13a3.48,3.48,0,0,1,.21-.6l0-.11,0-.12c.27-.77.63-2,1.1-3.86l0-.13a27.29,27.29,0,0,1,.75-2.86,10.54,10.54,0,0,1,5.11-5.36,23.44,23.44,0,0,1-1.13,4.16,11.45,11.45,0,0,0-.94,4.42A10.29,10.29,0,0,0,240.07,43l.13.17.15.14A5,5,0,0,0,244,45a5.25,5.25,0,0,0,4.69-2.89l.09-.19a6,6,0,0,0,2.88.75,5.42,5.42,0,0,0,4.3-2c-.63,3-1.14,6-1.48,8.91,0,.17-.06.37-.1.59a7.89,7.89,0,0,0-.15,1.15c0,.26,0,.55,0,.84a4.18,4.18,0,0,0-3.27-1.62,4.4,4.4,0,0,0-3.46,1.67l-.13.16-.11.18a25.56,25.56,0,0,0-2.78,6.41c-.85,2.71-2,5.82-3.31,9.29a4.92,4.92,0,0,0-4.8-3.84,5.18,5.18,0,0,0-3.25,1.13,10.21,10.21,0,0,0-3.79-.72,9.21,9.21,0,0,0-2.29.29,16.05,16.05,0,0,0-9.07,5.38c-.27.3-.52.6-.77.91a9.51,9.51,0,0,0,.48-2.59,4.94,4.94,0,0,0-2.52-4.32,4.17,4.17,0,0,0-2.24-.65,4.54,4.54,0,0,0-3.26,1.45l-.18.18-.15.2A14,14,0,0,0,207.21,70c-.52,1.36-1,2.78-1.43,4.2a19,19,0,0,1-4.56,5.8,16.31,16.31,0,0,1,.89-3.61,16.85,16.85,0,0,1,1-2.67l.08-.15a8.92,8.92,0,0,0,1-3.89,6.77,6.77,0,0,0-.36-2.14l0-.1,0-.1A5.09,5.09,0,0,0,198.94,64a6,6,0,0,0-4.73,2.26,13.29,13.29,0,0,0-1.62,2.58,11,11,0,0,0-4.19-4,13.53,13.53,0,0,0-4.75-1.51,5.15,5.15,0,0,0-2.72-.71,7,7,0,0,0-3.45.93,17.42,17.42,0,0,0-4,3,12.1,12.1,0,0,0-5.43-10l-.11-.08-.12-.07a16.06,16.06,0,0,0-5.66-2.05,5.67,5.67,0,0,0-2.42-3.12l-.1-.06-.1-.06a5.67,5.67,0,0,0-7.43,1.76L152,53a56.74,56.74,0,0,0-7.84,16.61,67.47,67.47,0,0,0-4,19.07v.18a4.23,4.23,0,0,0,4.4,4.45,4.4,4.4,0,0,0,4.24-2.78c7.08-1,12.88-3.75,17.32-8.15A11.34,11.34,0,0,0,169.5,90l.13.13a9.55,9.55,0,0,0,6.64,2.66H177a14.92,14.92,0,0,0,6.7-2.12,22.79,22.79,0,0,0,6.58-5.83,12,12,0,0,0,3.08,4.66,8.72,8.72,0,0,0,6,2.42,10,10,0,0,0,2.88-.44l.21-.06.19-.09a16.2,16.2,0,0,0,4-2.57,7.45,7.45,0,0,0,5.23,2.53h.26a5.27,5.27,0,0,0,4.22-1.86,9.72,9.72,0,0,0,.84.64l.18.13.2.1a12.52,12.52,0,0,0,4.3,1.28,16.7,16.7,0,0,1-3,3.08,13.59,13.59,0,0,1-1.65,1.09h0l-.19.07a3,3,0,0,1-1,.12,6,6,0,0,1-1.83-.47l0-.11-.41-.4a3.4,3.4,0,0,0-2.43-1h-.37l-1.59.4-.63.83a5.81,5.81,0,0,0-1.29,3.58,6.4,6.4,0,0,0,3.13,5.47l.08.06.1,0a13.84,13.84,0,0,0,6.78,1.77,16.82,16.82,0,0,0,4.65-.71,17.44,17.44,0,0,0,8.51-6,52.94,52.94,0,0,0,5.56-9.21,4.91,4.91,0,0,0,1.32,1.59A5.56,5.56,0,0,0,241,93a5.12,5.12,0,0,0,4.94-3.52l0-.12,0-.13a3.48,3.48,0,0,1,.21-.6l.05-.11,0-.12c.27-.77.63-2,1.11-3.86l0-.13c.21-1,.46-1.93.75-2.86a10.58,10.58,0,0,1,5.11-5.36,23.44,23.44,0,0,1-1.13,4.16,11.45,11.45,0,0,0-.94,4.42A10.23,10.23,0,0,0,253.43,91l.12.17.15.14A5,5,0,0,0,257.32,93,5.25,5.25,0,0,0,262,90.07a4.82,4.82,0,0,0,.64-2.39,5.34,5.34,0,0,0-.73-2.64,7.74,7.74,0,0,1,.45-1.69,30.19,30.19,0,0,0,1.4-6.79,13.5,13.5,0,0,0,.12-1.77c0-6.15-3.57-8.37-5.71-9.13l-.09,0-.1,0a8.62,8.62,0,0,0-2.33-.32,11.16,11.16,0,0,0-2.39.27,61.63,61.63,0,0,0,2-8.93l0-.17v-.18c0-.17,0-.33,0-.49a5.41,5.41,0,0,0,2.55,1.82,4.78,4.78,0,0,0,5.62-2.06l.12-.17.1-.19a20.07,20.07,0,0,0,1.86-5.52l1.79-6.77a23.33,23.33,0,0,0,16.46-6.47,11,11,0,0,0,3.51-8.17A11.23,11.23,0,0,0,282.58,18.72ZM213.4,33.57a4,4,0,0,1-1.18-.15,4.71,4.71,0,0,1-.51-1.67v-.14a12.81,12.81,0,0,1-.08-1.61,13.07,13.07,0,0,1,1.11-5.12,15.2,15.2,0,0,1,3.17-4.76,9.65,9.65,0,0,1,7-3.32l2.7.11,1.45-.07.14,0a5.53,5.53,0,0,0,2.06-.7c-.51,1.4-1.05,2.85-1.65,4.4-1.26,3.38-2.32,6.58-3.19,9.56a2.3,2.3,0,0,0-.26,0,3.83,3.83,0,0,0-1.75.42l-.09,0-.08,0A22.27,22.27,0,0,1,213.4,33.57ZM164,68.33a14.43,14.43,0,0,1-4.55,7.49,21.11,21.11,0,0,1-6.69,4.07c.71-2.18,1.47-4.39,2.3-6.64a74.28,74.28,0,0,1,4.08-9.85,8,8,0,0,1,4.22,1.28,3.48,3.48,0,0,1,.81,2.3A6.08,6.08,0,0,1,164,68.33Zm19.32,7.27,0,.09,0,.11A8.2,8.2,0,0,1,182,77.71a8.63,8.63,0,0,1-1.86,1.9,21.27,21.27,0,0,1-2.07,1.2,9,9,0,0,1,.9-2.21L180.59,76a17,17,0,0,1,1.61-2l.24-.27a1.47,1.47,0,0,1,1,.79A5.82,5.82,0,0,1,183.31,75.6ZM227.54,80l-.11.06a8.82,8.82,0,0,1-1.69.8H223.9a7.34,7.34,0,0,1,.7-1.61,7.65,7.65,0,0,1,.8-1.27h0l.26-.22.2-.26a9.6,9.6,0,0,1,3.2-2.61C228.6,76.65,228.09,78.36,227.54,80Zm49.23-50.65c-1.26,1.34-3.45,2.3-6.51,2.87.36-1.26.72-2.52,1.09-3.76A23,23,0,0,0,272.1,26a5.05,5.05,0,0,1,.75-.05,6.1,6.1,0,0,1,3.94,1.16,1.75,1.75,0,0,1,.51,1.17A1.46,1.46,0,0,1,276.77,29.39Z"/><path class="cls-1" d="M126.78,64.45A11.94,11.94,0,0,0,121,62.89H119.8l-.25,0a19.11,19.11,0,0,0-11.74,6.78c-.13.14-.26.29-.38.44,0-.28,0-.58,0-.85a11.53,11.53,0,0,0-.35-2.79l0-.17-.06-.16a6.24,6.24,0,0,0-.52-1.07l.64,0h.12a6.29,6.29,0,0,0,1.56-.19l.13,0,.12,0a5.81,5.81,0,0,0,3.81-4,5.71,5.71,0,0,0,.28-1.75,5.47,5.47,0,0,0-1.7-3.93l-.12-.12-.13-.11a8.34,8.34,0,0,0-5.34-1.69c-3.87,0-6.86.67-9.15,2l-.18.11-.17.14a5.82,5.82,0,0,0-2.2,4.61,4.51,4.51,0,0,0,1.46,3.33,5.16,5.16,0,0,0-1.8.44l-.15.07-.15.09a58.06,58.06,0,0,1-8.71,4.07c2-6.92,2.21-9.5,2.21-10.85a5.36,5.36,0,0,0-1.56-3.88A4.87,4.87,0,0,0,82,51.92a5.65,5.65,0,0,0-3.61,1.4l-.11.1-.1.1a4.94,4.94,0,0,0-1.49,3.11C75.66,61,74.42,65.5,73,70.12a10.77,10.77,0,0,0-4.83-5.22,13.52,13.52,0,0,0-4.76-1.51,5.1,5.1,0,0,0-2.72-.71,7.06,7.06,0,0,0-3.45.93,20.25,20.25,0,0,0-7,6.4A10.79,10.79,0,0,0,45.5,64.9a13.52,13.52,0,0,0-4.76-1.51A5.1,5.1,0,0,0,38,62.68a7.06,7.06,0,0,0-3.45.93c-3.4,1.77-6.41,5-8.95,9.57a19.58,19.58,0,0,0-1.94,4.93,3.89,3.89,0,0,0-1.28.36l-.16.09a22.27,22.27,0,0,1-8.88,3,4.14,4.14,0,0,1-1.19-.15,4.48,4.48,0,0,1-.5-1.67l0-.14A15,15,0,0,1,11.57,78a13.25,13.25,0,0,1,1.11-5.12,15.4,15.4,0,0,1,3.18-4.76,9.63,9.63,0,0,1,7.05-3.32l2.7.11,1.45-.07.14,0A5.33,5.33,0,0,0,31,62.41a4.74,4.74,0,0,0,.72-2.53,5.59,5.59,0,0,0-.53-2.32l-.08-.18-.1-.16a7.79,7.79,0,0,0-6.48-3.75l-1.56,0a20,20,0,0,0-12.94,4.67A26.19,26.19,0,0,0,1,73.15,23.34,23.34,0,0,0,.5,77.9a22.57,22.57,0,0,0,.36,4A12.5,12.5,0,0,0,5.91,90l.12.08a9.72,9.72,0,0,0,5.49,1.54A19,19,0,0,0,20.9,89a20.38,20.38,0,0,0,3.47-2.2A12.73,12.73,0,0,0,26.59,90l.13.13a9.57,9.57,0,0,0,6.64,2.66h.74a14.84,14.84,0,0,0,6.69-2.12,22.72,22.72,0,0,0,5.79-4.85A12.19,12.19,0,0,0,49.26,90l.13.13A9.57,9.57,0,0,0,56,92.75h.74a14.84,14.84,0,0,0,6.69-2.12A23.06,23.06,0,0,0,68.17,87,4.77,4.77,0,0,0,70,90.3l.09.07a5,5,0,0,0,3,1,5.54,5.54,0,0,0,3.11-1l.13-.09.12-.1a10.28,10.28,0,0,0,2.76-3.51A18.3,18.3,0,0,0,85.63,90a11.72,11.72,0,0,0,3.27.48,10.55,10.55,0,0,0,2-.18,4.41,4.41,0,0,0,2.7-1.66c.15.16.3.31.46.45a6.1,6.1,0,0,0,4,1.5,5.61,5.61,0,0,0,5.46-4l0-.12c.19-.61.37-1.21.55-1.81a12.41,12.41,0,0,0,1.68,2.78l.13.17.16.14a13,13,0,0,0,9.26,3.78,16.81,16.81,0,0,0,8.73-2.34l.11-.06.1-.08A8.88,8.88,0,0,0,128,84l.61-2.2-1.56-2.34c.4-.26.78-.54,1.16-.83a8,8,0,0,0,3.35-6.72v-.28A8.77,8.77,0,0,0,126.78,64.45ZM40.4,75.6l0,.09,0,.11a8.2,8.2,0,0,1-1.27,1.91,8.86,8.86,0,0,1-1.86,1.9,20,20,0,0,1-2.08,1.2,9.47,9.47,0,0,1,.91-2.21L37.69,76a15.75,15.75,0,0,1,1.6-2l.25-.27a1.5,1.5,0,0,1,1,.79A5.05,5.05,0,0,1,40.4,75.6Zm22.67,0,0,.09,0,.11a8.2,8.2,0,0,1-1.27,1.91,8.86,8.86,0,0,1-1.86,1.9,20,20,0,0,1-2.08,1.2,9.47,9.47,0,0,1,.91-2.21L60.36,76A15.75,15.75,0,0,1,62,74l.25-.27a1.5,1.5,0,0,1,1,.79A5.05,5.05,0,0,1,63.07,75.6Zm26.87,5.3h-.25l-.2,0a5.26,5.26,0,0,1-1-.33l-.1,0-.11,0a18.16,18.16,0,0,1-2.11-.78,10.91,10.91,0,0,1-1.3-1c1-.38,2.21-.83,3.5-1.34a35.45,35.45,0,0,0,6.2-2.64c-1,3.41-1.54,5.59-1.89,7A4.68,4.68,0,0,0,89.94,80.9Z"/><path class="cls-2" d="M11.52,40.61a6.84,6.84,0,0,1-3.83-1,9.56,9.56,0,0,1-3.88-6.22A19.52,19.52,0,0,1,3.5,29.9a20.91,20.91,0,0,1,.41-4.14A23.07,23.07,0,0,1,12,12.4a17,17,0,0,1,11-4l1.45.05a4.78,4.78,0,0,1,4,2.33,2.66,2.66,0,0,1,.26,1.08,1.77,1.77,0,0,1-.26.94,2.3,2.3,0,0,1-1.71,1l-1.19.05L23,13.8A12.54,12.54,0,0,0,13.7,18a17.94,17.94,0,0,0-3.78,5.67A16,16,0,0,0,8.57,30a16.8,16.8,0,0,0,.11,2,7.68,7.68,0,0,0,.93,3c.55,1,1.84,1.57,3.88,1.57a25.11,25.11,0,0,0,10.25-3.41.87.87,0,0,1,.41-.11c.52,0,.78.3.78.88a.81.81,0,0,1-.21.52,17.81,17.81,0,0,1-5.23,3.93A16,16,0,0,1,11.52,40.61Z"/><path class="cls-2" d="M27.57,42A2.56,2.56,0,0,1,26,41.44a1.88,1.88,0,0,1-.72-1.55,3.23,3.23,0,0,1,.1-.75,8.73,8.73,0,0,0,.16-1,31,31,0,0,1,.83-3.68,119.23,119.23,0,0,1,4.08-12.94q2.13-5.43,3.47-9.73a23.25,23.25,0,0,1,2.49-5.74,1.42,1.42,0,0,1,1.13-.57c.94,0,1.4.91,1.4,2.74q-.51,4.41-3.83,14.8,4.14-2.79,7.2-2.79a5.43,5.43,0,0,1,1.5.21c2.48.89,3.72,3,3.72,6.31a9.71,9.71,0,0,1-.1,1.4,28.35,28.35,0,0,1-1.24,6.16A8.69,8.69,0,0,0,45.53,37a2.86,2.86,0,0,0,.36,1.42,2.53,2.53,0,0,1,.36,1.22,1.82,1.82,0,0,1-.26.93A2.25,2.25,0,0,1,43.92,42a2.16,2.16,0,0,1-1.5-.73,7.26,7.26,0,0,1-1.6-4.45,8.5,8.5,0,0,1,.72-3.31A26.78,26.78,0,0,0,43,27.77a13,13,0,0,0,.1-1.81c0-.27-.05-.45-.05-.54a1.1,1.1,0,0,0-.1-.39.62.62,0,0,0-.52-.57,7.77,7.77,0,0,0-2.74.57A13.53,13.53,0,0,0,32,32.48a31.67,31.67,0,0,0-.88,3.32c-.45,1.72-.8,2.93-1,3.62a6.65,6.65,0,0,0-.36,1A2.12,2.12,0,0,1,27.57,42Z"/><path class="cls-2" d="M56.66,41.75h-.52a6.62,6.62,0,0,1-4.61-1.86,8.39,8.39,0,0,1-2.53-6,14.87,14.87,0,0,1,2-7.29q3.42-6.16,7.77-8.39a4,4,0,0,1,2-.57,1.83,1.83,0,0,1,1.55.62,10.46,10.46,0,0,1,4.5,1.24A7.87,7.87,0,0,1,71,27a10.28,10.28,0,0,1-1.29,4.86A19.67,19.67,0,0,1,62,40,12,12,0,0,1,56.66,41.75Zm.2-5.54c1,0,2.64-.71,4.82-2.12a11.52,11.52,0,0,0,2.58-2.59A9.27,9.27,0,0,0,66,28.55,8.82,8.82,0,0,0,66.28,26Q65.14,22.56,61,22.55a12.37,12.37,0,0,1-1.14,1.39A19.6,19.6,0,0,0,58,26.33l-1.71,2.74a12.07,12.07,0,0,0-1.55,4.76,2.38,2.38,0,0,0,1,2A4.12,4.12,0,0,0,56.86,36.21Z"/><path class="cls-2" d="M81.81,41a15.4,15.4,0,0,1-4.09-.56,7.33,7.33,0,0,1-5.33-7.15,15,15,0,0,1,3.67-8.69,15.15,15.15,0,0,1,7.77-5.28A8.31,8.31,0,0,1,86.05,19,7.14,7.14,0,0,1,90,20.09c1.1.71,1.65,1.41,1.65,2.09a1.45,1.45,0,0,1-.15.63,1,1,0,0,1-.78.46A3,3,0,0,1,89.52,23,10.47,10.47,0,0,0,86,22.55a12.33,12.33,0,0,0-1.71.51.7.7,0,0,1-.46.16,13.44,13.44,0,0,0-6,6.37s-.06,0-.08.13a.76.76,0,0,1-.08.2.31.31,0,0,0,0,.13A8,8,0,0,0,77,33.67a.25.25,0,0,1,0,.16.63.63,0,0,0,.08.28.84.84,0,0,1,.07.24,5.2,5.2,0,0,0,.37.62l.18.23a1.43,1.43,0,0,0,.54.39,3.68,3.68,0,0,0,1.81.57l.05.05,1.4,0a10.29,10.29,0,0,0,4.56-1,8.39,8.39,0,0,1,2.27-.88,29.55,29.55,0,0,0,3.78-.78c.24,0,.36.1.36.31L92,35.23a7.25,7.25,0,0,1-1.76,2.84A11.88,11.88,0,0,1,81.81,41Z"/><path class="cls-2" d="M101.68,41.75h-.51a6.62,6.62,0,0,1-4.61-1.86,8.4,8.4,0,0,1-2.54-6,14.88,14.88,0,0,1,2-7.29q3.42-6.16,7.77-8.39a3.94,3.94,0,0,1,2-.57,1.83,1.83,0,0,1,1.55.62,10.5,10.5,0,0,1,4.5,1.24A7.87,7.87,0,0,1,116.07,27a10.28,10.28,0,0,1-1.29,4.86A19.67,19.67,0,0,1,107.07,40,12,12,0,0,1,101.68,41.75Zm.21-5.54c1,0,2.64-.71,4.82-2.12a11.52,11.52,0,0,0,2.58-2.59,9.27,9.27,0,0,0,1.76-2.95,8.82,8.82,0,0,0,.26-2.59q-1.14-3.41-5.28-3.41a12.37,12.37,0,0,1-1.14,1.39A19.6,19.6,0,0,0,103,26.33l-1.71,2.74a12.07,12.07,0,0,0-1.55,4.76,2.38,2.38,0,0,0,1,2A4,4,0,0,0,101.89,36.21Z"/><path class="cls-2" d="M119.08,43.87a2.88,2.88,0,0,1-2.23-1,4.46,4.46,0,0,1-1.09-3.06,27.82,27.82,0,0,1,.93-5.28,197.6,197.6,0,0,1,9.06-27.69c0-.1.24-.62.62-1.57s.88-1.5,1.5-1.63l-.25,0a5.17,5.17,0,0,1,1-.21,1.53,1.53,0,0,1,1.32.7,2.44,2.44,0,0,1,.49,1.42q0,.42-5.43,16.77-2.81,8.59-4,13.92l-1,3.94a2.57,2.57,0,0,0,.25,1.14,2.93,2.93,0,0,1,.47,1.24C120.68,43.46,120.14,43.87,119.08,43.87Z"/><path class="cls-2" d="M132.33,41.18a8,8,0,0,1-3.06-.62q-3.78-1.45-3.78-6.52a10.76,10.76,0,0,1,1-4.51,17.19,17.19,0,0,1,4.34-5.64A11.61,11.61,0,0,1,139,20.42a8.85,8.85,0,0,1,4.19.94,2,2,0,0,1,1.61-.94,2.57,2.57,0,0,1,1.86.83,2,2,0,0,1,.47,1.25,17.93,17.93,0,0,1-1.61,4.71,21.92,21.92,0,0,0-2.28,6.88l-.1,1.19a1.81,1.81,0,0,0,.18.72c.12.28,1,.47,2.56.57a2,2,0,0,1,1.35.68,1.92,1.92,0,0,1,.47,1.24,1.54,1.54,0,0,1-.94,1.45,6.13,6.13,0,0,1-3,.77,5.63,5.63,0,0,1-4.71-2.58,9.72,9.72,0,0,1-4.34,2.69A8.23,8.23,0,0,1,132.33,41.18Zm-.16-4.76a3.16,3.16,0,0,0,1.29-.31,6.87,6.87,0,0,0,1.71-.93,14.79,14.79,0,0,0,4-5.34Q140.6,27,141.8,24.2a8.83,8.83,0,0,0-2.8-.46,7.28,7.28,0,0,0-6.62,3.78,16.9,16.9,0,0,0-1.92,6.93,8.7,8.7,0,0,0,.11,1A1.64,1.64,0,0,0,132.17,36.42Z"/><path class="cls-2" d="M151.68,40.92a2.39,2.39,0,0,1-2.07-1,3.6,3.6,0,0,1-.52-1.82q.16-2,4-13.45c-.55,0-1.14.05-1.76.05a10.09,10.09,0,0,1-1.76-.16,1.62,1.62,0,0,1-1.5-1.76q0-1.5,2.85-1.65l3.46-.42.68-1.86c.83-3.07,2-4.61,3.41-4.61a3.89,3.89,0,0,1,1.5.37,2.42,2.42,0,0,1,1.35,2.27,8.63,8.63,0,0,1-.67,3.21q2.9-.36,3.78-.36a2.46,2.46,0,0,1,2.32,1,1.84,1.84,0,0,1,.37,1.09q0,2.18-5,2.17l-2.8.21-.41,1.09c-1.66,5.17-2.9,8.94-3.73,11.28a12.72,12.72,0,0,0,3.47-1.14,13.24,13.24,0,0,0,3-1.45,2.57,2.57,0,0,1,1.55-.67,1.15,1.15,0,0,1,1.19,1.19c0,.83-.76,1.67-2.27,2.54a20.07,20.07,0,0,1-5.65,2.48,7.55,7.55,0,0,0-2.2.83A5.76,5.76,0,0,1,151.68,40.92Z"/><path class="cls-2" d="M175.7,40.56a10.12,10.12,0,0,1-7.2-3,8.31,8.31,0,0,1-2-5.23,10.21,10.21,0,0,1,.2-2,15.11,15.11,0,0,1,3.68-6.72,16.06,16.06,0,0,1,10-5.8h.93a9,9,0,0,1,4.35,1.19A5.82,5.82,0,0,1,189,23.94a5,5,0,0,1-2.12,4.3,13.23,13.23,0,0,1-5.18,2.48,18,18,0,0,1-5.69.94,19.18,19.18,0,0,1-4.71-.62l-.21.88c0,.37,0,.56,0,.56l-.11-.25c.18.76.28,1.19.32,1.29a1,1,0,0,1,.05.21,3.64,3.64,0,0,0,.41.62l.54.46c.09.07.13.12.13.16a6,6,0,0,0,3.58,1.14,16.67,16.67,0,0,0,4.55-.88,16.11,16.11,0,0,1,3.93-.88,4.87,4.87,0,0,0,1.25-.16l.1.16-.26.93a5.93,5.93,0,0,1-2.59,3.36A13.75,13.75,0,0,1,175.7,40.56Zm-2.59-13,.41-.11q8.34-.68,10.87-3.21a.49.49,0,0,1-.1-.13,1.72,1.72,0,0,0-.16-.2.8.8,0,0,1-.12-.21,2.2,2.2,0,0,0-.29-.36c-.17-.19-.31-.29-.41-.29a3.71,3.71,0,0,0-1.45-.51.8.8,0,0,0-.42-.06,8.55,8.55,0,0,0-3.88,1.19A13.62,13.62,0,0,0,173.11,27.52Z"/><path class="cls-2" d="M211.57,40.61a6.82,6.82,0,0,1-3.83-1,9.58,9.58,0,0,1-3.89-6.22,20.5,20.5,0,0,1-.31-3.46,20.19,20.19,0,0,1,.42-4.14A23.11,23.11,0,0,1,212,12.4a17,17,0,0,1,11-4l1.45.05a4.76,4.76,0,0,1,4,2.33,2.51,2.51,0,0,1,.26,1.08,1.69,1.69,0,0,1-.26.94,2.3,2.3,0,0,1-1.71,1l-1.19.05L223,13.8A12.56,12.56,0,0,0,213.74,18,18.28,18.28,0,0,0,210,23.71,16,16,0,0,0,208.62,30a16.93,16.93,0,0,0,.1,2,7.85,7.85,0,0,0,.93,3c.55,1,1.85,1.57,3.88,1.57a25.06,25.06,0,0,0,10.25-3.41.94.94,0,0,1,.42-.11c.51,0,.77.3.77.88a.81.81,0,0,1-.21.52,17.76,17.76,0,0,1-5.22,3.93A16,16,0,0,1,211.57,40.61Z"/><path class="cls-2" d="M227.61,42a2.51,2.51,0,0,1-1.6-.57,1.86,1.86,0,0,1-.73-1.55,3.31,3.31,0,0,1,.11-.75,8.79,8.79,0,0,0,.15-1,33.24,33.24,0,0,1,.83-3.68,119.46,119.46,0,0,1,4.09-12.94q2.11-5.43,3.47-9.73a22.86,22.86,0,0,1,2.48-5.74,1.42,1.42,0,0,1,1.14-.57c.93,0,1.4.91,1.4,2.74q-.52,4.41-3.83,14.8c2.76-1.86,5.15-2.79,7.19-2.79a5.33,5.33,0,0,1,1.5.21c2.49.89,3.73,3,3.73,6.31a9.76,9.76,0,0,1-.11,1.4,27.77,27.77,0,0,1-1.24,6.16,9,9,0,0,0-.62,2.69,2.86,2.86,0,0,0,.36,1.42,2.55,2.55,0,0,1,.37,1.22,1.93,1.93,0,0,1-.26.93A2.27,2.27,0,0,1,244,42a2.14,2.14,0,0,1-1.5-.73,7.27,7.27,0,0,1-1.61-4.45,8.34,8.34,0,0,1,.73-3.31,26.78,26.78,0,0,0,1.45-5.7,14.72,14.72,0,0,0,.1-1.81,4,4,0,0,1,0-.54A1.17,1.17,0,0,0,243,25q-.1-.51-.51-.57a7.82,7.82,0,0,0-2.75.57A13.53,13.53,0,0,0,232,32.48a34.33,34.33,0,0,0-.88,3.32c-.45,1.72-.79,2.93-1,3.62a7.85,7.85,0,0,0-.37,1A2.11,2.11,0,0,1,227.61,42Z"/><path class="cls-2" d="M251.63,39.63a3.07,3.07,0,0,1-2-.78,2.65,2.65,0,0,1-.9-2.12q0-1,3.72-14c.56-1.93.88-3,1-3.31.51-1.21,1.2-1.81,2.07-1.81a2.31,2.31,0,0,1,2.33,1.65A8.68,8.68,0,0,1,258,21.3a11.21,11.21,0,0,1-.31,2.44,99.87,99.87,0,0,1-3.46,13.87A2.68,2.68,0,0,1,251.63,39.63Zm3.62-25.26a9.8,9.8,0,0,1-3.42-.62,1.73,1.73,0,0,1-1.08-1.55,2.79,2.79,0,0,1,1.08-2.28,15,15,0,0,1,7.61-1.61,5.39,5.39,0,0,1,3.47,1,2.52,2.52,0,0,1,.83,1.81,2.61,2.61,0,0,1-.16.88,2.82,2.82,0,0,1-1.91,2,3.37,3.37,0,0,1-.83.1l-.62-.05c-1.45,0-2.59,0-3.42.1A7.35,7.35,0,0,1,255.25,14.37Z"/><path class="cls-2" d="M259.39,54.84a1.91,1.91,0,0,1-.62-.1,2.28,2.28,0,0,1-1.6-2.38c0-.31,0-.6,0-.86s.05-.52.1-.8.1-.51.13-.72a92.9,92.9,0,0,1,2.64-13.72,85.4,85.4,0,0,1,5-13.92l1.3-2.48a2.82,2.82,0,0,1,2.22-1.56,1.59,1.59,0,0,1,1.45,1,14.73,14.73,0,0,1,3.57-.47,12.07,12.07,0,0,1,7.25,2.33,8.21,8.21,0,0,1,3.47,7.09,8,8,0,0,1-2.59,6,20.44,20.44,0,0,1-14.8,5.65L265,39.78,262.6,49a17.57,17.57,0,0,1-1.6,4.81A2,2,0,0,1,259.39,54.84Zm7.3-19.25a22.48,22.48,0,0,0,4-.36q5.64-1,8.23-3.78a4.41,4.41,0,0,0,1.34-3.21,4.89,4.89,0,0,0-1.4-3.31,8.88,8.88,0,0,0-6-2,12.52,12.52,0,0,0-3.16.47v.1l-.36,1.14a23.52,23.52,0,0,1-.83,2.95c-.79,2.65-1.55,5.33-2.28,8Z"/><path class="cls-2" d="M11.52,88.61a6.84,6.84,0,0,1-3.83-1,9.56,9.56,0,0,1-3.88-6.22A19.52,19.52,0,0,1,3.5,77.9a20.91,20.91,0,0,1,.41-4.14A23.07,23.07,0,0,1,12,60.4a17,17,0,0,1,11-4l1.45,0a4.78,4.78,0,0,1,4,2.33,2.66,2.66,0,0,1,.26,1.08,1.77,1.77,0,0,1-.26.94,2.3,2.3,0,0,1-1.71,1l-1.19,0L23,61.8A12.54,12.54,0,0,0,13.7,66a17.94,17.94,0,0,0-3.78,5.67A16,16,0,0,0,8.57,78a16.8,16.8,0,0,0,.11,2,7.68,7.68,0,0,0,.93,3c.55,1,1.84,1.57,3.88,1.57a25.11,25.11,0,0,0,10.25-3.41.87.87,0,0,1,.41-.11c.52,0,.78.3.78.88a.81.81,0,0,1-.21.52,17.81,17.81,0,0,1-5.23,3.93A16,16,0,0,1,11.52,88.61Z"/><path class="cls-2" d="M33.88,89.75h-.52a6.59,6.59,0,0,1-4.6-1.86,8.4,8.4,0,0,1-2.54-6,14.77,14.77,0,0,1,2-7.29q3.42-6.17,7.76-8.39a4,4,0,0,1,2-.57,1.85,1.85,0,0,1,1.56.62,10.53,10.53,0,0,1,4.5,1.24A7.89,7.89,0,0,1,48.27,75,10.28,10.28,0,0,1,47,79.81,19.63,19.63,0,0,1,39.26,88,11.92,11.92,0,0,1,33.88,89.75Zm.21-5.54c1,0,2.64-.71,4.81-2.12a11.55,11.55,0,0,0,2.59-2.59,9.27,9.27,0,0,0,1.76-3A9.18,9.18,0,0,0,43.51,74q-1.14-3.4-5.28-3.41a15,15,0,0,1-1.14,1.39,17.83,17.83,0,0,0-1.91,2.39l-1.71,2.74a11.91,11.91,0,0,0-1.55,4.76,2.35,2.35,0,0,0,1,2A4,4,0,0,0,34.09,84.21Z"/><path class="cls-2" d="M56.55,89.75H56a6.59,6.59,0,0,1-4.6-1.86,8.4,8.4,0,0,1-2.54-6,14.77,14.77,0,0,1,2-7.29q3.42-6.17,7.76-8.39a4,4,0,0,1,2-.57,1.85,1.85,0,0,1,1.56.62,10.53,10.53,0,0,1,4.5,1.24A7.89,7.89,0,0,1,70.94,75a10.28,10.28,0,0,1-1.29,4.86A19.63,19.63,0,0,1,61.93,88,11.92,11.92,0,0,1,56.55,89.75Zm.21-5.54c1,0,2.64-.71,4.81-2.12a11.55,11.55,0,0,0,2.59-2.59,9.27,9.27,0,0,0,1.76-3A9.18,9.18,0,0,0,66.18,74Q65,70.56,60.9,70.55a15,15,0,0,1-1.14,1.39,17.83,17.83,0,0,0-1.91,2.39l-1.71,2.74a12.09,12.09,0,0,0-1.56,4.76,2.36,2.36,0,0,0,1,2A4,4,0,0,0,56.76,84.21Z"/><path class="cls-2" d="M73.06,88.35a2,2,0,0,1-1.19-.41,1.77,1.77,0,0,1-.72-1.45,3,3,0,0,1,.2-1c.14-.36.49-1.58,1-3.65l1.24-3.93a199.32,199.32,0,0,0,6-20.86,1.9,1.9,0,0,1,.62-1.4,2.7,2.7,0,0,1,1.7-.72,2,2,0,0,1,1.4.67A2.37,2.37,0,0,1,84,57.35q0,3.26-3.27,14l-.46,1.55a71.86,71.86,0,0,0,14.75-6.21,2.13,2.13,0,0,1,.88-.21,1.9,1.9,0,0,1,1.86,1.81,1.67,1.67,0,0,1-.57,1.19,32.13,32.13,0,0,1-9.88,5.07Q82.54,76.5,80,77.22a13.38,13.38,0,0,0,4.71,5.13,18.39,18.39,0,0,0,2.69,1,6.38,6.38,0,0,0,2.27.57l.32,0a1.67,1.67,0,0,1,1.24.54,1.83,1.83,0,0,1,.52,1.27,2.28,2.28,0,0,1-.39,1.06,1.49,1.49,0,0,1-1,.62,6.93,6.93,0,0,1-1.42.13,8.73,8.73,0,0,1-2.43-.36A16.18,16.18,0,0,1,77.93,81a30.09,30.09,0,0,1-1.19,3.78,7.5,7.5,0,0,1-2.23,3.1A2.62,2.62,0,0,1,73.06,88.35Z"/><path class="cls-2" d="M98.06,87.63a3,3,0,0,1-2-.78,2.63,2.63,0,0,1-.91-2.12q0-1,3.73-14c.55-1.93.88-3,1-3.31.52-1.21,1.21-1.81,2.07-1.81a2.31,2.31,0,0,1,2.33,1.65,8.7,8.7,0,0,1,.26,2.07,11.21,11.21,0,0,1-.31,2.44,100.13,100.13,0,0,1-3.47,13.87A2.66,2.66,0,0,1,98.06,87.63Zm3.62-25.26a9.71,9.71,0,0,1-3.41-.62,1.72,1.72,0,0,1-1.09-1.55,2.77,2.77,0,0,1,1.09-2.28,14.93,14.93,0,0,1,7.61-1.61,5.37,5.37,0,0,1,3.46,1,2.48,2.48,0,0,1,.83,1.81,3.2,3.2,0,0,1-2.07,2.9,3.31,3.31,0,0,1-.83.1l-.62,0c-1.45,0-2.58,0-3.41.1A7.51,7.51,0,0,1,101.68,62.37Z"/><path class="cls-2" d="M115.35,88.56a10.12,10.12,0,0,1-7.2-3,8.31,8.31,0,0,1-2-5.23,10.21,10.21,0,0,1,.2-2,15.11,15.11,0,0,1,3.68-6.72,16.06,16.06,0,0,1,10-5.8H121a9,9,0,0,1,4.35,1.19,5.82,5.82,0,0,1,3.26,4.86,5,5,0,0,1-2.12,4.3,13.23,13.23,0,0,1-5.18,2.48,18,18,0,0,1-5.69.94A19.18,19.18,0,0,1,110.9,79l-.21.88c0,.37,0,.56,0,.56l-.1-.25c.17.76.27,1.19.31,1.29a1,1,0,0,1,.05.21,3.64,3.64,0,0,0,.41.62l.54.46c.09.07.13.12.13.16a6,6,0,0,0,3.58,1.14,16.67,16.67,0,0,0,4.55-.88,16.11,16.11,0,0,1,3.93-.88,4.87,4.87,0,0,0,1.25-.16l.1.16-.26.93a5.93,5.93,0,0,1-2.59,3.36A13.72,13.72,0,0,1,115.35,88.56Zm-2.59-13,.41-.11q8.34-.68,10.87-3.21a.49.49,0,0,1-.1-.13l-.15-.2a.66.66,0,0,1-.13-.21,2.2,2.2,0,0,0-.29-.36c-.17-.19-.31-.29-.41-.29a3.71,3.71,0,0,0-1.45-.51.8.8,0,0,0-.42-.06,8.58,8.58,0,0,0-3.88,1.19A13.62,13.62,0,0,0,112.76,75.52Z"/><path class="cls-2" d="M144.59,90.32a1.26,1.26,0,0,1-1.4-1.45A64.37,64.37,0,0,1,147,70.55a53.75,53.75,0,0,1,7.46-15.84,2.86,2.86,0,0,1,2.33-1.29,2.75,2.75,0,0,1,1.29.36,2.62,2.62,0,0,1,1.29,2.33,2.69,2.69,0,0,1-.2,1h.15A13.44,13.44,0,0,1,166.28,59a9.11,9.11,0,0,1,4.19,7.67,16.52,16.52,0,0,1-2.9,9.21q-6.78,10.5-20.91,11.9l-.57,1.5A1.39,1.39,0,0,1,144.59,90.32ZM148,84.16a21.57,21.57,0,0,0,4-.88,23.72,23.72,0,0,0,9.4-5.23,17.34,17.34,0,0,0,5.46-9,9.16,9.16,0,0,0,.26-2.07,6.51,6.51,0,0,0-1.71-4.46c-1.69-1.44-4.26-2.17-7.71-2.17h-.42a78.54,78.54,0,0,0-5.12,12c-1,2.72-1.93,5.45-2.79,8.17Z"/><path class="cls-2" d="M176.79,89.75h-.52a6.62,6.62,0,0,1-4.61-1.86,8.4,8.4,0,0,1-2.54-6,14.88,14.88,0,0,1,2-7.29q3.42-6.17,7.77-8.39a4,4,0,0,1,2-.57,1.83,1.83,0,0,1,1.55.62,10.46,10.46,0,0,1,4.5,1.24A7.87,7.87,0,0,1,191.17,75a10.28,10.28,0,0,1-1.29,4.86A19.67,19.67,0,0,1,182.17,88,12,12,0,0,1,176.79,89.75Zm.2-5.54c1,0,2.64-.71,4.82-2.12a11.52,11.52,0,0,0,2.58-2.59,9.27,9.27,0,0,0,1.76-3,8.82,8.82,0,0,0,.26-2.59q-1.14-3.4-5.28-3.41A12.37,12.37,0,0,1,180,71.94a19.6,19.6,0,0,0-1.91,2.39l-1.71,2.74a12.07,12.07,0,0,0-1.55,4.76,2.38,2.38,0,0,0,1,2A4.12,4.12,0,0,0,177,84.21Z"/><path class="cls-2" d="M199.4,88.87a5.63,5.63,0,0,1-4-1.61,9.13,9.13,0,0,1-2.9-6.93,16.67,16.67,0,0,1,1.09-6,21,21,0,0,1,2.89-6.16A3,3,0,0,1,198.94,67a2.14,2.14,0,0,1,2.07,1.5,3.67,3.67,0,0,1,.2,1.19,6.21,6.21,0,0,1-.72,2.59,19.65,19.65,0,0,0-1.24,3.21,16.92,16.92,0,0,0-1,4.71l0,.82a2.48,2.48,0,0,0,.63,1.56,2.33,2.33,0,0,0,1.7,1.14,1.21,1.21,0,0,0,.68-.21c2.58-1.28,5-4,7.29-8.13.45-1.52.95-3,1.51-4.45a10.79,10.79,0,0,1,1.65-3.57,1.64,1.64,0,0,1,1.14-.57,1.16,1.16,0,0,1,.67.21,1.92,1.92,0,0,1,1.09,1.76,10.38,10.38,0,0,1-.57,2.43A38.61,38.61,0,0,0,212.5,81a8,8,0,0,0,.36,2.59,2.18,2.18,0,0,1,1.45,1.14,2.4,2.4,0,0,1,.31,1.19,2.28,2.28,0,0,1-2.48,2.38q-4.24-.36-4.51-5.44a13.68,13.68,0,0,1-6.21,5.75A6.89,6.89,0,0,1,199.4,88.87Z"/><path class="cls-2" d="M217.47,103.1a10.88,10.88,0,0,1-5.33-1.39,3.4,3.4,0,0,1-1.76-3,2.85,2.85,0,0,1,.67-1.75l.21-.06a.43.43,0,0,1,.31.11,3.39,3.39,0,0,0,1.08,1,10,10,0,0,0,3.32.83A5.94,5.94,0,0,0,218,98.6a9.84,9.84,0,0,0,2.58-1.55,26.17,26.17,0,0,0,7.09-9.27,17.3,17.3,0,0,1-4.55.83,9.49,9.49,0,0,1-4.24-1,6.42,6.42,0,0,1-3.11-5.39,9.16,9.16,0,0,1,.26-2.07,18.25,18.25,0,0,1,4.09-7.66,13.12,13.12,0,0,1,7.5-4.45,6.18,6.18,0,0,1,1.61-.21,7.76,7.76,0,0,1,4.6,1.56c.59-1.31,1.4-2,2.44-2,1.41,0,2.12,1.12,2.12,3.36a52.62,52.62,0,0,1-10.2,26.87,14.35,14.35,0,0,1-7,4.91A13.37,13.37,0,0,1,217.47,103.1ZM226,83.9a8,8,0,0,0,2.95-1.19l1.08-.57q1.35-3.89,2.33-7.87l.62-2a7.36,7.36,0,0,0-2.48-.57,6.07,6.07,0,0,0-2.43.36,12.67,12.67,0,0,0-4.56,3.62,8.26,8.26,0,0,0-1.5,2.12,8.12,8.12,0,0,0-1.19,3.89c.14,1.45,1,2.17,2.69,2.17Z"/><path class="cls-2" d="M241,90a2.53,2.53,0,0,1-1.6-.57,1.88,1.88,0,0,1-.72-1.55,3.23,3.23,0,0,1,.1-.75,6.89,6.89,0,0,0,.15-1,33.24,33.24,0,0,1,.83-3.68,121.72,121.72,0,0,1,4.09-12.94q2.13-5.43,3.47-9.73a23.23,23.23,0,0,1,2.48-5.74,1.42,1.42,0,0,1,1.14-.57c.93,0,1.4.91,1.4,2.74q-.53,4.41-3.83,14.8,4.14-2.79,7.19-2.79a5.45,5.45,0,0,1,1.51.21c2.48.89,3.72,3,3.72,6.31a9.71,9.71,0,0,1-.1,1.4,28.35,28.35,0,0,1-1.24,6.16,8.77,8.77,0,0,0-.63,2.69,2.86,2.86,0,0,0,.37,1.42,2.53,2.53,0,0,1,.36,1.22,1.93,1.93,0,0,1-.26.93A2.25,2.25,0,0,1,257.32,90a2.14,2.14,0,0,1-1.5-.73,7.27,7.27,0,0,1-1.61-4.45,8.51,8.51,0,0,1,.73-3.31,26.78,26.78,0,0,0,1.45-5.7,13,13,0,0,0,.1-1.81c0-.27-.05-.45-.05-.54a1.1,1.1,0,0,0-.1-.39.62.62,0,0,0-.52-.57,7.77,7.77,0,0,0-2.74.57,13.57,13.57,0,0,0-7.72,7.45c-.34,1.07-.63,2.18-.88,3.32-.44,1.72-.79,2.93-1,3.62a6.65,6.65,0,0,0-.36,1A2.12,2.12,0,0,1,241,90Z"/></g></g></svg>