<svg xmlns="http://www.w3.org/2000/svg" viewBox="0 0 309.52 54.98"><defs><style>.cls-1{fill:#f9f9f9;stroke:#a57029;stroke-miterlimit:10;}.cls-2{fill:#a57029;}</style></defs><g id="Layer_2" data-name="Layer 2"><g id="layout"><path class="cls-1" d="M141.12,13.13a6.24,6.24,0,0,0-2.79.68l-.14.08a5.85,5.85,0,0,0-2.82,3.65l0,.2a67.81,67.81,0,0,1-2,7.91,9.33,9.33,0,0,1-3.5,2.27,7.75,7.75,0,0,1-.72-3.58l.06-1.84a18.17,18.17,0,0,0-.5-4.28l0-.16-.06-.15a4.76,4.76,0,0,0-4.63-3.28,4.43,4.43,0,0,0-2,.49,5.29,5.29,0,0,0-1.23-1l-.1-.06-.1-.06a5,5,0,0,0-2.17-.52,5.16,5.16,0,0,0-2.1.47l-.15.07-.15.08a56.64,56.64,0,0,1-8.71,4.07c2-6.92,2.21-9.5,2.21-10.85a5.36,5.36,0,0,0-1.56-3.88,4.9,4.9,0,0,0-3.51-1.55,5.61,5.61,0,0,0-3.62,1.41l-.11.09-.1.1a5,5,0,0,0-1.49,3.11c-.79,3.49-1.74,7.08-2.82,10.75-1.38-2-3.86-3.2-7.18-3.2h-.14l-.13,0a13.11,13.11,0,0,0-4.93,1.42,5.28,5.28,0,0,0-4.38-2.16,5.36,5.36,0,0,0-3.83,1.65l-.15.16-.13.17a12.66,12.66,0,0,0-1.3,2.26,4.94,4.94,0,0,0-2.39-3.23,4.26,4.26,0,0,0-2.24-.65,4.54,4.54,0,0,0-3.26,1.45l-.18.18-.15.21A14,14,0,0,0,63.79,20c-.52,1.36-1,2.78-1.43,4.2A19,19,0,0,1,57.8,30a16.31,16.31,0,0,1,.89-3.61,16.46,16.46,0,0,1,1-2.66l.08-.16a8.92,8.92,0,0,0,1-3.89,6.77,6.77,0,0,0-.36-2.14l0-.1,0-.1A5.09,5.09,0,0,0,55.52,14a6,6,0,0,0-4.73,2.26,13.62,13.62,0,0,0-1.73,2.8,8.25,8.25,0,0,0-4.27-3.43l-.1,0-.1,0a8.6,8.6,0,0,0-2.32-.32,10.52,10.52,0,0,0-2.39.28,63.06,63.06,0,0,0,2-8.94l0-.17V6.24C41.9.78,38.24.5,37.5.5a4.4,4.4,0,0,0-3.45,1.67l-.14.16-.11.18a25.87,25.87,0,0,0-2.44,5.35c0-.11-.08-.21-.13-.32l-.08-.18-.1-.16a7.81,7.81,0,0,0-6.48-3.75L23,3.4A20,20,0,0,0,10.07,8.07,26.19,26.19,0,0,0,1,23.13,23.41,23.41,0,0,0,.5,27.88a22.48,22.48,0,0,0,.36,4A12.5,12.5,0,0,0,5.91,40l.12.08a9.72,9.72,0,0,0,5.49,1.54A19,19,0,0,0,20.9,39c.47-.23.92-.49,1.36-.76a4.82,4.82,0,0,0,1.85,3.53A5.56,5.56,0,0,0,27.57,43a5.13,5.13,0,0,0,4.94-3.52l0-.12,0-.12a6.06,6.06,0,0,1,.21-.61l.05-.11,0-.12c.27-.77.64-2,1.11-3.86l0-.13c.21-1,.46-1.93.75-2.85a10.58,10.58,0,0,1,5.12-5.37,24.34,24.34,0,0,1-1.14,4.16,11.43,11.43,0,0,0-.93,4.42A10.22,10.22,0,0,0,40,41l.12.17.15.14a5,5,0,0,0,3.62,1.61,5.27,5.27,0,0,0,4.7-2.89,5,5,0,0,0,.53-1.45,10.33,10.33,0,0,0,.79.83,8.72,8.72,0,0,0,6,2.42,10,10,0,0,0,2.88-.44l.2-.06.2-.08a17,17,0,0,0,4-2.57,7.48,7.48,0,0,0,5.23,2.52h.25a6.14,6.14,0,0,0,2.06-.34,6,6,0,0,0,.47.38l.13.09.13.08a5.52,5.52,0,0,0,2.8.77A5.35,5.35,0,0,0,79.43,39l0-.1q1.41-3.55,2.57-6A8.48,8.48,0,0,0,82,34a9.36,9.36,0,0,0,1,4.62A6.47,6.47,0,0,0,88.32,42h.17a6,6,0,0,0,3.34-1.07,5.2,5.2,0,0,0,.68-.54h0a5,5,0,0,0,3,1,5.59,5.59,0,0,0,3.12-1l.13-.08.12-.1a10.51,10.51,0,0,0,2.75-3.52A18.3,18.3,0,0,0,108,40a11.72,11.72,0,0,0,3.27.48,10.47,10.47,0,0,0,2-.18,4.44,4.44,0,0,0,2.88-1.87,5.12,5.12,0,0,0,.9-2.48l0-.14v-.14a4.74,4.74,0,0,0-1.35-3.33,4.68,4.68,0,0,0-3.41-1.48h-.25l-.2,0a5.75,5.75,0,0,1-1-.32l-.1-.05-.11,0a19,19,0,0,1-2.11-.78,10.91,10.91,0,0,1-1.3-1c1-.38,2.21-.83,3.5-1.34a35.83,35.83,0,0,0,6.88-3c0,.23,0,.46,0,.69l.05,1.45a14.4,14.4,0,0,0,4.41,10.11l.11.1.11.1a11.89,11.89,0,0,0,4.45,2.31A20.59,20.59,0,0,1,116.52,47l-1.93.69-.17.08a3.45,3.45,0,0,0-2,3.1,3.51,3.51,0,0,0,3,3.51,10.77,10.77,0,0,0,1.52.11c3.35,0,7-1.1,11.16-3.42,6.86-4.05,12.24-11.35,16-21.7A9.41,9.41,0,0,0,145,27c1.84-5.22,2.09-6.88,2.09-7.88a6.06,6.06,0,0,0-.73-2.9A5.73,5.73,0,0,0,141.12,13.13ZM13.36,31.55a4.14,4.14,0,0,1-1.19-.15,4.49,4.49,0,0,1-.5-1.66l0-.14A15.38,15.38,0,0,1,11.57,28a13.25,13.25,0,0,1,1.11-5.12,15.24,15.24,0,0,1,3.18-4.75,9.61,9.61,0,0,1,7.05-3.33l2.7.11,1.45-.07h.14a5.73,5.73,0,0,0,2.06-.71c-.51,1.4-1.06,2.86-1.66,4.4-1.26,3.38-2.32,6.58-3.18,9.56l-.27,0a3.87,3.87,0,0,0-1.75.41l-.08,0-.08.05A22.27,22.27,0,0,1,13.36,31.55Z"/><path class="cls-1" d="M308.29,16.18a5.73,5.73,0,0,0-5.22-3,6.24,6.24,0,0,0-2.79.68l-.14.08a5.85,5.85,0,0,0-2.82,3.65l0,.2a67.81,67.81,0,0,1-2,7.91,9.33,9.33,0,0,1-3.5,2.27,7.75,7.75,0,0,1-.72-3.58l.06-1.84a18.17,18.17,0,0,0-.5-4.28l0-.16-.06-.15a4.76,4.76,0,0,0-4.63-3.28,4.52,4.52,0,0,0-3.26,1.4l-.19.19-.16.23-.3.46a9,9,0,0,0-3-2.48,11.94,11.94,0,0,0-5.79-1.56H272l-.25,0a19.23,19.23,0,0,0-7.3,2.83,5.34,5.34,0,0,0-1.72-1.61l-.1-.06-.11-.06a4.88,4.88,0,0,0-2.17-.52,5.11,5.11,0,0,0-2.09.47l-.16.07-.15.08a57,57,0,0,1-8.7,4.07c1.95-6.92,2.2-9.5,2.2-10.85a5.39,5.39,0,0,0-1.55-3.88A4.92,4.92,0,0,0,246.4,1.9a5.59,5.59,0,0,0-3.61,1.41l-.12.09-.1.1a4.9,4.9,0,0,0-1.48,3.11c-.8,3.49-1.75,7.08-2.82,10.75-1.39-2-3.87-3.2-7.19-3.2H231l-.14,0a13,13,0,0,0-4.92,1.42,5.3,5.3,0,0,0-4.39-2.16,5.37,5.37,0,0,0-3.83,1.65l-.15.16-.12.17a14.59,14.59,0,0,0-1.77,3.35,11.14,11.14,0,0,0-4.15-3.89,13.47,13.47,0,0,0-4.75-1.51,5.19,5.19,0,0,0-2.72-.71,7,7,0,0,0-3.45.93,17.78,17.78,0,0,0-4.33,3.26,50.74,50.74,0,0,1,2.49-5.69,5.94,5.94,0,0,0,.63-2.69A5.41,5.41,0,0,0,196,3.33a4.35,4.35,0,0,0-2.26-.55,5.72,5.72,0,0,0-4.81,2.79l-.73,1.16L180,13.55q-2.19,1.8-4.23,3.78c-.85-1.32-1.62-2.68-2.33-4.07l-.54-1q.39-.81.87-1.68l.08-.17a6.41,6.41,0,0,0,.65-2.72,5.26,5.26,0,0,0-.83-2.85l-.07-.1-.07-.09a5.9,5.9,0,0,0-4.83-2.44,5.51,5.51,0,0,0-4.52,2.44l-.1.12-.08.14A48.5,48.5,0,0,0,158.13,20a54.52,54.52,0,0,0-1.89,14.26l0,3,0,.18a4.43,4.43,0,0,0,4.52,4,4.21,4.21,0,0,0,4.24-3.24c1.09-3.75,2.19-7.76,3.3-11.93a39.84,39.84,0,0,0,3,3.49,5.33,5.33,0,0,0,4.12,1.74,5.16,5.16,0,0,0,4-1.85c.78-.94,1.61-1.87,2.47-2.77a52,52,0,0,0-.42,6.59l.11,3.06,0,.16a4.46,4.46,0,0,0,4.58,4,4.28,4.28,0,0,0,4.19-3.34c0-.1.07-.21.1-.32A12.8,12.8,0,0,0,192.58,40l.06.06.07.06a9.52,9.52,0,0,0,6.64,2.66h.73a14.92,14.92,0,0,0,6.7-2.12,23,23,0,0,0,4-3,6.06,6.06,0,0,0,2.44,3.68l.13.09.13.08a5.53,5.53,0,0,0,2.81.77A5.33,5.33,0,0,0,221.45,39l.05-.1q1.41-3.55,2.56-6A8.48,8.48,0,0,0,224,34a9.25,9.25,0,0,0,1,4.62A6.47,6.47,0,0,0,230.34,42h.17a6,6,0,0,0,3.35-1.07,5.86,5.86,0,0,0,.67-.54h0a5,5,0,0,0,3,1,5.56,5.56,0,0,0,3.11-1l.13-.08.12-.1a10.54,10.54,0,0,0,2.76-3.52A18.26,18.26,0,0,0,250.06,40a11.72,11.72,0,0,0,3.27.48,10.66,10.66,0,0,0,2-.18,4.47,4.47,0,0,0,2.88-1.87,5.09,5.09,0,0,0,.3-.5,13.06,13.06,0,0,0,9.05,3.59,16.81,16.81,0,0,0,8.73-2.34l.11-.06.1-.07A8.89,8.89,0,0,0,280.26,34l.56-2A14.79,14.79,0,0,0,284,36.64l.11.1.11.1a11.89,11.89,0,0,0,4.45,2.31A20.59,20.59,0,0,1,278.47,47l-1.93.69-.17.08a3.45,3.45,0,0,0-2,3.1,3.51,3.51,0,0,0,3,3.51,10.8,10.8,0,0,0,1.53.11c3.34,0,7-1.1,11.15-3.42,6.87-4.05,12.24-11.35,16-21.7a9.41,9.41,0,0,0,.83-2.4c1.84-5.22,2.09-6.88,2.09-7.88A6.06,6.06,0,0,0,308.29,16.18Zm-101.9,9.4,0,.09,0,.11a7.93,7.93,0,0,1-1.26,1.92,8.83,8.83,0,0,1-1.87,1.89,19.12,19.12,0,0,1-2.07,1.2,9.47,9.47,0,0,1,.91-2.21l1.64-2.64a15.75,15.75,0,0,1,1.6-2l.24-.26a1.48,1.48,0,0,1,1,.78A6.15,6.15,0,0,1,206.39,25.58Zm48,5.3h-.25l-.19,0a5.27,5.27,0,0,1-1-.32l-.11-.05-.1,0a19.64,19.64,0,0,1-2.12-.78,11.66,11.66,0,0,1-1.29-1c1-.38,2.21-.83,3.49-1.34a36,36,0,0,0,3.38-1.26,15.47,15.47,0,0,0-.47,1.55l0,.1a12.49,12.49,0,0,0-.27,2.58c0,.22,0,.44,0,.65A4.82,4.82,0,0,0,254.37,30.88Zm24.94-1.41c.21-.14.41-.29.61-.44a14.35,14.35,0,0,0,.68,2.37Z"/><path class="cls-2" d="M11.52,38.59a6.76,6.76,0,0,1-3.83-1,9.57,9.57,0,0,1-3.88-6.21,19.71,19.71,0,0,1-.31-3.47,20.91,20.91,0,0,1,.41-4.14A23.07,23.07,0,0,1,12,10.38a17,17,0,0,1,11-4l1.45,0a4.78,4.78,0,0,1,4,2.33,2.67,2.67,0,0,1,.26,1.09,1.76,1.76,0,0,1-.26.93,2.3,2.3,0,0,1-1.71,1l-1.19.05L23,11.78A12.55,12.55,0,0,0,13.7,16a17.78,17.78,0,0,0-3.78,5.66A16,16,0,0,0,8.57,28a16.67,16.67,0,0,0,.11,2,7.64,7.64,0,0,0,.93,3c.55,1.05,1.84,1.57,3.88,1.57a25,25,0,0,0,10.25-3.41.88.88,0,0,1,.41-.1c.52,0,.78.29.78.88a.8.8,0,0,1-.21.51,17.84,17.84,0,0,1-5.23,3.94A16.05,16.05,0,0,1,11.52,38.59Z"/><path class="cls-2" d="M27.57,40A2.56,2.56,0,0,1,26,39.42a1.88,1.88,0,0,1-.72-1.55,3.23,3.23,0,0,1,.1-.75,8.73,8.73,0,0,0,.16-1,31,31,0,0,1,.83-3.68,119.93,119.93,0,0,1,4.08-12.94q2.13-5.43,3.47-9.73a23.25,23.25,0,0,1,2.49-5.74A1.42,1.42,0,0,1,37.5,3.5c.94,0,1.4.92,1.4,2.74q-.51,4.41-3.83,14.81,4.14-2.81,7.2-2.8a5.43,5.43,0,0,1,1.5.21q3.72,1.35,3.72,6.31a9.71,9.71,0,0,1-.1,1.4,28.23,28.23,0,0,1-1.24,6.16A8.69,8.69,0,0,0,45.53,35a2.86,2.86,0,0,0,.36,1.42,2.56,2.56,0,0,1,.36,1.22,1.82,1.82,0,0,1-.26.93,2.25,2.25,0,0,1-2.07,1.35,2.12,2.12,0,0,1-1.5-.73,7.26,7.26,0,0,1-1.6-4.45,8.5,8.5,0,0,1,.72-3.31A26.84,26.84,0,0,0,43,25.76a13.22,13.22,0,0,0,.1-1.82c0-.27-.05-.45-.05-.54a1.21,1.21,0,0,0-.1-.39.62.62,0,0,0-.52-.57,7.77,7.77,0,0,0-2.74.57A13.51,13.51,0,0,0,32,30.47a31.48,31.48,0,0,0-.88,3.31c-.45,1.72-.8,2.93-1,3.62a6.65,6.65,0,0,0-.36,1A2.12,2.12,0,0,1,27.57,40Z"/><path class="cls-2" d="M56,38.85a5.62,5.62,0,0,1-4-1.6,9.12,9.12,0,0,1-2.9-6.94,16.71,16.71,0,0,1,1.09-5.95,21,21,0,0,1,2.89-6.16A3.06,3.06,0,0,1,55.52,17a2.14,2.14,0,0,1,2.07,1.5,4,4,0,0,1,.2,1.19,6.21,6.21,0,0,1-.72,2.59,18.76,18.76,0,0,0-1.24,3.21,16.92,16.92,0,0,0-1,4.71l.05.83a2.52,2.52,0,0,0,.62,1.55,2.36,2.36,0,0,0,1.71,1.14,1.21,1.21,0,0,0,.68-.21c2.58-1.28,5-4,7.29-8.13.45-1.51,1-3,1.5-4.45a11,11,0,0,1,1.66-3.57,1.64,1.64,0,0,1,1.14-.57,1.16,1.16,0,0,1,.67.21,1.92,1.92,0,0,1,1.09,1.76,10.38,10.38,0,0,1-.57,2.43,38.22,38.22,0,0,0-1.55,9.73,8,8,0,0,0,.36,2.59,2.2,2.2,0,0,1,1.45,1.14,2.4,2.4,0,0,1,.31,1.19,2.27,2.27,0,0,1-2.49,2.38c-2.82-.24-4.33-2-4.5-5.44A13.68,13.68,0,0,1,58,38.54,6.89,6.89,0,0,1,56,38.85Z"/><path class="cls-2" d="M74.3,39.21A2.54,2.54,0,0,1,73,38.85a3,3,0,0,1-1.34-2.48q0-1.82,3.15-11.7,1.56-5.59,3-7.45a2.38,2.38,0,0,1,1.71-.78c1.66,0,2.48,1,2.48,3.16l0,1.29a10.79,10.79,0,0,1,7.15-3.73q5.43,0,5.43,4.71,0,3.11-2.95,8.49a11.67,11.67,0,0,0-1.6,4.19,1.81,1.81,0,0,0,.36,1.14A1.69,1.69,0,0,1,91,36.83a1.76,1.76,0,0,1-.85,1.55,3,3,0,0,1-1.68.57,3.45,3.45,0,0,1-2.9-1.86A6.43,6.43,0,0,1,85,34q0-3,3.21-8.29,2.26-3.76,2.27-4.34c0-.31-.46-.47-1.39-.47q-4.31.57-8,7.19a87.39,87.39,0,0,0-4.39,9.74A2.37,2.37,0,0,1,74.3,39.21Z"/><path class="cls-2" d="M95.47,38.33a2,2,0,0,1-1.19-.41,1.77,1.77,0,0,1-.72-1.45,2.81,2.81,0,0,1,.21-1c.13-.36.48-1.58,1-3.65L96,27.88a199.32,199.32,0,0,0,6-20.86,1.92,1.92,0,0,1,.62-1.4,2.7,2.7,0,0,1,1.71-.72,2,2,0,0,1,1.39.67,2.39,2.39,0,0,1,.68,1.76q0,3.26-3.26,14l-.47,1.55a70.54,70.54,0,0,0,14.75-6.21,2.13,2.13,0,0,1,.88-.21,1.9,1.9,0,0,1,1.86,1.81,1.67,1.67,0,0,1-.57,1.19,32.16,32.16,0,0,1-9.88,5.08q-4.82,1.91-7.4,2.64a13.58,13.58,0,0,0,4.71,5.12,17.28,17.28,0,0,0,2.69,1,6.37,6.37,0,0,0,2.28.57l.31,0a1.64,1.64,0,0,1,1.24.55,1.79,1.79,0,0,1,.52,1.26,2.28,2.28,0,0,1-.39,1.06,1.51,1.51,0,0,1-1,.63,7.76,7.76,0,0,1-1.42.12,8.73,8.73,0,0,1-2.43-.36,16.18,16.18,0,0,1-8.54-6.21,30.09,30.09,0,0,1-1.19,3.78,7.5,7.5,0,0,1-2.23,3.11A2.66,2.66,0,0,1,95.47,38.33Z"/><path class="cls-2" d="M117,51.48a7,7,0,0,1-1.06-.08.51.51,0,0,1-.49-.54.49.49,0,0,1,.31-.42l1.76-.62q9-2.85,14.86-14a7.52,7.52,0,0,1-8.18-1.3,11.46,11.46,0,0,1-3.52-8.07l-.05-1.35a11.93,11.93,0,0,1,2.17-6.93,1.58,1.58,0,0,1,1.14-.52,1.77,1.77,0,0,1,1.81,1.29,14.94,14.94,0,0,1,.42,3.58l-.06,1.75a10,10,0,0,0,1.51,5.8,6.41,6.41,0,0,0,.93.78l1.14.15q2.73-.26,6.26-3.67a73.48,73.48,0,0,0,2.33-9,2.84,2.84,0,0,1,1.39-1.81,3.27,3.27,0,0,1,1.45-.36,2.75,2.75,0,0,1,2.59,1.5,3,3,0,0,1,.36,1.45q0,1.46-2,7.14a6.42,6.42,0,0,1-.68,2q-5.28,14.7-14.75,20.29Q121.2,51.48,117,51.48Z"/><path class="cls-2" d="M160.84,38.49A1.46,1.46,0,0,1,159.29,37l0-2.8a50.84,50.84,0,0,1,1.81-13.5A45.37,45.37,0,0,1,166.59,6.4a2.64,2.64,0,0,1,2.12-1.24,2.89,2.89,0,0,1,2.43,1.24,2.28,2.28,0,0,1,.37,1.24,3.49,3.49,0,0,1-.37,1.45,33,33,0,0,0-1.55,3.21l1.19,2.33a49.89,49.89,0,0,0,4.61,7.4,64.3,64.3,0,0,1,6.52-6.16l8.54-7.14,1-1.56a2.69,2.69,0,0,1,2.28-1.39,1.27,1.27,0,0,1,.83.2,2.48,2.48,0,0,1,1.81,2.49A2.9,2.9,0,0,1,196,9.81a54.68,54.68,0,0,0-4.56,12.48l-1.76,7c-.34,1.27-.72,2.52-1.13,3.75s-.78,2.44-1.09,3.65a1.28,1.28,0,0,1-1.29,1.08,1.48,1.48,0,0,1-1.61-1.45l-.1-2.79a48.65,48.65,0,0,1,1.76-13l.51-2a63.28,63.28,0,0,0-9.62,9.26,2.11,2.11,0,0,1-1.66.78,2.37,2.37,0,0,1-1.91-.78,30.85,30.85,0,0,1-6.27-9.1l-1,3.83q-2.07,8-4.09,15A1.26,1.26,0,0,1,160.84,38.49Z"/><path class="cls-2" d="M199.87,39.73h-.52a6.59,6.59,0,0,1-4.6-1.86,8.35,8.35,0,0,1-2.54-5.95,14.81,14.81,0,0,1,2-7.3q3.41-6.16,7.76-8.39a4,4,0,0,1,2-.57,1.83,1.83,0,0,1,1.55.62,10.41,10.41,0,0,1,4.51,1.25,7.86,7.86,0,0,1,4.19,7.4,10.18,10.18,0,0,1-1.3,4.86A19.67,19.67,0,0,1,205.25,38,11.92,11.92,0,0,1,199.87,39.73Zm.21-5.54c1,0,2.64-.7,4.81-2.12a11.55,11.55,0,0,0,2.59-2.59,9.36,9.36,0,0,0,1.76-2.95,9.18,9.18,0,0,0,.26-2.59q-1.14-3.4-5.28-3.41a16.61,16.61,0,0,1-1.14,1.4,18.18,18.18,0,0,0-1.92,2.38l-1.7,2.74a12,12,0,0,0-1.56,4.76,2.36,2.36,0,0,0,1,2A4,4,0,0,0,200.08,34.19Z"/><path class="cls-2" d="M216.33,39.21a2.58,2.58,0,0,1-1.3-.36,3,3,0,0,1-1.34-2.48q0-1.82,3.16-11.7,1.54-5.59,3-7.45a2.34,2.34,0,0,1,1.7-.78c1.66,0,2.49,1,2.49,3.16l-.05,1.29a10.74,10.74,0,0,1,7.14-3.73q5.43,0,5.43,4.71,0,3.11-2.95,8.49a11.67,11.67,0,0,0-1.6,4.19,1.81,1.81,0,0,0,.36,1.14,1.71,1.71,0,0,1,.73,1.14,1.77,1.77,0,0,1-.86,1.55,3,3,0,0,1-1.68.57,3.46,3.46,0,0,1-2.9-1.86A6.55,6.55,0,0,1,227,34q0-3,3.21-8.29,2.28-3.76,2.28-4.34c0-.31-.47-.47-1.4-.47q-4.31.57-8,7.19a87,87,0,0,0-4.4,9.74A2.36,2.36,0,0,1,216.33,39.21Z"/><path class="cls-2" d="M237.5,38.33a2,2,0,0,1-1.19-.41,1.75,1.75,0,0,1-.73-1.45,2.81,2.81,0,0,1,.21-1c.14-.36.48-1.58,1-3.65l1.25-3.93a201.64,201.64,0,0,0,6-20.86,2,2,0,0,1,.62-1.4,2.75,2.75,0,0,1,1.71-.72,2,2,0,0,1,1.4.67,2.38,2.38,0,0,1,.67,1.76q0,3.26-3.26,14l-.47,1.55a70.54,70.54,0,0,0,14.75-6.21,2.17,2.17,0,0,1,.88-.21,1.79,1.79,0,0,1,.83.21,1.84,1.84,0,0,1,1,1.6,1.67,1.67,0,0,1-.57,1.19,32.21,32.21,0,0,1-9.89,5.08c-3.21,1.27-5.67,2.15-7.4,2.64a13.58,13.58,0,0,0,4.71,5.12,18.16,18.16,0,0,0,2.69,1,6.37,6.37,0,0,0,2.28.57l.31,0a1.63,1.63,0,0,1,1.24.55,1.75,1.75,0,0,1,.52,1.26,2.08,2.08,0,0,1-.39,1.06,1.49,1.49,0,0,1-1,.63,7.87,7.87,0,0,1-1.43.12,8.73,8.73,0,0,1-2.43-.36,16.18,16.18,0,0,1-8.54-6.21,30.09,30.09,0,0,1-1.19,3.78A7.48,7.48,0,0,1,239,37.82,2.68,2.68,0,0,1,237.5,38.33Z"/><path class="cls-2" d="M267.57,38.54a10.12,10.12,0,0,1-7.2-2.95,8.31,8.31,0,0,1-2-5.23,10,10,0,0,1,.2-2,15.09,15.09,0,0,1,3.68-6.73,16.06,16.06,0,0,1,10-5.8h.93a9,9,0,0,1,4.35,1.19,5.83,5.83,0,0,1,3.26,4.87,5,5,0,0,1-2.12,4.29,13.39,13.39,0,0,1-5.18,2.49,18.27,18.27,0,0,1-5.69.93,19.18,19.18,0,0,1-4.71-.62l-.21.88c0,.38,0,.57-.05.57l-.11-.26c.18.76.28,1.19.32,1.29a1,1,0,0,1,.05.21,3.64,3.64,0,0,0,.41.62l.54.46c.09.07.13.13.13.16a6,6,0,0,0,3.58,1.14,16.29,16.29,0,0,0,4.55-.88,16.11,16.11,0,0,1,3.93-.88,4.87,4.87,0,0,0,1.25-.16l.1.16-.26.93a5.93,5.93,0,0,1-2.59,3.36A13.72,13.72,0,0,1,267.57,38.54ZM265,25.5l.41-.11q8.34-.66,10.87-3.21a.49.49,0,0,1-.1-.13,1.72,1.72,0,0,0-.16-.2.8.8,0,0,1-.12-.21,2.2,2.2,0,0,0-.29-.36c-.17-.19-.31-.29-.41-.29a3.71,3.71,0,0,0-1.45-.51.8.8,0,0,0-.42-.06,8.49,8.49,0,0,0-3.88,1.2A13.47,13.47,0,0,0,265,25.5Z"/><path class="cls-2" d="M279,51.48a7.16,7.16,0,0,1-1.07-.08.51.51,0,0,1-.49-.54.49.49,0,0,1,.31-.42l1.76-.62q9-2.85,14.86-14a7.52,7.52,0,0,1-8.18-1.3,11.46,11.46,0,0,1-3.52-8.07l-.05-1.35a11.93,11.93,0,0,1,2.17-6.93,1.58,1.58,0,0,1,1.14-.52,1.77,1.77,0,0,1,1.81,1.29,14.94,14.94,0,0,1,.42,3.58l-.06,1.75a10,10,0,0,0,1.51,5.8,6.41,6.41,0,0,0,.93.78l1.14.15q2.73-.26,6.26-3.67a73.48,73.48,0,0,0,2.33-9,2.84,2.84,0,0,1,1.39-1.81,3.27,3.27,0,0,1,1.45-.36,2.75,2.75,0,0,1,2.59,1.5,3,3,0,0,1,.36,1.45q0,1.46-2,7.14a6.42,6.42,0,0,1-.68,2q-5.28,14.7-14.75,20.29Q283.15,51.48,279,51.48Z"/></g></g></svg>