<svg xmlns="http://www.w3.org/2000/svg" viewBox="0 0 142.5 240.02"><defs><style>.cls-1{fill:#c1d2d3;}.cls-1,.cls-2,.cls-3,.cls-4,.cls-5,.cls-6,.cls-7,.cls-9{stroke:#232323;stroke-miterlimit:10;}.cls-1,.cls-2,.cls-3,.cls-4,.cls-5,.cls-6,.cls-7{stroke-width:4px;}.cls-2{fill:#daecef;}.cls-3{fill:#e5c793;}.cls-4{fill:#563f35;}.cls-5{fill:#ef2e2e;}.cls-6{fill:#ed2424;}.cls-7{fill:#5e4132;}.cls-8{fill:#ef8686;}.cls-9{fill:#49aa39;stroke-width:0.5px;}</style></defs><g id="Layer_2" data-name="Layer 2"><g id="Layer_1-2" data-name="Layer 1"><rect class="cls-1" x="2" y="68.17" width="40.23" height="169.84"/><rect class="cls-2" x="32.05" y="68.17" width="108.45" height="169.84"/><path class="cls-3" d="M118.11,91.81l-13.63,11.55a2.43,2.43,0,0,0-.29-.26,28.43,28.43,0,0,0-35.83,0l-.3.25L54.44,91.81c.46-.42.92-.82,1.4-1.21a48.76,48.76,0,0,1,60.86,0C117.18,91,117.65,91.4,118.11,91.81Z"/><path class="cls-4" d="M86.27,154.61h0c-16.58,0-30.14,15.77-30.14,35.06V238h60.29V189.67C116.42,170.38,102.85,154.61,86.27,154.61Z"/><path class="cls-5" d="M94.36,18.74c-2.91-3.59-7.22-6.81-11.87-7.8a14,14,0,0,0-6.93.37,42.22,42.22,0,0,0-4.31,2.23A42.39,42.39,0,0,0,67,11.31,14.08,14.08,0,0,0,60,10.94c-4.64,1-9,4.21-11.87,7.8-6.38,7.87-6.11,18.46-1.33,27S60.94,59,71.25,59.46C81.57,59,90.89,54.33,95.69,45.75S100.75,26.61,94.36,18.74Z"/><path class="cls-6" d="M67.7,18.05s.49,1.8,4.26,1.47,4.27-1.47,4.27-1.47"/><path class="cls-7" d="M72.78,19.42A111,111,0,0,0,74.94,4.27a1.94,1.94,0,0,0-.45-1.62,1.79,1.79,0,0,0-.91-.3A33.34,33.34,0,0,0,68.21,2a1.56,1.56,0,0,0-.95.24c-.44.34-.4,1-.31,1.54.8,4.9,1.9,10.5,4,15l2.11.76"/><path class="cls-8" d="M47,34.63a18,18,0,0,0,3.35,9.77,1.28,1.28,0,0,0,1.71.45,1.26,1.26,0,0,0,.45-1.71,15.65,15.65,0,0,1-3-8.51,1.28,1.28,0,0,0-1.25-1.25A1.26,1.26,0,0,0,47,34.63Z"/><path class="cls-8" d="M54.47,47.78a1.25,1.25,0,0,0,0-2.5,1.25,1.25,0,0,0,0,2.5Z"/><path class="cls-9" d="M75.32,7.34S75.12,2,78.87,1.45a49.11,49.11,0,0,0,5-.94,7.16,7.16,0,0,1-3.2,5.14A8.64,8.64,0,0,1,75.32,7.34Z"/><path class="cls-9" d="M83.86.8C80.7,2.46,77.7,4.17,75.32,6.87"/></g></g></svg>