<svg xmlns="http://www.w3.org/2000/svg" viewBox="0 0 54.37 54.37"><defs><style>.cls-1{fill:#fff;stroke:#e5e5e5;stroke-miterlimit:10;}.cls-2,.cls-7{fill:#8f5227;}.cls-2,.cls-3,.cls-4,.cls-5,.cls-6{fill-rule:evenodd;}.cls-3{fill:#83c03a;}.cls-4{fill:#e85531;}.cls-5{fill:#f4b119;}.cls-6{fill:#35a8cf;}</style></defs><g id="Layer_2" data-name="Layer 2"><g id="Layer_1-2" data-name="Layer 1"><rect class="cls-1" x="0.5" y="0.5" width="53.37" height="53.37" rx="11.56"/><path class="cls-2" d="M12.8,16.26l-.74.63A1.22,1.22,0,0,0,11,16.16c-.82,0-1.31.31-1.31,1.22v1.28c0,.35.14,1.26,1.07,1.26a1.58,1.58,0,0,0,1.34-.73l.79.6a2.43,2.43,0,0,1-2.1,1.13,2.1,2.1,0,0,1-2.23-2.13c0-.93,0-.75,0-1.66a2,2,0,0,1,1.91-1.93A2.32,2.32,0,0,1,12.8,16.26Z"/><path class="cls-2" d="M18.8,15.29h1.11s0,2.53,0,3.16S20.14,20,21,20s1.19-.39,1.19-1.46V15.33h1.12v5.56h-1v-.5a2.71,2.71,0,0,1-1.64.57,2,2,0,0,1-1.91-2C18.8,17.78,18.78,15.29,18.8,15.29Z"/><path class="cls-3" d="M39.68,21H38.56s0-2.53,0-3.17-.25-1.49-1.1-1.49-1.2.59-1.2,1.6v3H35.16V15.36h1v.5s.31-.61,1.52-.57a2,2,0,0,1,2,2C39.68,18.47,39.69,21,39.68,21Z"/><path class="cls-2" d="M15.28,15.18h.58a1.94,1.94,0,0,1,1.93,1.94V19a1.94,1.94,0,0,1-1.93,1.93h-.58A1.94,1.94,0,0,1,13.35,19V17.12a1.94,1.94,0,0,1,1.93-1.94Zm.08,1a1.1,1.1,0,0,0-1,1.19v1.38a1.11,1.11,0,0,0,1,1.19h.45a1.1,1.1,0,0,0,1-1.19V17.35a1.09,1.09,0,0,0-1-1.19Z"/><path class="cls-4" d="M24.39,15.33v7.8h1.22v-2.6s.25.39,1.35.39A2,2,0,0,0,29,19V17.13a1.93,1.93,0,0,0-1.71-1.88c-1.25-.07-1.62.26-1.8.59v-.53l-1.07,0Zm2.09.83H27a1.1,1.1,0,0,1,1,1.19v1.38a1.11,1.11,0,0,1-1,1.19h-.55a1.11,1.11,0,0,1-1-1.19V17.35A1.1,1.1,0,0,1,26.48,16.16Z"/><path class="cls-5" d="M30.07,15.7l.46.76a2,2,0,0,1,1.37-.3A1.06,1.06,0,0,1,33,17.35,2.23,2.23,0,0,0,31.69,17a1.94,1.94,0,0,0-1.87,1.26c-.17.69-.16,2.31,1.23,2.58a2.15,2.15,0,0,0,2-.49v.52H34v-4c0-2-2.75-2.31-4-1.24Zm1.68,2.24h.15a.94.94,0,0,1,.94.94v.19a.94.94,0,0,1-.94.94h-.15a1,1,0,0,1-.94-.94v-.19A1,1,0,0,1,31.75,17.94Z"/><path class="cls-6" d="M44.12,15.68a1.26,1.26,0,0,1,1.43-.34v.83a1,1,0,0,0-.92.18,2,2,0,0,1,.2.88h0A1.9,1.9,0,0,1,43,19.17c-.65,0-.86,0-1.44.87-.09.17.07.1.07.1A4.58,4.58,0,0,1,43.92,20a1.87,1.87,0,0,1,1.53,1.72c0,.92-1.38,1.76-1.38,1.76l-.48-.81c.46-.46,1.07-.77.49-1.41s-2-.3-2.71-.15-.82-.58-.76-1.14a1.78,1.78,0,0,1,.81-1.1,2,2,0,0,1-.86-1.64h0a1.9,1.9,0,0,1,1.84-2H43a1.78,1.78,0,0,1,1.12.4Zm-1.5.49a1,1,0,0,0-1.1,1v.2a1.05,1.05,0,0,0,1.1,1h.17a1,1,0,0,0,1.09-1v-.2a1,1,0,0,0-1.09-1Z"/><path class="cls-7" d="M27.84,31.78a4,4,0,0,0-3.05-3.67,8.26,8.26,0,0,0-5,.61c-.09,0-.21.22-.18.3.17.56.38,1.1.59,1.68l.63-.25A6.31,6.31,0,0,1,24,30a2,2,0,0,1,1.69,2.54c-2.57-1.12-4.59-.93-5.88.53a4.37,4.37,0,0,0-.35,5.15c1.73,2.42,4,2.15,6.36,1,0,.18,0,.35.07.59.55,0,1.08,0,1.61,0,.32,0,.45-.1.44-.42,0-.47,0-.94,0-1.41C27.88,35.91,27.93,33.84,27.84,31.78Zm-4.45,6.28a2.22,2.22,0,1,1,.08-4.44,2.22,2.22,0,1,1-.08,4.44Z"/><path class="cls-7" d="M13.74,28c-2.46-.2-4.7.85-5.06,3.6a21.09,21.09,0,0,0,0,4.83,3.79,3.79,0,0,0,3,3.41,6.1,6.1,0,0,0,3.44-.06,3.84,3.84,0,0,0,2.45-2.14c-.63-.31-1.19-.61-1.77-.87a.53.53,0,0,0-.43.19,2.51,2.51,0,0,1-2.85,1,2.3,2.3,0,0,1-1.63-2.24c0-.23,0-.46,0-.68,0-.4.1-.56.53-.54s1.07,0,1.61,0h4.27c.62,0,.76-.15.77-.77v-.94C18.05,29.88,16.59,28.21,13.74,28Zm1.48,4.75c-.66,0-1.32,0-2,0s-1.32,0-2,0c-.3,0-.38-.13-.38-.41A2.28,2.28,0,0,1,13.21,30a2.24,2.24,0,0,1,2.48,2.27C15.69,32.59,15.59,32.74,15.22,32.73Z"/><path class="cls-7" d="M44.11,33.82c-.51-.27-1-.47-1.57-.69s-1.25-.43-1.85-.69-1-.8-1-1.38.59-.89,1.32-1a3.36,3.36,0,0,1,2.15.43c.41.22.8.47,1.24.74l1.21-1.56a.93.93,0,0,0-.1-.17,5.87,5.87,0,0,0-6.71-.86,3,3,0,0,0,0,5.32,7.74,7.74,0,0,0,1.27.6c.83.34,1.69.62,2.52,1a1.15,1.15,0,0,1,.79,1.22,1.31,1.31,0,0,1-1,1.16,3,3,0,0,1-2.86-.7c-.31-.28-.59-.76-.93-.79s-.77.33-1.16.52l-.23.11c-.28.11-.3.28-.17.54a4,4,0,0,0,1.52,1.67,6,6,0,0,0,5.36.25,3,3,0,0,0,1.94-2.86A3,3,0,0,0,44.11,33.82Z"/><path class="cls-7" d="M35.08,37.72c-.22,0-.45,0-.67.06-1.22.14-1.74-.29-1.75-1.5,0-1.91,0-3.82,0-5.73a2.93,2.93,0,0,1,.05-.37h1.59c1.36,0,1.34,0,1.37-1.38,0-.49-.13-.68-.65-.66-.77,0-1.55,0-2.37,0V25.43c0-.66,0-.66-.66-.51-.41.09-.81.22-1.22.28s-.5.24-.49.62c0,.75,0,1.51,0,2.28l-.32,0c-1.52.07-1.51.07-1.42,1.58,0,.34.14.47.48.45s.79,0,1.26,0v.71c0,2.12,0,4.23,0,6.35A2.61,2.61,0,0,0,32.6,40a9.55,9.55,0,0,0,2.39,0c1.3-.17,1.29-.22,1.08-1.49C35.93,37.61,35.93,37.61,35.08,37.72Z"/></g></g></svg>