<svg xmlns="http://www.w3.org/2000/svg" viewBox="0 0 46.5 46.5"><defs><style>.cls-1{fill:#fff;}.cls-2{fill:#82bc41;}</style></defs><g id="Layer_2" data-name="Layer 2"><g id="layout"><circle id="Ellipse_12" data-name="Ellipse 12" class="cls-1" cx="23.25" cy="23.25" r="23.25"/><circle id="Ellipse_12-2" data-name="Ellipse 12-2" class="cls-2" cx="23.25" cy="23.25" r="19.38"/><path class="cls-1" d="M31.6,12.36H14.89a2.63,2.63,0,0,0-2.51,2.53V31.61a2.64,2.64,0,0,0,2.55,2.54H31.6a2.66,2.66,0,0,0,2.55-2.54V14.89A2.63,2.63,0,0,0,31.6,12.36Zm-4.43,3.35v0a.89.89,0,0,1,.91-.87h2.75a.89.89,0,0,1,.86.91v2.76a.87.87,0,0,1-.89.85H28a.88.88,0,0,1-.87-.9h0Zm-3.92,3.15a4.39,4.39,0,0,1,0,8.78h-.08a4.39,4.39,0,0,1,.08-8.78ZM32.16,31v0a.87.87,0,0,1-.89.86h-16a0,0,0,0,1,0,0,.87.87,0,0,1-.88-.88V21.14h2.07A7.91,7.91,0,0,0,16.13,23a7.11,7.11,0,1,0,14.21,0,9.19,9.19,0,0,0-.26-1.81h2.06Z"/></g></g></svg>