<svg xmlns="http://www.w3.org/2000/svg" viewBox="0 0 290.94 47.37"><defs><style>.cls-1{fill:#fff;stroke:#a57029;stroke-miterlimit:10;}.cls-2{fill:#a57029;}</style></defs><title>karamelsutrapt</title><g id="레이어_2" data-name="레이어 2"><g id="layout"><path class="cls-1" d="M164.36.5a6.59,6.59,0,0,0-1.75.31v0a5.27,5.27,0,0,0-3.26,3.34l-.62,1.58h0Q156,12.68,153.84,19a9,9,0,0,0-3.05-2.56A11.9,11.9,0,0,0,145,14.89h-1.19l-.25,0a19.08,19.08,0,0,0-11.74,6.78c-.11.11-.2.23-.3.34a8.22,8.22,0,0,0-5.1-5.66,8.89,8.89,0,0,0-7.67.43,16.6,16.6,0,0,0-1.55,1,5.86,5.86,0,0,0-1.69-1.27,6.56,6.56,0,0,0-3.07-.74h-.25l-.25,0a15.55,15.55,0,0,0-3.41,1,5.55,5.55,0,0,0-4.84-2.68c-2.45,0-4.43,1.47-5.46,4.11-.6,1.66-1.25,3.33-1.92,4.87a57.44,57.44,0,0,0-3.73,10.67,5.7,5.7,0,0,0-.74-.15,21.68,21.68,0,0,1,1.88-5.1l0-.12c1.53-3.56,1.85-4.93,1.85-5.89a5,5,0,0,0-1.15-3.15l-.09-.11-.11-.11a5.54,5.54,0,0,0-4-1.71,4.67,4.67,0,0,0-2.12.51,12.74,12.74,0,0,0-3.68-.51,13.67,13.67,0,0,0-5.37,1.09,4.24,4.24,0,0,0-3.34-2.7A17.1,17.1,0,0,0,73,15.56h-.15a13.49,13.49,0,0,0-6.3,1.81A5.32,5.32,0,0,0,65,16.24a5.38,5.38,0,0,0-2.42-.57,6,6,0,0,0-5.44,3l0,.08,0,.09a27.39,27.39,0,0,0-1.57,3.86V22.5a4.94,4.94,0,0,0-1.14-3.15l-.1-.11-.1-.11a5.56,5.56,0,0,0-4-1.71,4.7,4.7,0,0,0-2.12.51,12.72,12.72,0,0,0-3.67-.51,14.53,14.53,0,0,0-10.13,4.24,20.1,20.1,0,0,0-5.08,6.64A13.87,13.87,0,0,0,27.88,34c-.24-.05-.48-.11-.75-.15-.89-.14-3.44-1.13-8.55-7-.62-.7-1.27-1.4-1.93-2.07,2.31-1.89,5.49-4.32,9.48-7.25,6.14-4.31,7.18-5.87,7.18-7.74a3.89,3.89,0,0,0-3.93-4.19c-1.06,0-2.16.26-7.48,3.66-.6.37-1.18.73-1.74,1.1a6.08,6.08,0,0,0,.16-1.4,5.26,5.26,0,0,0-.83-2.85L19.4,6a5.76,5.76,0,0,0-4.82-2.51,5.54,5.54,0,0,0-4.53,2.44L10,6l-.08.14A57.68,57.68,0,0,0,3.34,22.31,67.29,67.29,0,0,0,.61,38.44L.5,39.77v.12a4.18,4.18,0,0,0,4.35,4.39,4.57,4.57,0,0,0,4.37-3l2.51-6.87c.08-.22.19-.53.37-1.06,1.08,1.2,2,2.21,2.8,3a24.6,24.6,0,0,0,8.37,6,9,9,0,0,0,3.42.69,4.88,4.88,0,0,0,3.88-1.66,8.58,8.58,0,0,0,2.94,1.9,11,11,0,0,0,4.2.85,11.36,11.36,0,0,0,3.28-.5,13.78,13.78,0,0,0,3.27-1.51,8.26,8.26,0,0,0,4.89,1.54,9.08,9.08,0,0,0,4.29-1.09h0A5.72,5.72,0,0,0,58,44.7h.55c1.48-.09,5-.85,5.77-5.89a34.4,34.4,0,0,1,.89-3.39,29.28,29.28,0,0,1,4-6.86A13.93,13.93,0,0,0,68,34c0,6.2,3.58,8.5,5.64,9.29a11,11,0,0,0,4.2.85,11.46,11.46,0,0,0,3.28-.5,14,14,0,0,0,3.27-1.51,8.21,8.21,0,0,0,4.88,1.54,9.09,9.09,0,0,0,4.24-1.06c.18.14.37.28.57.41a6,6,0,0,0,3.32,1,5.35,5.35,0,0,0,5.48-4.22l1.76-5.68a36.79,36.79,0,0,1,2-3.48c-2,5.28-2.24,6.53-2.24,7.37a4.9,4.9,0,0,0,1.67,3.76,5.09,5.09,0,0,0,3.4,1.31A4.78,4.78,0,0,0,114.29,40,14.15,14.15,0,0,1,115,38.4q1-2.26,2-4.15a7.5,7.5,0,0,0-.15,1.44,8.71,8.71,0,0,0,1.44,4.77,5.85,5.85,0,0,0,5,2.84,5.17,5.17,0,0,0,5.2-3.44l0-.09,0-.1a5.57,5.57,0,0,0,.22-1.6,1,1,0,0,0,0-.17,14.17,14.17,0,0,0,1.08,1.57l.13.17.15.14a13.08,13.08,0,0,0,9.26,3.78,16.85,16.85,0,0,0,8.74-2.34l.1-.06.1-.08c.11-.07.2-.15.3-.22a7.36,7.36,0,0,0,1.78,4,5.81,5.81,0,0,0,4.46,2,4.23,4.23,0,0,0,4.6-4.24,5,5,0,0,0-.63-2.32l.87-3.34c.77-3.44,2.09-8,3.91-13.63,5.58-16.82,5.58-17,5.58-17.72a5.33,5.33,0,0,0-1-3.15A4.5,4.5,0,0,0,164.36.5Zm-122.49,28,0,.09,0,.09a11.57,11.57,0,0,1-2.65,3.76A14.9,14.9,0,0,1,40.39,29,4.38,4.38,0,0,1,42.59,27Q42.25,27.76,41.87,28.48Zm11.69,0,0-.12c.38-.88.69-1.63.93-2.27-.12.63-.25,1.26-.33,1.9-.49,2.61-.87,4.53-1.16,6a5.69,5.69,0,0,0-1.37-.37A22.66,22.66,0,0,1,53.56,28.51Zm28.47,0,0,.09,0,.09a11.42,11.42,0,0,1-2.65,3.76A15.37,15.37,0,0,1,80.55,29,4.4,4.4,0,0,1,82.76,27C82.52,27.52,82.28,28,82,28.48Z"/><path class="cls-1" d="M289.3,35.34a4.87,4.87,0,0,0-3.21-1.73,22.66,22.66,0,0,1,1.88-5.1l0-.12c1.54-3.56,1.85-4.93,1.85-5.89a4.94,4.94,0,0,0-1.14-3.15l-.09-.11-.11-.11a5.56,5.56,0,0,0-4-1.71,4.7,4.7,0,0,0-2.12.51,12.62,12.62,0,0,0-3.67-.51,13.64,13.64,0,0,0-5.37,1.09,4.26,4.26,0,0,0-3.35-2.7,17,17,0,0,0-2.82-.25h-.15a13.49,13.49,0,0,0-6.3,1.81,5.32,5.32,0,0,0-1.53-1.14,5.42,5.42,0,0,0-2.43-.57,6,6,0,0,0-5.1,2.49,5.68,5.68,0,0,0-4.11-1.46h-.11v0a5.33,5.33,0,0,0-3.09-4.82l-.11,0a7,7,0,0,0-2.64-.59c-2.94,0-5,2.26-6.28,6.7h0l-1.55.19a9.63,9.63,0,0,0-1.76.26,5.14,5.14,0,0,0-1.89-1.9,4.15,4.15,0,0,0-2.24-.65,4.55,4.55,0,0,0-3.26,1.45l-.18.18-.14.2A13.84,13.84,0,0,0,222.27,22c-.52,1.36-1,2.78-1.43,4.2a18.85,18.85,0,0,1-4.56,5.8,16.31,16.31,0,0,1,.89-3.61,16.85,16.85,0,0,1,1-2.67l.08-.15a8.94,8.94,0,0,0,1-3.89,6.77,6.77,0,0,0-.36-2.14l0-.1,0-.1A5.09,5.09,0,0,0,214,16a6,6,0,0,0-4.73,2.26,17.78,17.78,0,0,0-2.62,4.87,18.43,18.43,0,0,0-5.54-3.78,18.85,18.85,0,0,1-2.42-1.44c.77-.69,2.4-1.58,5.78-2.15l3.78-.41c3-.42,4.87-2.43,4.87-5.26a5.06,5.06,0,0,0-3.49-4.8,14.54,14.54,0,0,0-5.41-1,21.61,21.61,0,0,0-8.46,1.94,17.21,17.21,0,0,0-6,4.13,10.8,10.8,0,0,0-3,7.49V18c.18,4.87,3.19,8.75,8.94,11.55a16.28,16.28,0,0,1,2,1.08,8.42,8.42,0,0,1-3.35,1.81l-.13,0a12.44,12.44,0,0,1-4.3,1,7.41,7.41,0,0,1-3.73-1,7.69,7.69,0,0,0-3.36-1l-.15,0h-.16c-1.4,0-3.77.93-3.77,4.4a6.26,6.26,0,0,0,2.71,5.15,15.84,15.84,0,0,0,9.65,3,21.4,21.4,0,0,0,12-3.46A14.63,14.63,0,0,0,206,38.23a11.91,11.91,0,0,0,2.45,3.22,8.68,8.68,0,0,0,6,2.42,10.09,10.09,0,0,0,2.89-.44l.2-.06.19-.09a16.2,16.2,0,0,0,4-2.57,7.45,7.45,0,0,0,5.23,2.53h.26a5.47,5.47,0,0,0,3.51-1.16,5.4,5.4,0,0,0,4.15,1.83H235A8.48,8.48,0,0,0,239,42.86a4.87,4.87,0,0,1,1.4-.49,22.9,22.9,0,0,0,6-2.56,6.36,6.36,0,0,0,1,2.38,5.77,5.77,0,0,0,4.83,2.51h.54c1.49-.09,5-.85,5.78-5.89a31.82,31.82,0,0,1,.89-3.39,28.94,28.94,0,0,1,4-6.86A13.93,13.93,0,0,0,262.29,34c0,6.2,3.57,8.5,5.63,9.29a11,11,0,0,0,4.2.85,11.36,11.36,0,0,0,3.28-.5,13.78,13.78,0,0,0,3.27-1.51,8.26,8.26,0,0,0,4.89,1.54,9.05,9.05,0,0,0,4.29-1.09,4.49,4.49,0,0,0,2.59-4.13A4.94,4.94,0,0,0,289.3,35.34ZM230.57,32.5a29.92,29.92,0,0,1,.68-5.3,5.06,5.06,0,0,0,.91.26C231.48,29.53,231,31.17,230.57,32.5ZM244.69,27l.74-.06a14.46,14.46,0,0,0,3.27-.33c-.08.47-.18.94-.24,1.41L248,30.58a4.22,4.22,0,0,0-1.62-.32,5.19,5.19,0,0,0-3,1C243.72,30,244.19,28.57,244.69,27Zm31.59,1.48,0,.09,0,.09a11.57,11.57,0,0,1-2.65,3.76A14.9,14.9,0,0,1,274.8,29,4.38,4.38,0,0,1,277,27Q276.65,27.76,276.28,28.48Z"/><path class="cls-2" d="M4.85,41.28A1.21,1.21,0,0,1,3.5,39.89l.1-1.3A65.33,65.33,0,0,1,6.24,23.06,54.87,54.87,0,0,1,12.45,7.69a2.66,2.66,0,0,1,2.13-1.24A2.77,2.77,0,0,1,17,7.69a2.29,2.29,0,0,1,.36,1.24,3.48,3.48,0,0,1-.31,1.4,61,61,0,0,0-3.68,8.49,106.25,106.25,0,0,1,10.15-7c3.35-2.14,5.31-3.21,5.9-3.21s.93.4.93,1.19-2,2.52-5.9,5.28q-8.75,6.42-12.21,9.58a56.5,56.5,0,0,1,4.14,4.19q6.47,7.4,10.4,8c1.34.14,2,.66,2,1.55a1.72,1.72,0,0,1-.31.93,1.9,1.9,0,0,1-1.76.83,6,6,0,0,1-2.28-.46,21.76,21.76,0,0,1-7.35-5.33q-2.28-2.38-6.31-7c-.9,3.21-1.5,5.21-1.82,6L6.4,40.25A1.54,1.54,0,0,1,4.85,41.28Z"/><path class="cls-2" d="M37.71,41.18a8,8,0,0,1-3.05-.62Q30.88,39.11,30.88,34a10.9,10.9,0,0,1,1-4.51,17.22,17.22,0,0,1,4.35-5.64,11.61,11.61,0,0,1,8.13-3.47,8.85,8.85,0,0,1,4.19.94,2,2,0,0,1,1.6-.94,2.61,2.61,0,0,1,1.87.83,1.93,1.93,0,0,1,.46,1.25,17.74,17.74,0,0,1-1.6,4.71,21.41,21.41,0,0,0-2.28,6.88l-.1,1.19a1.81,1.81,0,0,0,.18.72c.12.28,1,.47,2.56.57a2,2,0,0,1,1.35.68A1.91,1.91,0,0,1,53,38.49a1.53,1.53,0,0,1-.93,1.45,6.16,6.16,0,0,1-3,.77,5.6,5.6,0,0,1-4.71-2.58,9.8,9.8,0,0,1-4.35,2.69A8.13,8.13,0,0,1,37.71,41.18Zm-.15-4.76a3.2,3.2,0,0,0,1.29-.31,6.87,6.87,0,0,0,1.71-.93,14.76,14.76,0,0,0,4-5.34Q46,27,47.18,24.2a8.77,8.77,0,0,0-2.79-.46,7.3,7.3,0,0,0-6.63,3.78,16.88,16.88,0,0,0-1.91,6.93,8.14,8.14,0,0,0,.1,1A1.65,1.65,0,0,0,37.56,36.42Z"/><path class="cls-2" d="M58.31,41.7H58a2.78,2.78,0,0,1-2.38-1.24,3.25,3.25,0,0,1-.52-1.35,2.67,2.67,0,0,1,.1-.73q.52-2,2-9.88a26,26,0,0,1,2.54-8.33,3,3,0,0,1,2.85-1.5,2.38,2.38,0,0,1,1.08.25,2,2,0,0,1,1.19,1.87l-.36,2.59A10.49,10.49,0,0,1,73,18.56a12.86,12.86,0,0,1,2.3.21,1.28,1.28,0,0,1,1.17,1.4,1.34,1.34,0,0,1-.39.9,1.38,1.38,0,0,1-1.11.44,8.31,8.31,0,0,0-2.64.83q-5.85,2.6-9.94,12a36,36,0,0,0-1,3.93C61,40.46,60,41.59,58.31,41.7Z"/><path class="cls-2" d="M77.88,41.18a8,8,0,0,1-3.06-.62Q71,39.11,71,34a10.76,10.76,0,0,1,1-4.51,17.22,17.22,0,0,1,4.35-5.64,11.57,11.57,0,0,1,8.12-3.47,8.85,8.85,0,0,1,4.19.94,2,2,0,0,1,1.61-.94,2.57,2.57,0,0,1,1.86.83,2,2,0,0,1,.47,1.25A17.93,17.93,0,0,1,91,27.21a21.6,21.6,0,0,0-2.27,6.88l-.11,1.19a1.81,1.81,0,0,0,.18.72c.12.28,1,.47,2.56.57a2,2,0,0,1,1.35.68,1.92,1.92,0,0,1,.47,1.24,1.53,1.53,0,0,1-.94,1.45,6.13,6.13,0,0,1-3,.77,5.63,5.63,0,0,1-4.71-2.58,9.72,9.72,0,0,1-4.34,2.69A8.23,8.23,0,0,1,77.88,41.18Zm-.16-4.76A3.16,3.16,0,0,0,79,36.11a6.87,6.87,0,0,0,1.71-.93,14.67,14.67,0,0,0,4-5.34Q86.15,27,87.35,24.2a8.83,8.83,0,0,0-2.8-.46,7.28,7.28,0,0,0-6.62,3.78A16.9,16.9,0,0,0,76,34.45a8.7,8.7,0,0,0,.11,1A1.64,1.64,0,0,0,77.72,36.42Z"/><path class="cls-2" d="M97.44,41.08a3,3,0,0,1-1.66-.52,2.42,2.42,0,0,1-1.08-2.23,54.87,54.87,0,0,1,4.34-14q1.09-2.53,2-5.13a2.81,2.81,0,0,1,2.64-2.12,2.65,2.65,0,0,1,2.44,1.5,3,3,0,0,1,.36,1.4,7.05,7.05,0,0,1-.36,1.61l1.29-.83a12.46,12.46,0,0,1,5-2,3.66,3.66,0,0,1,1.71.41c1.21.59,1.81,1.83,1.81,3.73a15.41,15.41,0,0,1,4.24-3.47,6.18,6.18,0,0,1,2.85-.72,6.26,6.26,0,0,1,2.28.46,5.44,5.44,0,0,1,3.52,4.76v.42a13.45,13.45,0,0,1-1,5.12q-.57,1.39-2.64,6.32a10.69,10.69,0,0,1,.52,2.27,2.78,2.78,0,0,1-.1.78,2.24,2.24,0,0,1-2.38,1.45,2.85,2.85,0,0,1-2.46-1.47,5.67,5.67,0,0,1-1-3.14c0-1.45.88-3.72,2.64-6.83.76-1.48,1.29-2.55,1.58-3.21a4.41,4.41,0,0,0,.44-1.76c-.1-.65-.62-1-1.55-1q-2.91.42-6.21,5.74a70.86,70.86,0,0,0-4.51,8.49,18,18,0,0,0-.77,1.87,1.82,1.82,0,0,1-1.92,1.13,2.13,2.13,0,0,1-1.42-.56,1.92,1.92,0,0,1-.65-1.51q0-1.29,3.26-9.36a19.06,19.06,0,0,0,1.81-6.37,14.17,14.17,0,0,0-7.81,5.95,37.68,37.68,0,0,0-2.85,4.76l-1.86,6A2.4,2.4,0,0,1,97.44,41.08Z"/><path class="cls-2" d="M139.36,40.56a10.12,10.12,0,0,1-7.19-3,8.33,8.33,0,0,1-2-5.23,9.5,9.5,0,0,1,.21-2,15.09,15.09,0,0,1,3.67-6.72,16.11,16.11,0,0,1,10-5.8H145a9,9,0,0,1,4.34,1.19,5.78,5.78,0,0,1,3.26,4.86,5,5,0,0,1-2.12,4.3,13.18,13.18,0,0,1-5.17,2.48,18,18,0,0,1-5.7.94,19.18,19.18,0,0,1-4.71-.62l-.2.88c0,.37,0,.56-.06.56l-.1-.25c.17.76.28,1.19.31,1.29a.59.59,0,0,1,0,.21,4.22,4.22,0,0,0,.42.62c.27.24.45.4.54.46s.13.12.13.16a6,6,0,0,0,3.57,1.14,16.66,16.66,0,0,0,4.56-.88,15.92,15.92,0,0,1,3.93-.88,4.8,4.8,0,0,0,1.24-.16l.11.16-.26.93a5.93,5.93,0,0,1-2.59,3.36A13.76,13.76,0,0,1,139.36,40.56Zm-2.58-13,.41-.11q8.34-.68,10.87-3.21a.34.34,0,0,1-.1-.13l-.16-.2a.92.92,0,0,1-.13-.21,1.91,1.91,0,0,0-.28-.36c-.18-.19-.31-.29-.42-.29a3.66,3.66,0,0,0-1.45-.51s-.17-.06-.41-.06a8.51,8.51,0,0,0-3.88,1.19A13.52,13.52,0,0,0,136.78,27.52Z"/><path class="cls-2" d="M154.84,43.87a2.88,2.88,0,0,1-2.23-1,4.51,4.51,0,0,1-1.08-3.06,27.82,27.82,0,0,1,.93-5.28,197.6,197.6,0,0,1,9.06-27.69c0-.1.24-.62.62-1.57s.88-1.5,1.5-1.63l-.26,0a5.51,5.51,0,0,1,1-.21,1.52,1.52,0,0,1,1.32.7,2.44,2.44,0,0,1,.49,1.42q0,.42-5.43,16.77-2.79,8.59-4,13.92l-1,3.94a2.58,2.58,0,0,0,.26,1.14,2.88,2.88,0,0,1,.46,1.24C156.44,43.46,155.91,43.87,154.84,43.87Z"/><path class="cls-2" d="M191.17,41a12.81,12.81,0,0,1-7.86-2.38,3.26,3.26,0,0,1-1.5-2.74c0-.93.25-1.4.77-1.4a5.11,5.11,0,0,1,2.12.57A10.46,10.46,0,0,0,190,36.52a15.5,15.5,0,0,0,5.39-1.24q5.69-1.92,5.69-5.28,0-1.24-4-3.16-7-3.4-7.24-8.95A7.87,7.87,0,0,1,192,12.4,14.17,14.17,0,0,1,196.92,9a18.7,18.7,0,0,1,7.3-1.71,11.3,11.3,0,0,1,4.29.83,2.11,2.11,0,0,1,1.61,2q0,2-2.28,2.28l-3.78.42q-5.28.87-7.56,3a3,3,0,0,0-1.13,1.76,4.15,4.15,0,0,0,.72,2.07,17.48,17.48,0,0,0,3.73,2.38,14.81,14.81,0,0,1,5.48,4A7,7,0,0,1,206.49,30a7.3,7.3,0,0,1-.36,2.22A10.88,10.88,0,0,1,201.58,38,18.33,18.33,0,0,1,191.17,41Z"/><path class="cls-2" d="M214.46,40.87a5.65,5.65,0,0,1-4-1.61,9.13,9.13,0,0,1-2.9-6.93,16.67,16.67,0,0,1,1.09-5.95,20.69,20.69,0,0,1,2.9-6.16A3,3,0,0,1,214,19a2.13,2.13,0,0,1,2.07,1.5,3.69,3.69,0,0,1,.21,1.19,6.25,6.25,0,0,1-.73,2.59,19.65,19.65,0,0,0-1.24,3.21,16.92,16.92,0,0,0-1,4.71l.06.82a2.47,2.47,0,0,0,.62,1.56,2.33,2.33,0,0,0,1.71,1.14,1.18,1.18,0,0,0,.67-.21q3.88-1.92,7.3-8.13c.44-1.52.94-3,1.5-4.45a10.79,10.79,0,0,1,1.65-3.57,1.64,1.64,0,0,1,1.14-.57,1.16,1.16,0,0,1,.67.21,1.92,1.92,0,0,1,1.09,1.76,10.38,10.38,0,0,1-.57,2.43A38.61,38.61,0,0,0,227.56,33a8,8,0,0,0,.36,2.59,2.18,2.18,0,0,1,1.45,1.14,2.4,2.4,0,0,1,.31,1.19,2.27,2.27,0,0,1-2.48,2.38q-4.24-.36-4.51-5.44a13.58,13.58,0,0,1-6.21,5.75A6.89,6.89,0,0,1,214.46,40.87Z"/><path class="cls-2" d="M234.86,40.92a2.36,2.36,0,0,1-2.07-1,3.5,3.5,0,0,1-.52-1.82q.15-2,4-13.45c-.55,0-1.13.05-1.75.05a10,10,0,0,1-1.76-.16,1.62,1.62,0,0,1-1.51-1.76q0-1.5,2.85-1.65l3.47-.42.67-1.86q1.25-4.61,3.42-4.61a4,4,0,0,1,1.5.37,2.39,2.39,0,0,1,1.34,2.27,8.44,8.44,0,0,1-.67,3.21q2.9-.36,3.78-.36a2.48,2.48,0,0,1,2.33,1,1.89,1.89,0,0,1,.36,1.09q0,2.18-5,2.17l-2.79.21-.42,1.09c-1.65,5.17-2.89,8.94-3.72,11.28a12.64,12.64,0,0,0,3.46-1.14,13.24,13.24,0,0,0,2.95-1.45,2.59,2.59,0,0,1,1.56-.67,1.16,1.16,0,0,1,1.19,1.19c0,.83-.76,1.67-2.28,2.54a19.89,19.89,0,0,1-5.64,2.48,7.44,7.44,0,0,0-2.2.83A5.8,5.8,0,0,1,234.86,40.92Z"/><path class="cls-2" d="M252.56,41.7h-.36a2.78,2.78,0,0,1-2.38-1.24,3.25,3.25,0,0,1-.52-1.35,2.67,2.67,0,0,1,.1-.73q.53-2,2-9.88A25.73,25.73,0,0,1,254,20.17a3,3,0,0,1,2.84-1.5,2.45,2.45,0,0,1,1.09.25,2,2,0,0,1,1.19,1.87l-.36,2.59a10.48,10.48,0,0,1,8.49-4.82,13,13,0,0,1,2.3.21,1.27,1.27,0,0,1,1.16,1.4,1.38,1.38,0,0,1-.38.9,1.39,1.39,0,0,1-1.12.44,8.46,8.46,0,0,0-2.64.83q-5.85,2.6-9.93,12a36,36,0,0,0-1,3.93C255.25,40.46,254.25,41.59,252.56,41.7Z"/><path class="cls-2" d="M272.12,41.18a8,8,0,0,1-3.05-.62q-3.78-1.45-3.78-6.52a10.9,10.9,0,0,1,1-4.51,17.22,17.22,0,0,1,4.35-5.64,11.61,11.61,0,0,1,8.13-3.47,8.85,8.85,0,0,1,4.19.94,2,2,0,0,1,1.6-.94,2.6,2.6,0,0,1,1.87.83,1.93,1.93,0,0,1,.46,1.25,17.74,17.74,0,0,1-1.6,4.71A21.41,21.41,0,0,0,283,34.09l-.1,1.19a1.81,1.81,0,0,0,.18.72c.12.28,1,.47,2.56.57a2,2,0,0,1,1.35.68,1.91,1.91,0,0,1,.46,1.24,1.53,1.53,0,0,1-.93,1.45,6.13,6.13,0,0,1-2.95.77,5.6,5.6,0,0,1-4.71-2.58,9.8,9.8,0,0,1-4.35,2.69A8.13,8.13,0,0,1,272.12,41.18ZM272,36.42a3.2,3.2,0,0,0,1.29-.31,6.87,6.87,0,0,0,1.71-.93,14.9,14.9,0,0,0,4-5.34q1.44-2.84,2.63-5.64a8.77,8.77,0,0,0-2.79-.46,7.3,7.3,0,0,0-6.63,3.78,16.88,16.88,0,0,0-1.91,6.93,8.14,8.14,0,0,0,.1,1A1.65,1.65,0,0,0,272,36.42Z"/></g></g></svg>