<svg xmlns="http://www.w3.org/2000/svg" viewBox="0 0 786.95 110.27"><defs><style>.cls-1,.cls-3{fill:#caecfc;}.cls-2{fill:#232323;}.cls-3{stroke:#232323;stroke-miterlimit:10;stroke-width:4px;}</style></defs><g id="Layer_2" data-name="Layer 2"><g id="Layer_1-2" data-name="Layer 1"><path class="cls-1" d="M128.92,50.63v40.7c0,9.36-9.95,16.94-22.23,16.94H5.49L39.76,79.45,5.49,50.63Zm529.11,0v40.7c0,9.36,10,16.94,22.23,16.94h101.2L747.19,79.45l34.27-28.82Z"/><path class="cls-2" d="M787,110.27H680.26c-13.36,0-24.23-8.5-24.23-18.94V48.63H787L750.3,79.45ZM660,52.63v38.7c0,8.24,9.07,14.94,20.23,14.94H776L744.08,79.45,776,52.63ZM106.69,110.27H0L36.65,79.45,0,48.63H130.92v42.7C130.92,101.77,120.05,110.27,106.69,110.27Zm-95.72-4h95.72c11.15,0,20.23-6.7,20.23-14.94V52.63H11L42.86,79.45Z"/><rect class="cls-3" x="81.88" y="2" width="623.18" height="77.45" rx="12.26"/></g></g></svg>