<svg xmlns="http://www.w3.org/2000/svg" viewBox="0 0 48.57 48.46"><defs><style>.cls-1{fill:#f47b20;}</style></defs><g id="Layer_2" data-name="Layer 2"><g id="Layer_1-2" data-name="Layer 1"><path class="cls-1" d="M48.56,24.31q0,10.82,0,21.62c0,2-.56,2.52-2.49,2.52H2.55C.71,48.45,0,47.76,0,45.91Q0,24.1.07,2.28C.08.63.74,0,2.42,0H46.24C48,0,48.56.64,48.56,2.4Q48.58,13.35,48.56,24.31ZM37.27,16.46h0c2.22,0,4.43,0,6.65,0a1.28,1.28,0,0,0,1.23-2,1.8,1.8,0,0,0-1.32-.71c-3.42-.06-6.85,0-10.27,0-.76,0-1-.27-.92-1s.5-.63,1-.63H43a1.25,1.25,0,0,0,1.37-1.64A1.13,1.13,0,0,0,43.1,9.41c-3.19,0-6.38-.06-9.58,0-.83,0-.91-.31-.88-1s.48-.58.9-.58h9.78c.82,0,1.28-.32,1.29-1.21,0-1.14-.18-1.49-1.15-1.5-4.24,0-8.47-.06-12.71,0C29.32,5.13,29,5.59,29,7v7.53c0,1.45.49,1.94,1.94,2Zm-.38,7.1h-6c-1,0-1.35.35-1.37,1.35s.33,1.5,1.53,1.5h9.19c.53,0,1-.08,1,.75s-.57.72-1.08.73c-.68,0-1.37,0-2.05,0-2.18,0-4.37,0-6.55,0-1.55,0-2.06.56-2.07,2.07,0,1.05,0,2.09,0,3.13,0,1.31.61,1.92,1.93,1.92q5.76,0,11.54,0c1,0,1.35-.38,1.36-1.36s-.32-1.36-1.32-1.43c-.33,0-.65,0-1,0-2.71,0-5.41,0-8.12,0a1.24,1.24,0,0,1-.94-.52c-.23-.7.17-1,.89-.95,2.93,0,5.87,0,8.8,0,1.39,0,1.9-.47,2-1.86,0-1.1,0-2.21,0-3.32,0-1.47-.57-2-2-2Zm-11.1-3.31c0-4.3,0-8.61,0-12.91,0-1.27-.6-1.92-1.7-1.94s-1.71.68-1.74,1.93c0,1,0,2,0,3,0,.62-.18.9-.83.86s-1.57,0-2.35,0c-1.1,0-1.49.36-1.52,1.32s.41,1.51,1.55,1.53c.82,0,1.63,0,2.45,0s.67.6.69,1.1.06,1-.7,1-1.24,0-1.86,0c-1,.05-1.33.39-1.33,1.4S18.8,19,19.84,19a10.29,10.29,0,0,0,1.36,0c.92-.12,1.16.26,1.15,1.15,0,4.33,0,8.67,0,13,0,.47.21,1.24.5,1.33a4.58,4.58,0,0,0,2.24.12c.75-.14.71-.9.71-1.53Q25.78,26.67,25.79,20.25ZM10.12,5.51a3.75,3.75,0,0,0-3.32,2c-.73,1.19-1.42,2.41-2.12,3.62S3.16,13.68,2.42,15a1.71,1.71,0,0,0,.46,2.48,1.6,1.6,0,0,0,2.33-.67c.22-.32.41-.66.61-1C6.89,14,7.94,12.13,9,10.32c.47-.79.86-.77,1.34,0s.78,1.35,1.18,2c.88,1.53,1.73,3.07,2.66,4.56a1.49,1.49,0,0,0,2.12.59,1.51,1.51,0,0,0,.6-2c-1.7-3-3.39-5.94-5.21-8.84C11.35,6,10.47,5.74,10.12,5.51Zm27,15.85c2.7,0,5.41,0,8.12,0a1.51,1.51,0,0,0,1.17-.57,1.34,1.34,0,0,0-1.32-2.09q-8,0-16,0c-1.11,0-1.46.33-1.47,1.34s.32,1.35,1.43,1.35Zm3.8,18.71c0,.81,0,1.63,0,2.44,0,.53.2.78.75.77,1.21,0,2.41,0,3.62,0,.49,0,.93-.14.8-.69a1.19,1.19,0,0,0-.78-.72c-.7-.11-1.43,0-2.15-.08-.2,0-.37-.34-.55-.52.18-.17.35-.47.56-.5.48-.08,1,0,1.46-.06a.93.93,0,0,0,.59-.66c0-.22-.37-.56-.62-.63-.44-.1-.92,0-1.36-.06-.24,0-.42-.34-.63-.52.2-.16.39-.42.61-.44.68-.06,1.38,0,2.05-.06a1.2,1.2,0,0,0,.82-.66c.15-.59-.31-.78-.83-.78H41.75c-.57,0-.84.23-.83.82C41,38.5,40.93,39.29,40.93,40.07Zm-26.54,0h0V38c0-.06,0-.13,0-.2,0-.55-.16-.93-.83-.92s-.86.31-.83.91a4.26,4.26,0,0,1,0,1.07.79.79,0,0,1-.42.53c-1.57.46-2.25,0-2.32-1.65v-.09c0-.55-.22-.77-.75-.77s-.8.16-.8.73c0,1.7,0,3.39,0,5.08,0,.26.48.64.78.68s.61-.37.7-.65,0-.86.06-1.26a.94.94,0,0,1,.52-.65c1.7-.4,2.14-.05,2.21,1.68a.28.28,0,0,1,0,.09c-.05.59.26.84.81.85a.74.74,0,0,0,.84-.84ZM11.25,27h0c0-.75,0-1.5,0-2.25a14,14,0,0,0-.12-2.43,1.24,1.24,0,0,0-.88-.8c-.32,0-.67.47-.93.79-.12.15-.08.44-.08.66q0,4.11,0,8.21c0,.66.14,1.16.95,1.19s1.07-.45,1.07-1.17Zm9.86,12.4c0-.55,0-1.1,0-1.66s-.13-.86-.75-.86-.8.26-.79.83c0,.94,0,1.89,0,2.83A1.29,1.29,0,0,1,18,41.75a1.16,1.16,0,0,1-1.22-1.33c0-.84,0-1.69,0-2.54,0-.57-.05-1-.81-1s-.89.47-.88,1.08c0,.85,0,1.7,0,2.54,0,1.79,1.21,2.84,3.14,2.81a2.61,2.61,0,0,0,2.87-2.82ZM4.38,39a1.25,1.25,0,0,1,1.86-.44.77.77,0,0,0,1.18-.43c.08-.19-.27-.73-.55-.87a2.81,2.81,0,0,0-3.22.17,2.25,2.25,0,0,0-.81,1.6c0,.47.61,1,1.07,1.32s1,.19,1.39.37c.27.1.46.38.68.59-.26.15-.52.43-.77.42-.47,0-1-.27-1.41-.25A3.47,3.47,0,0,0,2.67,42c.16.26.27.72.49.77A9.42,9.42,0,0,0,6,43.15a2,2,0,0,0,1.8-1.88c0-.88-.69-1.55-1.86-1.84ZM24.82,36.9a18.25,18.25,0,0,0-2.34,0c-.3,0-.56.46-.84.7a6.13,6.13,0,0,0,.82.72,1,1,0,0,0,.58,0c.69-.08.92.24.9.9,0,1,0,2,0,2.94,0,.62,0,1.22.87,1.21s.81-.58.8-1.17c0-.75,0-1.5,0-2.24,0-1.5,0-1.46,1.51-1.67.3,0,.55-.47.82-.73-.29-.23-.55-.63-.86-.68A16.88,16.88,0,0,0,24.82,36.9Zm5.82,3.7h.05v1.95c0,.55.22.86.79.86s.8-.39.79-1c0-1.07,0-2.14,0-3.22,0-.61.16-.93.82-.86a1.25,1.25,0,0,0,.67,0,5,5,0,0,0,.85-.68c-.26-.25-.51-.72-.78-.73-1.56-.07-3.12,0-4.68,0-.5,0-.87.24-.72.76a1.1,1.1,0,0,0,.71.67c1.52.21,1.53.18,1.51,1.77Zm4.64-.53h0v2.44c0,.51.2.78.75.77,1.24,0,2.48,0,3.71,0,.25,0,.68-.43.67-.64a1,1,0,0,0-.63-.72,10.77,10.77,0,0,0-2-.05c-.58,0-.81-.25-.79-.83,0-1,0-2,0-3,0-.57.07-1.12-.79-1.14s-.88.57-.88,1.18ZM7.58,22.85h0c0-.88,0-1.76,0-2.63,0-.67-.19-1.3-1-1.31s-1,.64-1,1.3c0,1.75,0,3.5,0,5.25,0,.7.3,1.14,1,1.11s1-.51,1-1.19C7.57,24.53,7.58,23.69,7.58,22.85Zm6.86-.29c0-.55,0-1.1,0-1.65s-.31-1-.95-1-.92.41-.93,1c0,1.13,0,2.27,0,3.4a.81.81,0,0,0,.9.91.86.86,0,0,0,1-.92C14.45,23.73,14.45,23.14,14.44,22.56Z"/></g></g></svg>