<svg xmlns="http://www.w3.org/2000/svg" viewBox="0 0 46.5 46.5"><defs><style>.cls-1{fill:#fff;}.cls-2{fill:#82bc41;}</style></defs><g id="Layer_2" data-name="Layer 2"><g id="layout"><circle id="Ellipse_12" data-name="Ellipse 12" class="cls-1" cx="23.25" cy="23.25" r="23.25"/><circle id="Ellipse_12-2" data-name="Ellipse 12-2" class="cls-2" cx="23.25" cy="23.25" r="19.38"/><path class="cls-1" d="M10.73,31.42a.87.87,0,0,0,.11.09,27,27,0,0,0,2.57,1.31,13.75,13.75,0,0,0,7.32.8,14.06,14.06,0,0,0,4.61-1.56A14.78,14.78,0,0,0,31.44,26a15.23,15.23,0,0,0,1.8-7.63.74.74,0,0,1,.32-.67,7.75,7.75,0,0,0,1.8-1.77c.15-.2.27-.41.41-.62a11.07,11.07,0,0,1-2.57.62,5.31,5.31,0,0,0,1.9-2.77.9.9,0,0,0-.3.12,8.51,8.51,0,0,1-2.66,1,.46.46,0,0,1-.47-.14,4.37,4.37,0,0,0-.56-.49A5.19,5.19,0,0,0,23,16.88a8.54,8.54,0,0,0-.08,2c0,.39,0,.44-.39.39-.55-.08-1.1-.16-1.65-.26a13.62,13.62,0,0,1-5.36-2.26A13.08,13.08,0,0,1,13,14.46c-.22-.25-.45-.49-.72-.78a5.45,5.45,0,0,0-.58,3.79,5.24,5.24,0,0,0,2,3.22l-.05.09-2.08-.56a5.75,5.75,0,0,0,1.12,3.23,5.26,5.26,0,0,0,2.82,2,4.41,4.41,0,0,1-2.11.07A5.27,5.27,0,0,0,18,29.21,10.25,10.25,0,0,1,10.73,31.42Z"/></g></g></svg>