<svg xmlns="http://www.w3.org/2000/svg" viewBox="0 0 52.95 52.94"><defs><style>.cls-1{fill:#d01c25;}.cls-2{fill:#fff;}.cls-3{fill:#eabb26;}</style></defs><g id="Layer_2" data-name="Layer 2"><g id="Layer_1-2" data-name="Layer 1"><path class="cls-1" d="M43.73,52.94H9.21A9.23,9.23,0,0,1,0,43.73V9.21A9.23,9.23,0,0,1,9.21,0H43.73A9.24,9.24,0,0,1,53,9.21V43.73a9.24,9.24,0,0,1-9.22,9.21"/><path class="cls-2" d="M48.62,26.49A22.23,22.23,0,1,1,26.4,4.26,22.22,22.22,0,0,1,48.62,26.49"/><path class="cls-2" d="M39.54,18.31A8.46,8.46,0,0,0,33,21.4a8.44,8.44,0,0,0-13.06,0,8.46,8.46,0,1,0,0,10.73,8.44,8.44,0,0,0,13.06,0,8.46,8.46,0,1,0,6.54-13.82"/><path class="cls-3" d="M32.53,22a7.69,7.69,0,1,0,0,9.46,8.44,8.44,0,0,1,0-9.46"/><path class="cls-1" d="M19.46,22a7.69,7.69,0,1,0,0,9.46,8.49,8.49,0,0,1,0-9.46"/><path class="cls-1" d="M39.54,19.08a7.69,7.69,0,1,0,7.68,7.68,7.68,7.68,0,0,0-7.68-7.68"/><path class="cls-2" d="M42.26,25.22a2.72,2.72,0,1,1-2.72-2.72,2.72,2.72,0,0,1,2.72,2.72m-2.72-1.53a1.53,1.53,0,1,0,1.53,1.53,1.52,1.52,0,0,0-1.53-1.53"/><path class="cls-2" d="M42.59,29.38h-.92v-.75a.31.31,0,0,0-.33-.33h-.57a.31.31,0,0,0-.33.33v.75H38.63v-.75a.31.31,0,0,0-.33-.33h-.57a.31.31,0,0,0-.33.33v.75h-.92a.31.31,0,0,0-.33.33v.36a.3.3,0,0,0,.33.33h6.11a.3.3,0,0,0,.33-.33v-.36a.31.31,0,0,0-.33-.33"/><path class="cls-2" d="M15.5,25.22a2.72,2.72,0,1,1-2.72-2.72,2.72,2.72,0,0,1,2.72,2.72m-2.72-1.53a1.53,1.53,0,1,0,1.53,1.53,1.53,1.53,0,0,0-1.53-1.53"/><path class="cls-2" d="M15.84,29.38h-.92v-.75a.31.31,0,0,0-.34-.33H14a.31.31,0,0,0-.33.33v.75H11.87v-.75a.31.31,0,0,0-.33-.33H11a.32.32,0,0,0-.34.33v.75H9.72a.31.31,0,0,0-.33.33v.36a.31.31,0,0,0,.33.33h6.12a.3.3,0,0,0,.33-.33v-.36a.31.31,0,0,0-.33-.33"/><path class="cls-2" d="M29.17,30.22v-7a.32.32,0,0,0-.34-.33h-.57a.31.31,0,0,0-.33.33v7a.32.32,0,0,0,.33.34h.57a.33.33,0,0,0,.34-.34"/><path class="cls-2" d="M25.31,23.27H22.73a.31.31,0,0,0-.33.33V24a.31.31,0,0,0,.33.32h2c.17,0,.22.06.22.22V25.9c0,.84-.07,1-.72,1.43-.32.22-1.14.74-1.57,1a.32.32,0,0,0-.09.45l.27.43a.31.31,0,0,0,.46.11l1.49-1c1.16-.8,1.38-1.22,1.38-2.21V24.07c0-.61-.2-.8-.82-.8"/></g></g></svg>